<?xml version="1.0" standalone="no"?>
<!DOCTYPE svg PUBLIC "-//W3C//DTD SVG 1.1//EN" "http://www.w3.org/Graphics/SVG/1.1/DTD/svg11.dtd" >
<svg xmlns="http://www.w3.org/2000/svg">
<metadata></metadata>
<defs>
<font id="gandhi_serifbold" horiz-adv-x="1126" >
<font-face units-per-em="2048" ascent="1567" descent="-481" />
<missing-glyph horiz-adv-x="512" />
<glyph horiz-adv-x="2048" />
<glyph horiz-adv-x="2048" />
<glyph unicode="&#xd;" horiz-adv-x="2048" />
<glyph unicode=" "  horiz-adv-x="512" />
<glyph unicode="&#x09;" horiz-adv-x="512" />
<glyph unicode="&#xa0;" horiz-adv-x="512" />
<glyph unicode="!" horiz-adv-x="700" d="M195 123q0 61 44.5 105t108.5 44q65 0 109.5 -43t44.5 -108q0 -61 -45 -105.5t-109 -44.5q-65 0 -109 43t-44 109zM195 1266q0 65 42 100t111 35t113.5 -35t44.5 -100q0 -60 -41.5 -350t-75.5 -504h-78q-33 207 -74.5 500.5t-41.5 353.5z" />
<glyph unicode="&#x22;" horiz-adv-x="843" d="M133 1323h250l-90 -459h-70zM461 1323h250l-90 -459h-70z" />
<glyph unicode="#" d="M66 369v131h219l41 252h-234v131h256l53 317h129l-53 -317h262l54 317h129l-54 -317h207v-131h-229l-41 -252h244v-131h-267l-51 -318h-129l51 318h-262l-51 -318h-129l51 318h-196zM414 500h262l41 252h-262z" />
<glyph unicode="$" d="M133 395h80q25 -157 98.5 -248.5t210.5 -101.5v510q-148 73 -202 110q-146 102 -166 251q-4 26 -4 55q0 158 106.5 259.5t273.5 119.5v217h109v-217q148 -8 299 -62l-6 -305h-72q-23 113 -78.5 189t-142.5 98v-469q149 -76 208 -120q153 -115 162 -285q1 -12 1 -25 q0 -158 -102.5 -264.5t-276.5 -129.5v-210h-109v204q-96 3 -197.5 28.5t-172.5 61.5zM365 1090q0 -76 42.5 -130t122.5 -102v416q-71 -11 -118 -60.5t-47 -123.5zM631 53q76 19 125 70t49 129q0 83 -45.5 140.5t-128.5 105.5v-445z" />
<glyph unicode="%" horiz-adv-x="1603" d="M72 1024q0 151 92.5 239.5t245.5 88.5q145 0 233 -92t88 -230q0 -151 -92.5 -239.5t-245.5 -88.5q-145 0 -233 92t-88 230zM244 1026q0 -260 159 -260q156 0 156 262q0 260 -160 260q-155 0 -155 -262zM276 43l951 1309l102 -72l-950 -1309zM872 293q0 151 92.5 239.5 t245.5 88.5q145 0 233.5 -92t88.5 -230q0 -151 -92.5 -239.5t-245.5 -88.5q-145 0 -233.5 92t-88.5 230zM1044 295q0 -260 160 -260q156 0 156 262q0 260 -160 260q-156 0 -156 -262z" />
<glyph unicode="&#x26;" horiz-adv-x="1544" d="M72 336q0 143 93 246.5t261 165.5q-32 41 -52 70t-43 70.5t-34.5 83.5t-11.5 85q0 135 102.5 215t284.5 80q165 0 256.5 -68.5t91.5 -193.5q0 -115 -75.5 -200.5t-215.5 -139.5l268 -365l203 254l-143 43v57h436v-57l-166 -45l-276 -324l18 -24q91 -123 150.5 -168 t140.5 -45h92v-66q-49 -18 -149 -28.5t-158 -10.5q-79 0 -135.5 33t-120.5 111q-155 -144 -395 -144q-118 0 -211.5 38.5t-152 122.5t-58.5 204zM336 377q0 -141 64 -216t188 -75q129 0 241 109l-366 499q-127 -111 -127 -317zM535 1106q0 -52 24 -104.5t78 -127.5l57 -79 q105 137 105 297q0 84 -32.5 137t-94.5 53t-99.5 -49t-37.5 -127z" />
<glyph unicode="'" horiz-adv-x="516" d="M133 1323h250l-90 -459h-70z" />
<glyph unicode="(" horiz-adv-x="929" d="M133 649q0 150 37 285.5t99 240t147 191.5t178.5 146t196.5 98l26 -58q-106 -75 -186 -180t-126 -224.5t-68.5 -243.5t-22.5 -255t22.5 -255t68.5 -243.5t126 -224.5t186 -180l-26 -57q-103 39 -196.5 98t-178.5 145.5t-147 191t-99 240t-37 285.5z" />
<glyph unicode=")" horiz-adv-x="929" d="M113 -254q106 75 186 180t126 224.5t68.5 243.5t22.5 255t-22.5 255t-68.5 243.5t-126 224.5t-186 180l26 58q103 -39 196.5 -98t178.5 -146t147 -191.5t99 -240t37 -285.5t-37 -285.5t-99 -240t-147 -191t-178.5 -145.5t-196.5 -98z" />
<glyph unicode="*" horiz-adv-x="913" d="M72 920l331 75l-331 80l123 223l231 -256l-96 330h252l-97 -332l234 258l123 -223l-328 -80l328 -75l-123 -222l-234 250l97 -325h-252l96 321l-231 -246z" />
<glyph unicode="+" d="M102 555v131h392v391h135v-391h395v-131h-395v-389h-135v389h-392z" />
<glyph unicode="," horiz-adv-x="512" d="M104 115q0 71 43 110t109 39q72 0 112 -49.5t40 -128.5q0 -121 -77 -230t-179 -167l-43 55q57 39 106 103t59 124h-22q-65 2 -106.5 41.5t-41.5 102.5z" />
<glyph unicode="-" horiz-adv-x="716" d="M72 440v150h573v-150h-573z" />
<glyph unicode="." horiz-adv-x="512" d="M102 123q0 61 45 105t109 44q65 0 109.5 -43t44.5 -108q0 -61 -45 -105.5t-109 -44.5q-65 0 -109.5 43.5t-44.5 108.5z" />
<glyph unicode="/" horiz-adv-x="1097" d="M31 -481l897 2068h139l-897 -2068h-139z" />
<glyph unicode="0" d="M82 662q0 193 55.5 348.5t166 248.5t257.5 93q219 0 350 -188.5t131 -501.5q0 -192 -55.5 -347t-166.5 -249.5t-259 -94.5q-117 0 -210 55.5t-151 152t-88 219.5t-30 264zM360 662q0 -300 46.5 -455.5t156.5 -155.5q201 0 201 611q0 222 -24.5 359t-67.5 194t-109 57 q-43 0 -77 -25.5t-55.5 -73.5t-36 -104.5t-22 -130t-10 -137t-2.5 -139.5z" />
<glyph unicode="1" d="M186 1122v68l506 145h66v-1224l266 -52v-59h-817v59l270 52v1032z" />
<glyph unicode="2" d="M41 0v61q148 119 257 226t193.5 220t127.5 227t43 229q0 166 -48 245.5t-135 79.5q-67 0 -107.5 -44.5t-55.5 -113.5t-15 -169q-28 0 -44.5 0.5t-47 3t-49 9.5t-38.5 18t-30 29.5t-10 43.5q0 88 60.5 154.5t157.5 99.5t212 33q197 0 311.5 -95.5t114.5 -265.5 q0 -333 -555 -735h504l55 172h68l-19 -428h-950z" />
<glyph unicode="3" d="M74 201q0 84 59 124t137 42q0 -139 68.5 -228.5t187.5 -89.5q102 0 164 67.5t62 176.5q0 309 -455 328v75q99 16 173.5 50t117.5 80.5t63.5 97.5t20.5 106q0 87 -51 137t-134 50q-79 0 -142.5 -39.5t-121.5 -114.5l-63 49q70 110 180.5 175t245.5 65q94 0 173 -30.5 t131 -97.5t52 -159q0 -124 -87 -205.5t-220 -111.5q362 -83 362 -379q0 -171 -135 -284.5t-340 -113.5q-193 0 -320.5 66t-127.5 164z" />
<glyph unicode="4" d="M66 385v66l718 884h88v-809h181v-141h-181v-285l166 -41v-59h-637v59l195 41v285h-530zM238 526h358v449z" />
<glyph unicode="5" d="M113 201q0 46 20.5 80t52.5 51.5t63 26t60 8.5q0 -63 13 -117.5t40 -101t75.5 -73t113.5 -26.5q100 0 162.5 65.5t62.5 176.5q0 68 -25.5 122t-68.5 88t-102 56.5t-122 31.5t-134 9h-142l66 719h581l41 113h64l-14 -371h-607l-18 -236h115q119 0 225 -25t192 -74.5 t136.5 -131t50.5 -186.5q0 -135 -66 -235.5t-172.5 -150t-236.5 -49.5q-187 0 -306.5 67.5t-119.5 162.5z" />
<glyph unicode="6" d="M104 489q0 177 60 327.5t168 260t248 186t309 119.5l20 -73q-528 -199 -528 -791q0 -222 51.5 -344.5t153.5 -122.5q55 0 93.5 32.5t57.5 85.5t27 105.5t8 108.5q0 31 -2.5 63t-9.5 74.5t-21.5 79t-35.5 68.5t-55 50.5t-77 18.5q-49 0 -104 -18l-14 69q42 23 101.5 39.5 t111.5 16.5q179 0 271.5 -114t92.5 -294q0 -207 -135 -336t-338 -129q-97 0 -177.5 31t-143 92.5t-97.5 162.5t-35 232z" />
<glyph unicode="7" d="M115 901l35 488h65l23 -72h825v-72q-23 -78 -143 -389.5t-229 -583.5l-109 -272h-363l690 1061h-676l-49 -160h-69z" />
<glyph unicode="8" d="M100 311q0 117 74 203t213 127q-73 46 -122.5 92t-84.5 116.5t-35 154.5q0 153 120 250.5t302 97.5q203 0 318.5 -82t115.5 -230q0 -103 -67.5 -181t-196.5 -122q66 -39 111.5 -72.5t90.5 -81t68 -106t23 -127.5q0 -160 -126.5 -269.5t-334.5 -109.5q-219 0 -344 90.5 t-125 249.5zM354 322q0 -121 57 -200t171 -79q89 0 151 59t62 162q0 27 -5 51t-19 47t-25.5 40.5t-37 38.5t-40 33.5t-49.5 33.5l-50 30t-56 31.5t-54 30.5q-105 -105 -105 -278zM365 1096q0 -43 17 -82t40 -67.5t66 -60.5t76.5 -52.5t88.5 -51.5q109 95 109 269 q0 94 -50.5 160.5t-152.5 66.5q-87 0 -140.5 -48.5t-53.5 -133.5z" />
<glyph unicode="9" d="M98 887q0 207 135 336t338 129q97 0 177.5 -31t143 -92.5t97.5 -162.5t35 -232q0 -177 -60 -327.5t-167.5 -260t-247.5 -186t-309 -119.5l-21 73q529 199 529 791q0 222 -51.5 344.5t-153.5 122.5q-55 0 -94 -32.5t-58 -85.5t-27 -105.5t-8 -108.5q0 -31 2.5 -63 t9.5 -74.5t21.5 -79t35.5 -68.5t55 -50.5t77 -18.5q49 0 105 18l14 -69q-42 -23 -101.5 -39.5t-111.5 -16.5q-179 0 -272 114t-93 294z" />
<glyph unicode=":" horiz-adv-x="512" d="M102 123q0 61 45 105t109 44q65 0 109.5 -43t44.5 -108q0 -61 -45 -105.5t-109 -44.5q-65 0 -109.5 43.5t-44.5 108.5zM102 707q0 61 45 105t109 44q65 0 109.5 -43t44.5 -108q0 -61 -45 -105.5t-109 -44.5q-65 0 -109.5 43.5t-44.5 108.5z" />
<glyph unicode=";" horiz-adv-x="512" d="M102 707q0 61 45 105t109 44q65 0 109.5 -43t44.5 -108q0 -61 -45 -105.5t-109 -44.5q-65 0 -109.5 43.5t-44.5 108.5zM104 115q0 71 43 110t109 39q72 0 112 -49.5t40 -128.5q0 -121 -77 -230t-179 -167l-43 55q57 39 106 103t59 124h-22q-65 2 -106.5 41.5t-41.5 102.5 z" />
<glyph unicode="&#x3c;" d="M150 573v103l751 399l60 -123l-623 -327l623 -328l-62 -123z" />
<glyph unicode="=" d="M102 358v131h922v-131h-922zM102 756v131h922v-131h-922z" />
<glyph unicode="&#x3e;" d="M166 297l622 328l-622 327l59 123l752 -399v-103l-750 -399z" />
<glyph unicode="?" horiz-adv-x="843" d="M72 1171q0 93 99 161.5t249 68.5q155 0 253.5 -76.5t98.5 -214.5q0 -63 -21 -120.5t-55 -100.5t-75.5 -82t-82.5 -71.5t-75 -62t-55 -61t-21 -61.5t24.5 -49t59.5 -19q51 0 115 33l20 -61q-31 -21 -89.5 -38.5t-110.5 -17.5q-108 0 -173 52.5t-65 144.5q0 49 22 95.5 t57 85.5t77.5 77t85.5 75.5t78 75.5t57 82.5t22 90.5q0 75 -37 118t-102 43q-48 0 -80.5 -22t-48 -64t-21 -84.5t-6.5 -101.5h-59q-69 0 -105 28.5t-36 75.5zM246 123q0 61 44.5 105t108.5 44q65 0 108.5 -42.5t43.5 -108.5q0 -61 -45 -105.5t-109 -44.5t-107.5 43.5 t-43.5 108.5z" />
<glyph unicode="@" horiz-adv-x="1951" d="M113 453q0 158 38.5 297.5t115 253.5t184.5 196t254 127t317 45q125 0 241 -28t221.5 -89.5t184 -150.5t124.5 -219.5t46 -288.5q0 -278 -154.5 -451.5t-406.5 -173.5q-79 0 -137 38t-58 114q-132 -152 -325 -152q-65 0 -115 15.5t-85.5 59.5t-35.5 114q0 272 561 346 v227q0 108 -26 154.5t-90 46.5q-82 0 -127.5 -70.5t-48.5 -199.5h-76q-54 0 -89.5 8.5t-51 23.5t-20.5 28.5t-5 31.5q0 59 45 107.5t116 77t151 43.5t157 15q177 0 251 -74t74 -206v-545q0 -63 64 -63q91 0 162.5 70t109 180.5t37.5 236.5q0 156 -52.5 282.5t-145.5 209.5 t-220 127.5t-276 44.5q-178 0 -325 -62t-245.5 -170.5t-152 -256.5t-53.5 -320q0 -390 202.5 -593.5t589.5 -203.5q167 0 322 51t276 135l62 -96q-132 -90 -309.5 -147.5t-352.5 -57.5q-234 1 -410 63.5t-288.5 181.5t-168.5 286t-56 381zM791 211q0 -54 29 -84.5t77 -30.5 q51 0 102 32t84 83v233q-292 -69 -292 -233z" />
<glyph unicode="A" horiz-adv-x="1544" d="M51 0v59l164 47l533 1295h67l506 -1297l162 -45v-59h-623v59l160 50l-141 370h-406l-147 -375l159 -45v-59h-434zM510 571h334l-162 433z" />
<glyph unicode="B" horiz-adv-x="1333" d="M82 0v59l162 45v1164l-162 45v59h600q66 0 120 -4.5t112 -16t101 -34.5t79 -57t54.5 -86t18.5 -119q0 -81 -28.5 -141t-82.5 -98.5t-117 -61t-148 -37.5q93 -3 172 -23.5t142.5 -59.5t99.5 -104t36 -149q0 -99 -39.5 -173t-113 -119t-172 -67t-222.5 -22h-612zM524 92 q44 -16 109 -16q88 0 151.5 24.5t98 68t50 92.5t15.5 106q0 144 -83.5 223.5t-246.5 79.5h-94v-578zM524 758h105q126 0 190 76t64 204q0 258 -228 258q-80 0 -131 -14v-524z" />
<glyph unicode="C" horiz-adv-x="1437" d="M113 676q0 151 37.5 273t102.5 205.5t156.5 139.5t197.5 81.5t227 25.5q114 0 251.5 -28.5t210.5 -59.5l13 -328h-76q-49 170 -149 256t-244 86q-209 0 -325 -172.5t-116 -454.5q0 -304 115 -477.5t348 -173.5q143 0 241.5 92t127.5 254h84l-27 -327q-224 -97 -438 -97 q-166 0 -298 41t-231.5 124t-153.5 220t-54 320z" />
<glyph unicode="D" horiz-adv-x="1597" d="M82 0v59l162 45v1164l-162 45v59h668q360 0 547.5 -165.5t187.5 -485.5q0 -351 -198.5 -536t-561.5 -185h-643zM524 86h172q242 0 372 158t130 458q0 96 -13.5 177t-48.5 158.5t-90 131.5t-143 86.5t-203 32.5h-176v-1202z" />
<glyph unicode="E" horiz-adv-x="1251" d="M82 0v59l162 45v1164l-162 45v59h1024v-366h-57l-115 280h-410v-524h236l71 203h54v-492h-54l-71 203h-236v-590h426l131 326h58l-19 -412h-1038z" />
<glyph unicode="F" horiz-adv-x="1191" d="M82 0v59l162 45v1164l-162 45v59h1028v-366h-57l-113 280h-416v-524h226l71 203h53v-492h-53l-73 203h-224v-572l170 -47v-57h-612z" />
<glyph unicode="G" horiz-adv-x="1574" d="M113 676q0 155 38.5 279t105 206.5t160 137t199.5 78.5t228 24t264.5 -29t216.5 -61l12 -326h-77q-102 342 -420 342q-89 0 -162 -32t-124.5 -89t-86.5 -136t-51.5 -173t-16.5 -201q0 -649 461 -649q58 0 116.5 14t92.5 31v424l-166 45v60h600v-60l-157 -45v-432 q-76 -43 -220.5 -78t-255.5 -35q-132 0 -245 25.5t-208 80.5t-162 136.5t-104.5 199t-37.5 263.5z" />
<glyph unicode="H" horiz-adv-x="1683" d="M82 0v59l162 45v1164l-162 45v59h604v-59l-162 -45v-504h635v504l-162 45v59h605v-59l-162 -45v-1164l162 -45v-59h-605v59l162 45v568h-635v-568l162 -45v-59h-604z" />
<glyph unicode="I" horiz-adv-x="768" d="M82 0v59l162 45v1164l-162 45v59h604v-59l-162 -45v-1164l162 -45v-59h-604z" />
<glyph unicode="J" horiz-adv-x="786" d="M51 -135q69 39 107 70t66 78.5t38 110t10 159.5v985l-161 45v59h604v-59l-162 -45v-893q0 -223 -110 -363t-363 -207z" />
<glyph unicode="K" horiz-adv-x="1501" d="M82 0v59l162 45v1164l-162 45v59h604v-59l-162 -45v-1164l162 -45v-59h-604zM555 702l553 566l-160 45v59h473v-59l-161 -45l-447 -443l479 -688q54 -78 148 -78v-59q-138 -29 -260 -29q-74 0 -119.5 26t-85.5 85z" />
<glyph unicode="L" horiz-adv-x="1228" d="M82 0v59l162 45v1164l-162 45v59h604v-59l-162 -45v-1182h434l132 336h57l-19 -422h-1046z" />
<glyph unicode="M" horiz-adv-x="1902" d="M72 0v59l161 45v1164l-161 45v59h475l414 -1010l403 1010h422v-59l-127 -45v-1162l162 -47v-59h-604v59l165 47v1041l-462 -1165h-86l-490 1173v-1051l162 -45v-59h-434z" />
<glyph unicode="N" horiz-adv-x="1538" d="M72 0v59l161 45v1164l-161 45v59h452l672 -903v799l-162 45v59h432v-59l-159 -45v-1286h-84l-879 1177v-1055l162 -45v-59h-434z" />
<glyph unicode="O" horiz-adv-x="1605" d="M113 684q0 209 83 370t245 254t380 93q135 0 246 -35.5t189.5 -99.5t132 -153.5t79 -197t25.5 -231.5q0 -150 -47 -280t-133.5 -226t-217.5 -151.5t-290 -55.5q-338 0 -515 189t-177 524zM399 690q0 -308 102.5 -475.5t319.5 -167.5q85 0 152.5 38.5t110 101t71 147 t40 171t11.5 179.5q0 318 -107 479.5t-306 161.5q-193 0 -293.5 -172.5t-100.5 -462.5z" />
<glyph unicode="P" horiz-adv-x="1253" d="M82 0v59l162 45v1164l-162 45v59h561q99 0 175.5 -9t147 -32.5t116.5 -62.5t73 -101.5t27 -146.5q0 -103 -44 -183.5t-119.5 -129t-170.5 -73t-203 -24.5h-65v64q163 23 240 109.5t77 236.5q0 136 -63.5 206t-188.5 70q-52 0 -121 -16v-1178l162 -43v-59h-604z" />
<glyph unicode="Q" horiz-adv-x="1605" d="M113 684q0 209 83 370t245 254t380 93q135 0 246 -35.5t189.5 -99.5t132 -153.5t79 -197t25.5 -231.5q0 -262 -136 -451.5t-376 -242.5q81 -139 205.5 -257t224.5 -118h43v-59q-125 -35 -291 -35q-68 0 -143 44t-142.5 116.5t-122.5 147.5t-100 153q-266 39 -404 222.5 t-138 479.5zM399 690q0 -308 102.5 -475.5t319.5 -167.5q85 0 152.5 38.5t110 101t71 147t40 171t11.5 179.5q0 318 -107 479.5t-306 161.5q-193 0 -293.5 -172.5t-100.5 -462.5z" />
<glyph unicode="R" horiz-adv-x="1396" d="M82 0v59l162 45v1164l-162 47v57h565q101 0 177.5 -8.5t146 -31t114.5 -60t71 -98t26 -142.5q0 -153 -114.5 -250.5t-340.5 -117.5q103 -14 169.5 -56t121.5 -135l192 -326q26 -44 62 -63t104 -25v-59q-28 -9 -109 -19t-139 -10q-68 0 -114 29t-84 96l-254 445 q-35 59 -59 80.5t-70 21.5h-23v-541l162 -43v-59h-604zM524 715h97q141 0 209.5 82t68.5 229q0 270 -250 270q-51 0 -125 -16v-565z" />
<glyph unicode="S" horiz-adv-x="1083" d="M102 410h80q60 -363 344 -363q106 0 182 56.5t76 158.5q0 58 -22.5 106t-61 82.5t-88.5 64.5t-105 57t-110.5 55t-105.5 63.5t-88.5 78t-61 103.5t-22.5 134q0 180 127.5 287.5t318.5 107.5q163 0 355 -66l-7 -315h-73q-26 138 -100.5 221.5t-192.5 83.5 q-84 0 -147.5 -54.5t-63.5 -142.5q0 -54 22.5 -99t60.5 -78t87 -62.5t103.5 -57t108.5 -57t103 -66.5t87 -81t60.5 -106t22.5 -136q0 -184 -129.5 -299t-343.5 -115q-97 0 -207.5 26.5t-189.5 65.5z" />
<glyph unicode="T" horiz-adv-x="1370" d="M82 1006v366h1206v-366h-57l-113 280h-293v-1182l170 -45v-59h-620v59l170 45v1182h-293l-113 -280h-57z" />
<glyph unicode="U" horiz-adv-x="1529" d="M61 1313v59h605v-59l-162 -45v-801q0 -186 89.5 -285.5t248.5 -99.5q162 0 264 108.5t102 319.5v758l-161 45v59h432v-59l-162 -45v-768q0 -131 -40 -233t-111 -166t-164.5 -97t-204.5 -33q-84 0 -159 11.5t-153 44.5t-134 84.5t-92 138t-36 199.5v819z" />
<glyph unicode="V" horiz-adv-x="1533" d="M61 1313v59h627v-59l-160 -49l320 -881l354 885l-160 45v59h441v-59l-164 -47l-526 -1284h-78l-492 1286z" />
<glyph unicode="W" horiz-adv-x="2320" d="M61 1313v59h623v-59l-160 -49l297 -863l271 721l-56 146l-153 45v59h606v-59l-160 -49l320 -856l333 860l-159 45v59h446v-59l-164 -47l-514 -1284h-67l-373 983l-377 -983h-69l-482 1286z" />
<glyph unicode="X" horiz-adv-x="1585" d="M61 0v59l172 47l441 547l-418 615l-147 45v59h616v-59l-156 -47l289 -432l334 434l-156 45v59h441v-59l-162 -45l-406 -512l445 -652l170 -45v-59h-658v59l178 45l-317 469l-360 -469l174 -45v-59h-480z" />
<glyph unicode="Y" horiz-adv-x="1462" d="M41 1313v59h616v-59l-155 -47l329 -549l308 551l-152 45v59h434v-59l-164 -47l-378 -674v-488l170 -45v-59h-621v59l172 45v486l-412 678z" />
<glyph unicode="Z" horiz-adv-x="1347" d="M72 0v53l788 1233h-549l-112 -280h-58v366h1065v-53l-788 -1233h639l131 336h57l-18 -422h-1155z" />
<glyph unicode="[" horiz-adv-x="856" d="M195 -322v1942h548v-74h-270v-1792h270v-76h-548z" />
<glyph unicode="\" horiz-adv-x="1097" d="M31 1587h139l897 -2068h-139z" />
<glyph unicode="]" horiz-adv-x="856" d="M113 -246h270v1792h-270v74h549v-1942h-549v76z" />
<glyph unicode="^" d="M113 602l399 750h102l400 -750l-129 -57l-322 614l-321 -614z" />
<glyph unicode="_" d="M-10 -199h1147v-149h-1147v149z" />
<glyph unicode="`" horiz-adv-x="819" d="M225 1448q0 72 203 72q45 -147 166 -340l-62 -37q-92 63 -199.5 163.5t-107.5 141.5z" />
<glyph unicode="a" horiz-adv-x="1064" d="M72 160q0 137 147 224t414 122v227q0 108 -27 154.5t-92 46.5q-82 0 -126.5 -70.5t-47.5 -199.5h-76q-54 0 -89.5 8.5t-51 23.5t-20.5 28.5t-5 31.5q0 59 44.5 107.5t115.5 77t150.5 43.5t156.5 15q92 0 157.5 -20.5t102 -60t52.5 -88t16 -111.5v-576q0 -55 19 -72.5 t65 -17.5h43l-2 -49q-125 -33 -252 -33q-133 0 -133 123v29q-131 -152 -326 -152q-48 0 -87.5 9t-74 30t-54 59t-19.5 91zM340 211q0 -54 29 -84.5t77 -30.5q47 0 99 30.5t88 82.5v235q-50 -11 -94 -27t-92.5 -43t-77.5 -69t-29 -94z" />
<glyph unicode="b" horiz-adv-x="1185" d="M20 1350v55l383 82v-645q51 65 136 111t172 46q125 0 213 -62t129 -162.5t41 -229.5q0 -121 -29.5 -219.5t-79 -163.5t-116.5 -109t-138.5 -63t-148.5 -19q-146 0 -293 58l-80 -58h-59v1358zM403 106q88 -71 205 -71q110 0 173 115t63 292q0 186 -61.5 301t-180.5 115 q-47 0 -101 -25.5t-98 -74.5v-652z" />
<glyph unicode="c" horiz-adv-x="1034" d="M92 418q0 167 63.5 298.5t185 207t282.5 75.5q130 0 228.5 -57.5t98.5 -146.5q0 -27 -9.5 -47.5t-33 -38t-68.5 -26.5t-110 -9q-1 59 -6.5 101.5t-20 81.5t-43.5 59t-73 20q-110 0 -177 -118t-67 -320q0 -186 80 -295t227 -109q129 0 279 115l35 -53q-86 -82 -197 -133.5 t-236 -51.5q-94 0 -171 25t-138 76.5t-95 139.5t-34 206z" />
<glyph unicode="d" horiz-adv-x="1216" d="M92 430q0 118 29.5 215t79 162t116 109t138.5 63.5t149 19.5q90 0 178 -20v362l-137 19v57l391 74v-1366l129 -21v-53l-383 -80v166q-50 -69 -130 -117.5t-171 -48.5q-100 0 -176.5 36t-122 99.5t-68 145t-22.5 178.5zM342 526q0 -413 244 -413q108 0 196 102v637 q-28 33 -83.5 58.5t-110.5 25.5q-121 0 -183.5 -108.5t-62.5 -301.5z" />
<glyph unicode="e" horiz-adv-x="1079" d="M92 438q0 128 40.5 235.5t109.5 178t159.5 109t192.5 38.5q179 0 286 -96t107 -266q0 -54 -4 -78h-641v-22q0 -222 81 -332.5t234 -110.5q149 0 291 107l35 -54q-192 -176 -424 -176q-224 0 -345.5 117.5t-121.5 349.5zM346 633h373q6 69 6 80q0 108 -30.5 164.5 t-110.5 56.5q-90 0 -155 -75t-83 -226z" />
<glyph unicode="f" horiz-adv-x="722" d="M72 0v49l131 41v789h-131v92h131v59q1 78 32.5 151.5t82.5 127.5t113 95t125.5 62t117.5 21q36 0 58 -20.5t22 -59.5q0 -73 -60 -137q-49 32 -100.5 50.5t-87.5 18.5q-42 0 -61 -25t-19 -77q0 -35 9.5 -123.5t19.5 -142.5h186v-92h-186v-789l133 -41v-49h-516z" />
<glyph unicode="g" horiz-adv-x="1110" d="M31 -279q0 80 58.5 138t152.5 86q-26 4 -44.5 8t-43 14.5t-39.5 25t-26 39.5t-11 58q0 82 62 152t159 116q-99 36 -158 111.5t-59 192.5q0 84 37 150.5t98.5 106t134.5 60t152 20.5q173 0 282 -71q42 6 59 25t17 57q0 48 -16 104h55q69 0 108.5 -31.5t39.5 -85.5 q0 -55 -50 -85.5t-129 -30.5h-28q80 -87 80 -226q0 -80 -36.5 -144.5t-97 -104t-134 -60t-152.5 -20.5q-84 0 -144 16q-23 -29 -36 -63t-13 -58q0 -28 16.5 -41.5t55.5 -13.5h262q66 0 118.5 -5t110.5 -22.5t97 -46t64.5 -80t25.5 -121.5q0 -159 -163 -265.5t-415 -106.5 q-220 0 -335 53t-115 149zM246 -223q0 -193 272 -193q53 0 110.5 12.5t111.5 36.5t89 67t35 97q0 32 -12 55t-31.5 37t-51.5 22t-65.5 10.5t-80.5 2.5h-322q-23 -23 -39 -63t-16 -84zM334 672q0 -37 3.5 -71.5t15 -74.5t29.5 -69t50 -48.5t74 -19.5q80 0 123 71t43 191 q0 49 -6.5 93t-23 91.5t-52.5 76t-88 28.5q-71 0 -119 -72.5t-49 -195.5z" />
<glyph unicode="h" horiz-adv-x="1236" d="M61 0v49l129 41v1239l-129 21v55l383 82v-643q75 75 167.5 115t179.5 40q138 0 205 -81t67 -230v-598l133 -41v-49h-516v49l131 41v572q0 99 -39 147.5t-121 48.5q-51 0 -106.5 -26t-100.5 -70v-672l121 -41v-49h-504z" />
<glyph unicode="i" horiz-adv-x="618" d="M66 0v49l129 39v748l-129 20v55l383 88v-911l129 -39v-49h-512zM166 1319q0 61 44.5 105t108.5 44q65 0 109.5 -43t44.5 -108q0 -61 -45 -105.5t-109 -44.5q-65 0 -109 43t-44 109z" />
<glyph unicode="j" horiz-adv-x="610" d="M-102 -401q0 51 28.5 95t59.5 62q106 -118 170 -118q25 0 38 15.5t15 32t2 44.5v1106l-129 20v55l383 88v-1009q0 -89 -31 -167t-81.5 -132.5t-114 -94t-130 -58.5t-128.5 -19q-38 0 -60 20.5t-22 59.5zM186 1319q0 61 45 105t109 44q65 0 109.5 -43t44.5 -108 q0 -61 -45 -105.5t-109 -44.5q-65 0 -109.5 43.5t-44.5 108.5z" />
<glyph unicode="k" horiz-adv-x="1224" d="M61 0v49l129 41v1239l-129 21v55l383 82v-1397l121 -41v-49h-504zM477 496l361 381l-136 41v53h412v-51l-153 -48l-267 -274l344 -448q34 -42 65.5 -64.5t90.5 -36.5v-45q-28 -11 -98 -22t-107 -11q-131 0 -182 70z" />
<glyph unicode="l" horiz-adv-x="634" d="M61 0v49l129 39v1241l-129 21v55l383 82v-1399l129 -39v-49h-512z" />
<glyph unicode="m" horiz-adv-x="1843" d="M66 0v49l129 41v746l-129 20v55l383 88v-159q151 159 335 159q182 0 256 -155q77 77 174 116t181 39q137 0 205.5 -81t68.5 -228v-600l133 -41v-49h-516v49l131 41v574q0 102 -36.5 148t-125.5 46q-46 0 -100.5 -21t-95.5 -55v-692l133 -41v-49h-516v49l131 41v574 q0 99 -35.5 146.5t-118.5 47.5q-54 0 -109 -26t-95 -70v-672l120 -41v-49h-503z" />
<glyph unicode="n" horiz-adv-x="1241" d="M66 0v49l129 41v746l-129 20v55l383 88v-155q76 76 168 115.5t178 39.5q138 0 205 -81t67 -230v-598l133 -41v-49h-516v49l131 41v572q0 99 -39 147.5t-121 48.5q-51 0 -106 -26t-100 -70v-672l120 -41v-49h-503z" />
<glyph unicode="o" horiz-adv-x="1167" d="M92 455q0 251 134 397.5t360 146.5q220 0 354.5 -131t134.5 -352q0 -253 -131.5 -399t-361.5 -146q-220 0 -355 131.5t-135 352.5zM358 485q0 -216 56.5 -333t171.5 -117q111 0 167 119t56 331q0 216 -56 333.5t-171 117.5q-111 0 -167.5 -119.5t-56.5 -331.5z" />
<glyph unicode="p" horiz-adv-x="1206" d="M41 -422l129 39v1227l-129 20v54l383 81v-157q51 65 135.5 111t171.5 46q125 0 213 -62t129 -162.5t41 -229.5q0 -120 -29.5 -217.5t-79 -163t-116 -110t-138.5 -64t-149 -19.5q-74 0 -178 23v-377l129 -39v-49h-512v49zM424 106q88 -71 205 -71q110 0 172.5 115 t62.5 292q0 187 -61 301.5t-180 114.5q-47 0 -101 -25.5t-98 -74.5v-652z" />
<glyph unicode="q" horiz-adv-x="1185" d="M92 424q0 121 29.5 219.5t79 163.5t116.5 109.5t138.5 63.5t148.5 19q157 0 291 -59l82 59h59v-1382l129 -39v-49h-512v49l129 39v518q-50 -70 -132 -117t-169 -47q-100 0 -176.5 37.5t-122 102t-68 144t-22.5 169.5zM342 526q0 -413 246 -413q101 0 194 100v641 q-89 82 -204 82q-117 0 -176.5 -114.5t-59.5 -295.5z" />
<glyph unicode="r" horiz-adv-x="911" d="M66 0v49l129 41v746l-129 20v55l383 88v-223q167 223 311 223q110 0 110 -104q0 -53 -20 -99t-43 -71q-92 57 -176 57q-99 0 -182 -92v-600l143 -41v-49h-526z" />
<glyph unicode="s" horiz-adv-x="905" d="M61 158q0 65 52 103.5t131 43.5q13 -268 227 -268q78 0 128 35t50 98q0 45 -30 81t-77.5 62t-105 50t-115 52.5t-105 63t-77.5 87.5t-30 120q0 79 29.5 140.5t81 98.5t116 55.5t139.5 18.5q144 0 235 -58t91 -146q0 -119 -205 -119q-2 56 -8 95.5t-21 80.5t-46 62.5 t-77 21.5q-69 0 -110 -39.5t-41 -110.5q0 -46 29.5 -82.5t77 -61.5t104.5 -48.5t114 -50.5t104.5 -59.5t77 -83t29.5 -113.5q0 -155 -110 -235.5t-281 -80.5q-93 0 -177.5 21.5t-142 65t-57.5 100.5z" />
<glyph unicode="t" horiz-adv-x="751" d="M51 879v92h133l176 237h76v-237h234v-92h-234v-664q0 -72 20 -102.5t72 -30.5q28 0 72.5 15t77.5 34l20 -65q-63 -40 -146.5 -67.5t-156.5 -27.5q-213 0 -213 228v680h-131z" />
<glyph unicode="u" horiz-adv-x="1200" d="M31 856v55l383 88v-692q0 -98 38 -146t121 -48q50 0 102 24t91 66v633l-129 20v55l383 88v-874l129 -21v-53l-383 -80v144q-157 -144 -332 -144q-137 0 -205.5 81.5t-68.5 228.5v555z" />
<glyph unicode="v" horiz-adv-x="1138" d="M31 922v49h528v-49l-139 -45l215 -568l250 565l-133 48v49h356v-49l-131 -50l-381 -872h-78l-366 874z" />
<glyph unicode="w" horiz-adv-x="1648" d="M31 922v49h530v-49l-141 -45l168 -547l280 641h74l229 -647l224 550l-133 48v49h356v-49l-133 -50l-363 -872h-80l-223 616l-280 -616h-78l-305 874z" />
<glyph unicode="x" horiz-adv-x="1204" d="M41 0v41l154 55l284 383l-270 393l-141 52v47h536v-49l-127 -41l197 -287l211 280l-119 48v49h356v-49l-135 -50l-266 -348l305 -438l137 -45v-41h-536v41l123 45l-222 322l-227 -316l131 -51v-41h-391z" />
<glyph unicode="y" horiz-adv-x="1132" d="M31 922v49h524v-49l-135 -45l231 -568l223 563l-133 50v49h361v-49l-131 -50l-420 -1022q-27 -64 -46.5 -104t-53.5 -88.5t-70.5 -75.5t-92 -46t-124.5 -19q-44 0 -75.5 20t-31.5 60q0 70 72 137q91 -72 166 -72q36 0 64 23.5t69 97.5t102 219l-378 872z" />
<glyph unicode="z" horiz-adv-x="1030" d="M72 0v57l542 836h-329l-103 -207h-57l10 285h785v-53l-551 -840h409l105 215h55l-16 -293h-850z" />
<glyph unicode="{" horiz-adv-x="929" d="M92 618v62q120 22 166.5 82.5t46.5 171.5v362q0 85 19.5 146t50 95t80.5 53t97 24.5t114 5.5h151v-70h-88q-24 0 -43 -3t-34 -7.5t-26 -15t-19 -19.5t-13 -27t-8 -32.5t-4 -40.5t-1.5 -46t-0.5 -54v-279q0 -167 -79.5 -253t-256.5 -124q175 -39 255.5 -126t80.5 -251 v-278q0 -52 1 -79t5.5 -60.5t13.5 -49t25.5 -31t42 -21t61.5 -5.5h88v-70h-151q-67 0 -114 5.5t-97 24.5t-80.5 53t-50 95t-19.5 146v363q0 110 -46 170.5t-167 82.5z" />
<glyph unicode="|" horiz-adv-x="614" d="M240 -481v2068h135v-2068h-135z" />
<glyph unicode="}" horiz-adv-x="929" d="M113 -252h88q36 0 61.5 5.5t42 21t25.5 31t13.5 49t5.5 60.5t1 79v278q0 164 80.5 251t255.5 126q-177 38 -256.5 124t-79.5 253v279q0 34 -0.5 54t-1.5 46t-4 40.5t-8 32.5t-13 27t-19 19.5t-26 15t-34 7.5t-43 3h-88v70h151q67 0 114 -5.5t97 -24.5t80.5 -53t50 -95 t19.5 -146v-362q0 -111 46.5 -171.5t166.5 -82.5v-62q-121 -22 -167 -82.5t-46 -170.5v-363q0 -85 -19.5 -146t-50 -95t-80.5 -53t-97 -24.5t-114 -5.5h-151v70z" />
<glyph unicode="~" d="M102 502q28 105 85.5 173t146.5 68q65 0 157 -30.5t172.5 -61t118.5 -30.5q51 0 80 36.5t47 98.5l115 -33q-28 -106 -85 -174t-146 -68q-65 0 -157 30.5t-173 61.5t-119 31q-51 0 -80 -36.5t-47 -98.5z" />
<glyph unicode="&#xa1;" horiz-adv-x="618" d="M154 -295q0 60 41.5 353.5t74.5 500.5h78q34 -214 75.5 -504t41.5 -350q0 -65 -42.5 -100t-111.5 -35t-113 35t-44 100zM158 850q0 61 44.5 105t108.5 44q65 0 109.5 -43t44.5 -108q0 -61 -45 -105.5t-109 -44.5q-65 0 -109 43t-44 109z" />
<glyph unicode="&#xa2;" d="M100 414q0 228 121.5 386.5t319.5 190.5v223h108v-215q161 -3 263 -63.5t102 -140.5q0 -27 -9.5 -47.5t-33 -38t-68.5 -26.5t-110 -9q-11 232 -144 258v-836q14 -2 43 -2q69 0 148.5 31.5t150.5 85.5l35 -53q-72 -69 -171 -118.5t-206 -62.5v-210h-108v206 q-90 4 -167.5 32t-140 79.5t-98 136.5t-35.5 193zM350 494q0 -292 191 -373v801q-87 -33 -139 -146.5t-52 -281.5z" />
<glyph unicode="&#xa3;" d="M98 0v61q56 50 94 87.5t80.5 88.5t64 101t21.5 98q0 74 -36 180h-191v99h154q-52 129 -52 221q0 110 36 192t100.5 130t144.5 71t176 23q52 0 105.5 -11t106 -34.5t85.5 -67.5t33 -102q0 -123 -209 -125q-5 119 -41.5 192.5t-107.5 73.5q-78 0 -123 -56t-45 -143 q0 -57 14.5 -116t41 -134.5t36.5 -113.5h286v-99h-266q4 -36 4 -57q0 -48 -22.5 -95.5t-60 -87t-73 -68t-73.5 -52.5h524l56 172h67l-18 -428h-912z" />
<glyph unicode="&#xa4;" d="M109 264l143 146q-57 88 -57 204q0 122 57 213l-143 146l92 94l143 -145q92 61 223 61q124 0 213 -61l146 145l92 -94l-146 -146q60 -91 60 -202q0 -124 -60 -215l146 -146l-92 -94l-146 145q-92 -61 -219 -61q-126 0 -215 61l-145 -145zM381 623q0 -155 44.5 -225 t141.5 -70q86 0 132 67t46 228q0 286 -184 286q-180 0 -180 -286z" />
<glyph unicode="&#xa5;" d="M-35 1264v59h596v-59l-155 -47l260 -490l243 492l-151 45v59h413v-59l-143 -47l-278 -541h184v-98h-227v-117h227v-99h-227v-258l159 -45v-59h-600v59l162 45v258h-235v99h235v117h-235v98h188l-289 543z" />
<glyph unicode="&#xa6;" horiz-adv-x="614" d="M240 276h135v-757h-135v757zM240 829v758h135v-758h-135z" />
<glyph unicode="&#xa7;" horiz-adv-x="1095" d="M113 563q0 105 67 178t191 109q-162 107 -162 240q0 100 52.5 172.5t133.5 105.5t178 33q158 0 255.5 -52.5t97.5 -146.5q0 -125 -207 -125q0 42 -2.5 74t-12.5 69t-27.5 61t-49 40t-74.5 16q-68 0 -112 -31.5t-44 -95.5q0 -48 32.5 -89.5t84 -73.5t114 -62.5t125 -64.5 t114 -72t84 -92t32.5 -117q0 -105 -67 -178t-193 -109q164 -109 164 -239q0 -76 -30.5 -136.5t-82 -98t-116 -57.5t-136.5 -20q-158 0 -255 52.5t-97 146.5q0 125 207 125q0 -42 2.5 -74t12.5 -69t27.5 -61t49 -40t74.5 -16q68 0 111.5 31.5t43.5 95.5q0 48 -32.5 89.5 t-84 73.5t-114 62.5t-124.5 64.5t-113.5 72t-84 92t-32.5 117zM311 657q0 -25 15 -49.5t36 -44t58.5 -43t68 -39.5t80 -42t78.5 -42q72 21 104.5 57.5t32.5 90.5q0 25 -15 49.5t-36 43.5t-58 42.5t-67.5 39.5t-79.5 41t-79 42q-138 -38 -138 -146z" />
<glyph unicode="&#xa8;" horiz-adv-x="819" d="M45 1323q0 58 42 100.5t101 42.5t103.5 -43t44.5 -100q0 -62 -44 -103.5t-104 -41.5t-101.5 41t-41.5 104zM481 1323q0 58 42.5 100.5t101.5 42.5t103 -43t44 -100q0 -62 -43.5 -103.5t-103.5 -41.5q-61 0 -102.5 41.5t-41.5 103.5z" />
<glyph unicode="&#xa9;" horiz-adv-x="1638" d="M102 686q0 197 89.5 359.5t254.5 259t373 96.5t373 -96.5t254.5 -259t89.5 -359.5t-89.5 -359.5t-254.5 -259t-373 -96.5t-373 96.5t-254.5 259t-89.5 359.5zM193 686q0 -173 76.5 -316.5t220.5 -229t329 -85.5q137 0 255.5 50t199 135.5t126.5 201t46 244.5t-45 244.5 t-125.5 201t-199 135.5t-257.5 50q-137 0 -255.5 -50t-199 -135.5t-126 -201t-45.5 -244.5zM424 674q0 107 34.5 189.5t94 130.5t130.5 72t151 24q127 0 280 -50l6 -211h-67q-29 95 -80 143t-135 48q-55 0 -98 -31t-67.5 -81.5t-37 -107.5t-12.5 -116q0 -65 12.5 -121.5 t39 -103.5t72.5 -74t107 -27q81 0 130.5 49t64.5 140h73l-14 -209q-134 -53 -260 -53q-118 0 -212.5 42.5t-153 132t-58.5 214.5z" />
<glyph unicode="&#xaa;" horiz-adv-x="821" d="M82 825q0 187 401 242v137q0 76 -19 104.5t-67 28.5q-122 0 -125 -180q-172 0 -172 72q0 42 31.5 76.5t82 54.5t107 30.5t111.5 10.5q129 0 182.5 -53t53.5 -146v-385q0 -40 13 -51.5t46 -11.5h33v-58q-86 -22 -182 -22q-95 0 -95 88v20q-35 -43 -103 -75.5t-140 -32.5 q-68 0 -113 38.5t-45 112.5zM272 852q0 -32 21 -53t57 -21q38 0 75 26.5t58 63.5v136q-211 -55 -211 -152z" />
<glyph unicode="&#xab;" horiz-adv-x="1134" d="M92 504l457 422l53 -49l-242 -373l242 -377l-53 -45zM502 504l456 422l54 -49l-242 -373l242 -377l-54 -45z" />
<glyph unicode="&#xac;" d="M92 739v131h922v-495h-135v364h-787z" />
<glyph unicode="&#xad;" horiz-adv-x="716" d="M72 440v150h573v-150h-573z" />
<glyph unicode="&#xae;" horiz-adv-x="1638" d="M102 686q0 197 89.5 359.5t254.5 259t373 96.5t373 -96.5t254.5 -259t89.5 -359.5t-89.5 -359.5t-254.5 -259t-373 -96.5t-373 96.5t-254.5 259t-89.5 359.5zM193 686q0 -173 76.5 -316.5t220.5 -229t329 -85.5q137 0 255.5 50t199 135.5t126.5 201t46 244.5t-45 244.5 t-125.5 201t-199 135.5t-257.5 50q-137 0 -255.5 -50t-199 -135.5t-126 -201t-45.5 -244.5zM432 305v53l121 31v608l-121 33v51h402q303 0 303 -192q0 -165 -244 -209q66 -4 100 -29t64 -76l100 -169q34 -48 86 -48v-53q-74 -16 -162 -16q-85 0 -127 76l-125 231 q-17 31 -32 43t-37 12h-19v-262l113 -31v-53h-422zM741 715h45q78 0 116 44t38 113q0 65 -31 103.5t-94 38.5q-33 0 -74 -6v-293z" />
<glyph unicode="&#xaf;" horiz-adv-x="819" d="M133 1208v154h553v-154h-553z" />
<glyph unicode="&#xb0;" d="M229 1026q0 147 96 236.5t238 89.5t238 -90.5t96 -237.5t-96 -236.5t-238 -89.5t-238 90.5t-96 237.5zM369 1026q0 -93 57 -151t137 -58q81 0 138 56.5t57 150.5q0 93 -57 151t-138 58t-137.5 -56.5t-56.5 -150.5z" />
<glyph unicode="&#xb1;" d="M102 0v131h922v-131h-922zM102 618v132h392v358h135v-358h395v-132h-395v-364h-135v364h-392z" />
<glyph unicode="&#xb2;" horiz-adv-x="819" d="M29 690v62q113 78 189.5 139t140.5 128.5t95 134.5t31 136q0 83 -35.5 124.5t-99.5 41.5q-125 0 -133 -196q-160 0 -160 81q0 88 92.5 138.5t225.5 50.5q145 0 229 -62t84 -172q0 -111 -93 -220t-288 -208h344l41 95h49l-14 -273h-698z" />
<glyph unicode="&#xb3;" horiz-adv-x="819" d="M49 831q0 61 44.5 93t101.5 34q0 -86 51.5 -148t138.5 -62q77 0 120.5 31.5t43.5 94.5q0 178 -334 189v63q143 18 210 71t67 124q0 49 -29 77.5t-88 28.5q-127 0 -209 -98l-51 53q50 70 130.5 109t180.5 39q72 0 129.5 -18t96 -59.5t38.5 -102.5q0 -79 -57 -129t-150 -64 q77 -17 128.5 -43t76 -59t34 -64t9.5 -71q0 -108 -99 -177t-253 -69q-139 0 -234.5 46.5t-95.5 110.5z" />
<glyph unicode="&#xb4;" horiz-adv-x="819" d="M225 1180q121 193 166 340q203 0 203 -72q0 -41 -107.5 -141.5t-199.5 -163.5z" />
<glyph unicode="&#xb5;" horiz-adv-x="1189" d="M20 856v55l383 88v-692q0 -98 38 -146t122 -48q50 0 102 24t91 66v633l-129 20v55l383 88v-874l129 -21v-53l-383 -80v144q-157 -144 -332 -144q-117 0 -184 58v-152q0 -33 7.5 -59t17.5 -44t31 -32.5t38 -23t48 -16t51.5 -11t58.5 -8.5q0 -84 -41 -124t-101 -40 q-103 0 -151.5 108.5t-48.5 337.5v871z" />
<glyph unicode="&#xb6;" horiz-adv-x="1433" d="M113 930q0 94 31.5 169.5t85 125.5t128.5 83.5t159 48.5t179 15h625v-65l-195 -52v-1427h-133v1446h-166v-1446h-135v674q-96 2 -177.5 15.5t-157.5 44.5t-128.5 78t-84 121t-31.5 169zM412 940q0 -43 7.5 -85.5t27 -88.5t50 -81.5t81 -61t114.5 -31.5v682 q-76 0 -132.5 -29t-87.5 -78t-45.5 -106t-14.5 -121z" />
<glyph unicode="&#xb7;" horiz-adv-x="512" d="M102 645q0 61 45 105.5t109 44.5q65 0 109.5 -43.5t44.5 -108.5q0 -61 -45 -105t-109 -44q-65 0 -109.5 43t-44.5 108z" />
<glyph unicode="&#xb8;" horiz-adv-x="819" d="M201 -440l39 80q56 -33 116 -33q33 0 57.5 18t24.5 49q0 74 -164 74l-22 53l156 199h118l-114 -121q99 -7 151.5 -49t52.5 -113q0 -84 -66.5 -141t-174.5 -57q-97 0 -174 41z" />
<glyph unicode="&#xb9;" horiz-adv-x="819" d="M129 1364v66l375 92h47v-738l197 -28v-66h-603v66l201 28v592z" />
<glyph unicode="&#xba;" horiz-adv-x="929" d="M92 1038q0 173 100 268t273 95t273 -95t100 -270q0 -172 -100 -267t-273 -95t-273 95t-100 269zM291 1038q0 -148 45.5 -222.5t128.5 -74.5t128.5 74t45.5 221q0 148 -45.5 222.5t-128.5 74.5t-128.5 -74t-45.5 -221z" />
<glyph unicode="&#xbb;" horiz-adv-x="1134" d="M123 131l242 373l-242 377l53 45l457 -422l-457 -422zM532 131l242 373l-242 377l54 45l456 -422l-456 -422z" />
<glyph unicode="&#xbc;" horiz-adv-x="2048" d="M102 1194v66l375 92h47v-738l197 -28v-66h-602v66l200 28v592zM580 43l950 1309l102 -72l-950 -1309zM1221 236v49l528 546h66v-499h131v-96h-131v-148l122 -22v-66h-471v66l146 22v148h-391zM1370 332h242v243z" />
<glyph unicode="&#xbd;" horiz-adv-x="2048" d="M102 1194v66l375 92h47v-738l197 -28v-66h-602v66l200 28v592zM481 43l951 1309l102 -72l-950 -1309zM1233 0v61q113 78 189.5 139t141 129t95.5 135t31 136q0 83 -35.5 124.5t-100.5 41.5q-125 0 -133 -197q-25 0 -48.5 3t-50.5 11t-43.5 25.5t-16.5 42.5q0 88 92 138.5 t225 50.5q145 0 229 -62t84 -172q0 -111 -93 -220t-288 -208h344l41 94h50l-15 -272h-698z" />
<glyph unicode="&#xbe;" horiz-adv-x="2048" d="M102 653q0 61 44.5 93t101.5 34q0 -86 51.5 -148.5t138.5 -62.5q77 0 120.5 32t43.5 95q0 178 -334 189v63q143 18 210 71t67 124q0 49 -29 77.5t-88 28.5q-127 0 -209 -98l-51 53q50 70 130.5 109t180.5 39q112 0 188 -45.5t76 -135.5q0 -79 -56.5 -128.5t-149.5 -63.5 q77 -17 128 -43t76 -59t34 -64.5t9 -71.5q0 -108 -99 -176.5t-253 -68.5q-139 0 -234.5 46.5t-95.5 110.5zM565 43l951 1309l102 -72l-950 -1309zM1221 236v49l528 546h66v-499h131v-96h-131v-148l122 -22v-66h-471v66l146 22v148h-391zM1370 332h242v243z" />
<glyph unicode="&#xbf;" horiz-adv-x="813" d="M72 -139q0 63 21 120.5t55 100.5t75 82t82.5 71.5t75.5 62t55 61t21 61.5t-24.5 48.5t-59.5 18.5q-53 0 -115 -32l-20 61q31 21 89.5 38t110.5 17q108 0 173 -52t65 -144q0 -49 -22 -95.5t-57.5 -85.5t-78 -77t-85 -75.5t-78 -75.5t-57.5 -82.5t-22 -90.5 q0 -75 37.5 -118.5t102.5 -43.5q39 0 67.5 16t45 40t26 62t12.5 73t4 82h60q68 0 104.5 -29t36.5 -76q0 -93 -99 -161t-249 -68q-155 0 -253.5 76.5t-98.5 214.5zM293 850q0 61 44.5 105t108.5 44t108 -43t44 -108q0 -61 -45 -105.5t-109 -44.5q-65 0 -108 43t-43 109z" />
<glyph unicode="&#xc0;" horiz-adv-x="1544" d="M51 0v59l164 47l533 1295h67l506 -1297l162 -45v-59h-623v59l160 50l-141 370h-406l-147 -375l159 -45v-59h-434zM508 1683q0 34 53.5 69.5t118.5 49.5q38 -53 114 -131t150 -139l-47 -55q-118 36 -253.5 99.5t-135.5 106.5zM510 571h334l-162 433z" />
<glyph unicode="&#xc1;" horiz-adv-x="1544" d="M51 0v59l164 47l533 1295h67l506 -1297l162 -45v-59h-623v59l160 50l-141 370h-406l-147 -375l159 -45v-59h-434zM510 571h334l-162 433zM616 1532q74 62 151 139.5t114 130.5q65 -14 118.5 -49.5t53.5 -69.5q0 -43 -135.5 -106.5t-253.5 -99.5z" />
<glyph unicode="&#xc2;" horiz-adv-x="1544" d="M51 0v59l164 47l533 1295h67l506 -1297l162 -45v-59h-623v59l160 50l-141 370h-406l-147 -375l159 -45v-59h-434zM510 571h334l-162 433zM522 1538q146 173 207 272h105q64 -104 206 -272l-65 -51l-195 135l-192 -135z" />
<glyph unicode="&#xc3;" horiz-adv-x="1544" d="M51 0v59l164 47l533 1295h67l506 -1297l162 -45v-59h-623v59l160 50l-141 370h-406l-147 -375l159 -45v-59h-434zM487 1530q24 133 65.5 195.5t113.5 62.5q40 0 138 -43t130 -43t50.5 22t41.5 80l76 -18q-24 -133 -65 -195.5t-113 -62.5q-40 0 -139 43t-130 43 q-32 0 -50 -22.5t-42 -80.5zM510 571h334l-162 433z" />
<glyph unicode="&#xc4;" horiz-adv-x="1544" d="M51 0v59l164 47l533 1295h67l506 -1297l162 -45v-59h-623v59l160 50l-141 370h-406l-147 -375l159 -45v-59h-434zM416 1645q0 58 42 100.5t101 42.5t103.5 -43t44.5 -100q0 -62 -44 -104t-104 -42t-101.5 41.5t-41.5 104.5zM510 571h334l-162 433zM852 1645 q0 58 42 100.5t101 42.5t103.5 -43t44.5 -100q0 -62 -44 -104t-104 -42t-101.5 41.5t-41.5 104.5z" />
<glyph unicode="&#xc5;" horiz-adv-x="1544" d="M51 0v59l164 47l533 1295h67l506 -1297l162 -45v-59h-623v59l160 50l-141 370h-406l-147 -375l159 -45v-59h-434zM510 571h334l-162 433zM584 1657q0 84 56.5 135t141.5 51q84 0 141.5 -51t57.5 -135t-57 -134t-142 -50q-86 0 -142 50t-56 134zM705 1657 q0 -56 22.5 -86.5t56.5 -30.5t57 30.5t23 86.5t-23 85.5t-57 29.5t-56.5 -29.5t-22.5 -85.5z" />
<glyph unicode="&#xc6;" horiz-adv-x="1990" d="M31 0v59l164 47l702 1164l-154 43v59h1102v-366h-57l-115 280h-409v-524h235l72 203h53v-492h-53l-72 203h-235v-590h426l131 326h57l-18 -412h-1039v59l162 45v375h-446l-222 -375l160 -45v-59h-444zM592 571h391v660z" />
<glyph unicode="&#xc7;" horiz-adv-x="1437" d="M113 676q0 151 37.5 273t102.5 205.5t156.5 139.5t197.5 81.5t227 25.5q114 0 251.5 -28.5t210.5 -59.5l13 -328h-76q-49 170 -149 256t-244 86q-209 0 -325 -172.5t-116 -454.5q0 -304 115 -477.5t348 -173.5q143 0 241.5 92t127.5 254h84l-27 -327q-213 -92 -422 -97 l-86 -92q99 -7 152 -49t53 -113q0 -84 -67 -141t-175 -57q-97 0 -174 41l39 80q56 -33 117 -33q33 0 57.5 18t24.5 49q0 74 -164 74l-22 53l135 174q-146 10 -262.5 56.5t-202.5 130.5t-132 214.5t-46 299.5z" />
<glyph unicode="&#xc8;" horiz-adv-x="1251" d="M82 0v59l162 45v1164l-162 45v59h1024v-366h-57l-115 280h-410v-524h236l71 203h54v-492h-54l-71 203h-236v-590h426l131 326h58l-19 -412h-1038zM358 1683q0 34 53.5 69.5t118.5 49.5q37 -53 114 -130.5t151 -139.5l-47 -55q-119 36 -254.5 99.5t-135.5 106.5z" />
<glyph unicode="&#xc9;" horiz-adv-x="1251" d="M82 0v59l162 45v1164l-162 45v59h1024v-366h-57l-115 280h-410v-524h236l71 203h54v-492h-54l-71 203h-236v-590h426l131 326h58l-19 -412h-1038zM428 1532q74 61 150 139t114 131q65 -14 118.5 -49.5t53.5 -69.5q0 -43 -135.5 -106.5t-253.5 -99.5z" />
<glyph unicode="&#xca;" horiz-adv-x="1251" d="M82 0v59l162 45v1164l-162 45v59h1024v-366h-57l-115 280h-410v-524h236l71 203h54v-492h-54l-71 203h-236v-590h426l131 326h58l-19 -412h-1038zM371 1538q146 173 207 272h104q61 -99 207 -272l-66 -51l-194 135l-193 -135z" />
<glyph unicode="&#xcb;" horiz-adv-x="1251" d="M82 0v59l162 45v1164l-162 45v59h1024v-366h-57l-115 280h-410v-524h236l71 203h54v-492h-54l-71 203h-236v-590h426l131 326h58l-19 -412h-1038zM262 1645q0 58 42.5 100.5t101.5 42.5t103 -43t44 -100q0 -62 -43.5 -104t-103.5 -42t-102 41.5t-42 104.5zM698 1645 q0 58 42.5 100.5t101.5 42.5t103 -43t44 -100q0 -62 -43.5 -104t-103.5 -42t-102 41.5t-42 104.5z" />
<glyph unicode="&#xcc;" horiz-adv-x="768" d="M82 0v59l162 45v1164l-162 45v59h604v-59l-162 -45v-1164l162 -45v-59h-604zM133 1683q0 34 53.5 69.5t118.5 49.5q38 -53 114 -131t150 -139l-47 -55q-118 36 -253.5 99.5t-135.5 106.5z" />
<glyph unicode="&#xcd;" horiz-adv-x="768" d="M82 0v59l162 45v1164l-162 45v59h604v-59l-162 -45v-1164l162 -45v-59h-604zM207 1532q74 61 150 139t114 131q65 -14 118.5 -49.5t53.5 -69.5q0 -43 -135.5 -106.5t-253.5 -99.5z" />
<glyph unicode="&#xce;" horiz-adv-x="768" d="M82 0v59l162 45v1164l-162 45v59h604v-59l-162 -45v-1164l162 -45v-59h-604zM125 1538q146 173 207 272h104q61 -99 207 -272l-65 -51l-195 135l-193 -135z" />
<glyph unicode="&#xcf;" horiz-adv-x="768" d="M20 1645q0 58 42.5 100.5t101.5 42.5t103 -43t44 -100q0 -62 -43.5 -104t-103.5 -42t-102 41.5t-42 104.5zM82 0v59l162 45v1164l-162 45v59h604v-59l-162 -45v-1164l162 -45v-59h-604zM457 1645q0 58 42 100.5t101 42.5t103.5 -43t44.5 -100q0 -62 -44 -104t-104 -42 t-101.5 41.5t-41.5 104.5z" />
<glyph unicode="&#xd0;" horiz-adv-x="1609" d="M82 651v119h174v498l-162 45v59h668q360 0 547.5 -165.5t187.5 -485.5q0 -351 -198.5 -536t-561.5 -185h-643v59l162 45v547h-174zM537 86h172q242 0 371.5 158t129.5 458q0 96 -13.5 177t-48 158.5t-89.5 131.5t-143 86.5t-203 32.5h-176v-518h247v-119h-247v-565z" />
<glyph unicode="&#xd1;" horiz-adv-x="1538" d="M72 0v59l161 45v1164l-161 45v59h452l672 -903v799l-162 45v59h432v-59l-159 -45v-1286h-84l-879 1177v-1055l162 -45v-59h-434zM477 1530q24 133 65 195.5t113 62.5q41 0 139 -43t130 -43t50.5 22t41.5 80l76 -18q-24 -133 -65.5 -195.5t-113.5 -62.5q-41 0 -139 43 t-129 43q-32 0 -50 -22.5t-42 -80.5z" />
<glyph unicode="&#xd2;" horiz-adv-x="1605" d="M113 684q0 209 83 370t245 254t380 93q135 0 246 -35.5t189.5 -99.5t132 -153.5t79 -197t25.5 -231.5q0 -150 -47 -280t-133.5 -226t-217.5 -151.5t-290 -55.5q-338 0 -515 189t-177 524zM399 690q0 -308 102.5 -475.5t319.5 -167.5q85 0 152.5 38.5t110 101t71 147 t40 171t11.5 179.5q0 318 -107 479.5t-306 161.5q-193 0 -293.5 -172.5t-100.5 -462.5zM543 1683q0 34 53.5 69.5t118.5 49.5q38 -53 114 -131t150 -139l-47 -55q-118 36 -253.5 99.5t-135.5 106.5z" />
<glyph unicode="&#xd3;" horiz-adv-x="1605" d="M113 684q0 209 83 370t245 254t380 93q135 0 246 -35.5t189.5 -99.5t132 -153.5t79 -197t25.5 -231.5q0 -150 -47 -280t-133.5 -226t-217.5 -151.5t-290 -55.5q-338 0 -515 189t-177 524zM399 690q0 -308 102.5 -475.5t319.5 -167.5q85 0 152.5 38.5t110 101t71 147 t40 171t11.5 179.5q0 318 -107 479.5t-306 161.5q-193 0 -293.5 -172.5t-100.5 -462.5zM625 1532q74 61 150 139t114 131q65 -14 118.5 -49.5t53.5 -69.5q0 -43 -135.5 -106.5t-253.5 -99.5z" />
<glyph unicode="&#xd4;" horiz-adv-x="1605" d="M113 684q0 209 83 370t245 254t380 93q135 0 246 -35.5t189.5 -99.5t132 -153.5t79 -197t25.5 -231.5q0 -150 -47 -280t-133.5 -226t-217.5 -151.5t-290 -55.5q-338 0 -515 189t-177 524zM399 690q0 -308 102.5 -475.5t319.5 -167.5q85 0 152.5 38.5t110 101t71 147 t40 171t11.5 179.5q0 318 -107 479.5t-306 161.5q-193 0 -293.5 -172.5t-100.5 -462.5zM543 1538q146 173 207 272h104q61 -99 207 -272l-66 -51l-194 135l-193 -135z" />
<glyph unicode="&#xd5;" horiz-adv-x="1605" d="M113 684q0 209 83 370t245 254t380 93q135 0 246 -35.5t189.5 -99.5t132 -153.5t79 -197t25.5 -231.5q0 -150 -47 -280t-133.5 -226t-217.5 -151.5t-290 -55.5q-338 0 -515 189t-177 524zM399 690q0 -308 102.5 -475.5t319.5 -167.5q85 0 152.5 38.5t110 101t71 147 t40 171t11.5 179.5q0 318 -107 479.5t-306 161.5q-193 0 -293.5 -172.5t-100.5 -462.5zM510 1530q24 133 65 195.5t113 62.5q40 0 138 -43t130 -43t51 22t42 80l75 -18q-24 -133 -65 -195.5t-113 -62.5q-40 0 -138 43t-130 43t-50 -22.5t-42 -80.5z" />
<glyph unicode="&#xd6;" horiz-adv-x="1605" d="M113 684q0 209 83 370t245 254t380 93q135 0 246 -35.5t189.5 -99.5t132 -153.5t79 -197t25.5 -231.5q0 -150 -47 -280t-133.5 -226t-217.5 -151.5t-290 -55.5q-338 0 -515 189t-177 524zM399 690q0 -308 102.5 -475.5t319.5 -167.5q85 0 152.5 38.5t110 101t71 147 t40 171t11.5 179.5q0 318 -107 479.5t-306 161.5q-193 0 -293.5 -172.5t-100.5 -462.5zM438 1645q0 58 42.5 100.5t101.5 42.5t103 -43t44 -100q0 -62 -43.5 -104t-103.5 -42t-102 41.5t-42 104.5zM874 1645q0 58 42.5 100.5t101.5 42.5t103 -43t44 -100q0 -62 -43.5 -104 t-103.5 -42t-102 41.5t-42 104.5z" />
<glyph unicode="&#xd7;" d="M180 326l291 290l-291 293l94 90l289 -290l289 290l94 -90l-291 -293l291 -290l-94 -90l-289 288l-289 -288z" />
<glyph unicode="&#xd8;" horiz-adv-x="1605" d="M113 684q0 209 83 370t245 254t380 93q205 0 357 -84l92 125h137l-137 -189q112 -95 167.5 -241.5t55.5 -327.5q0 -150 -47 -280t-133.5 -226t-217.5 -151.5t-290 -55.5q-233 0 -395 95l-99 -136h-139l145 201q-204 186 -204 553zM399 690q0 -226 54 -375l630 871 q-106 139 -290 139q-193 0 -293.5 -172.5t-100.5 -462.5zM508 203q109 -156 313 -156q85 0 152.5 38.5t110 101t71 147t40 171t11.5 179.5q0 239 -63 393z" />
<glyph unicode="&#xd9;" horiz-adv-x="1529" d="M61 1313v59h605v-59l-162 -45v-801q0 -186 89.5 -285.5t248.5 -99.5q162 0 264 108.5t102 319.5v758l-161 45v59h432v-59l-162 -45v-768q0 -131 -40 -233t-111 -166t-164.5 -97t-204.5 -33q-84 0 -159 11.5t-153 44.5t-134 84.5t-92 138t-36 199.5v819zM547 1683 q0 34 53.5 69.5t118.5 49.5q38 -53 114 -131t150 -139l-47 -55q-118 36 -253.5 99.5t-135.5 106.5z" />
<glyph unicode="&#xda;" horiz-adv-x="1529" d="M61 1313v59h605v-59l-162 -45v-801q0 -186 89.5 -285.5t248.5 -99.5q162 0 264 108.5t102 319.5v758l-161 45v59h432v-59l-162 -45v-768q0 -131 -40 -233t-111 -166t-164.5 -97t-204.5 -33q-84 0 -159 11.5t-153 44.5t-134 84.5t-92 138t-36 199.5v819zM705 1532 q74 61 150 139t114 131q65 -14 118.5 -49.5t53.5 -69.5q0 -43 -135.5 -106.5t-253.5 -99.5z" />
<glyph unicode="&#xdb;" horiz-adv-x="1529" d="M61 1313v59h605v-59l-162 -45v-801q0 -186 89.5 -285.5t248.5 -99.5q162 0 264 108.5t102 319.5v758l-161 45v59h432v-59l-162 -45v-768q0 -131 -40 -233t-111 -166t-164.5 -97t-204.5 -33q-84 0 -159 11.5t-153 44.5t-134 84.5t-92 138t-36 199.5v819zM584 1538 q146 173 207 272h104q61 -99 207 -272l-66 -51l-194 135l-193 -135z" />
<glyph unicode="&#xdc;" horiz-adv-x="1529" d="M61 1313v59h605v-59l-162 -45v-801q0 -186 89.5 -285.5t248.5 -99.5q162 0 264 108.5t102 319.5v758l-161 45v59h432v-59l-162 -45v-768q0 -131 -40 -233t-111 -166t-164.5 -97t-204.5 -33q-84 0 -159 11.5t-153 44.5t-134 84.5t-92 138t-36 199.5v819zM469 1645 q0 58 42 100.5t101 42.5t103.5 -43t44.5 -100q0 -62 -44 -104t-104 -42t-101.5 41.5t-41.5 104.5zM905 1645q0 58 42.5 100.5t101.5 42.5t103 -43t44 -100q0 -62 -43.5 -104t-103.5 -42q-61 0 -102.5 41.5t-41.5 104.5z" />
<glyph unicode="&#xdd;" horiz-adv-x="1462" d="M41 1313v59h616v-59l-155 -47l329 -549l308 551l-152 45v59h434v-59l-164 -47l-378 -674v-488l170 -45v-59h-621v59l172 45v486l-412 678zM672 1532q74 61 150 139t114 131q65 -14 118.5 -49.5t53.5 -69.5q0 -43 -135.5 -106.5t-253.5 -99.5z" />
<glyph unicode="&#xde;" horiz-adv-x="1263" d="M82 0v59l162 45v1164l-162 45v59h604v-59l-162 -45v-187h119q99 0 175.5 -9t147 -32.5t116.5 -62.5t73 -101.5t27 -146.5q0 -103 -44 -183.5t-119.5 -129t-170.5 -73t-203 -24.5h-65v64q163 23 240 109.5t77 236.5q0 136 -63.5 206.5t-188.5 70.5q-48 0 -121 -17v-887 l162 -43v-59h-604z" />
<glyph unicode="&#xdf;" horiz-adv-x="1296" d="M72 0v49l137 41v789h-131v92h131v57q0 197 132 328t351 131q120 0 218.5 -29.5t162.5 -94.5t64 -155q0 -48 -27.5 -90.5t-68.5 -72t-89.5 -61t-89.5 -57t-68.5 -59.5t-27.5 -69q0 -30 26.5 -59t68.5 -54.5t93.5 -53.5t102.5 -61.5t93 -71.5t68.5 -91.5t26.5 -114.5 q0 -151 -108 -236.5t-265 -85.5q-139 0 -232 50.5t-93 128.5q0 140 182 155q8 -130 50.5 -200t117.5 -70q67 0 110.5 42.5t43.5 108.5q0 42 -24 77t-62.5 61t-85 51t-93.5 52.5t-85.5 60t-62.5 80t-24 104.5q0 55 26.5 107.5t64 95.5l75 86t64 95.5t26.5 106.5 q0 110 -53.5 178t-144.5 68q-110 0 -160.5 -90.5t-50.5 -241.5v-1077h-389z" />
<glyph unicode="&#xe0;" horiz-adv-x="1064" d="M72 160q0 137 147 224t414 122v227q0 108 -27 154.5t-92 46.5q-82 0 -126.5 -70.5t-47.5 -199.5h-76q-54 0 -89.5 8.5t-51 23.5t-20.5 28.5t-5 31.5q0 59 44.5 107.5t115.5 77t150.5 43.5t156.5 15q92 0 157.5 -20.5t102 -60t52.5 -88t16 -111.5v-576q0 -55 19 -72.5 t65 -17.5h43l-2 -49q-125 -33 -252 -33q-133 0 -133 123v29q-131 -152 -326 -152q-48 0 -87.5 9t-74 30t-54 59t-19.5 91zM340 211q0 -54 29 -84.5t77 -30.5q47 0 99 30.5t88 82.5v235q-50 -11 -94 -27t-92.5 -43t-77.5 -69t-29 -94zM348 1448q0 72 203 72q45 -147 166 -340 l-62 -37q-92 63 -199.5 163.5t-107.5 141.5z" />
<glyph unicode="&#xe1;" horiz-adv-x="1064" d="M72 160q0 137 147 224t414 122v227q0 108 -27 154.5t-92 46.5q-82 0 -126.5 -70.5t-47.5 -199.5h-76q-54 0 -89.5 8.5t-51 23.5t-20.5 28.5t-5 31.5q0 59 44.5 107.5t115.5 77t150.5 43.5t156.5 15q92 0 157.5 -20.5t102 -60t52.5 -88t16 -111.5v-576q0 -55 19 -72.5 t65 -17.5h43l-2 -49q-125 -33 -252 -33q-133 0 -133 123v29q-131 -152 -326 -152q-48 0 -87.5 9t-74 30t-54 59t-19.5 91zM340 211q0 -54 29 -84.5t77 -30.5q47 0 99 30.5t88 82.5v235q-50 -11 -94 -27t-92.5 -43t-77.5 -69t-29 -94zM373 1180q121 193 166 340 q202 0 202 -72q0 -41 -107.5 -141.5t-199.5 -163.5z" />
<glyph unicode="&#xe2;" horiz-adv-x="1064" d="M72 160q0 137 147 224t414 122v227q0 108 -27 154.5t-92 46.5q-82 0 -126.5 -70.5t-47.5 -199.5h-76q-54 0 -89.5 8.5t-51 23.5t-20.5 28.5t-5 31.5q0 59 44.5 107.5t115.5 77t150.5 43.5t156.5 15q92 0 157.5 -20.5t102 -60t52.5 -88t16 -111.5v-576q0 -55 19 -72.5 t65 -17.5h43l-2 -49q-125 -33 -252 -33q-133 0 -133 123v29q-131 -152 -326 -152q-48 0 -87.5 9t-74 30t-54 59t-19.5 91zM274 1184q43 58 106.5 161t100.5 171h103q37 -68 100.5 -171t106.5 -161l-66 -41l-193 164l-192 -164zM340 211q0 -54 29 -84.5t77 -30.5 q47 0 99 30.5t88 82.5v235q-50 -11 -94 -27t-92.5 -43t-77.5 -69t-29 -94z" />
<glyph unicode="&#xe3;" horiz-adv-x="1064" d="M72 160q0 137 147 224t414 122v227q0 108 -27 154.5t-92 46.5q-82 0 -126.5 -70.5t-47.5 -199.5h-76q-54 0 -89.5 8.5t-51 23.5t-20.5 28.5t-5 31.5q0 59 44.5 107.5t115.5 77t150.5 43.5t156.5 15q92 0 157.5 -20.5t102 -60t52.5 -88t16 -111.5v-576q0 -55 19 -72.5 t65 -17.5h43l-2 -49q-125 -33 -252 -33q-133 0 -133 123v29q-131 -152 -326 -152q-48 0 -87.5 9t-74 30t-54 59t-19.5 91zM225 1202q24 133 65 195.5t113 62.5q41 0 139 -43t130 -43t50 22.5t42 80.5l76 -19q-24 -133 -65 -195.5t-113 -62.5q-40 0 -139 43t-130 43 q-32 0 -50.5 -22t-41.5 -80zM340 211q0 -54 29 -84.5t77 -30.5q47 0 99 30.5t88 82.5v235q-50 -11 -94 -27t-92.5 -43t-77.5 -69t-29 -94z" />
<glyph unicode="&#xe4;" horiz-adv-x="1064" d="M72 160q0 137 147 224t414 122v227q0 108 -27 154.5t-92 46.5q-82 0 -126.5 -70.5t-47.5 -199.5h-76q-54 0 -89.5 8.5t-51 23.5t-20.5 28.5t-5 31.5q0 59 44.5 107.5t115.5 77t150.5 43.5t156.5 15q92 0 157.5 -20.5t102 -60t52.5 -88t16 -111.5v-576q0 -55 19 -72.5 t65 -17.5h43l-2 -49q-125 -33 -252 -33q-133 0 -133 123v29q-131 -152 -326 -152q-48 0 -87.5 9t-74 30t-54 59t-19.5 91zM168 1323q0 58 42 100.5t101 42.5t103.5 -43t44.5 -100q0 -62 -44 -103.5t-104 -41.5q-61 0 -102 41t-41 104zM340 211q0 -54 29 -84.5t77 -30.5 q47 0 99 30.5t88 82.5v235q-50 -11 -94 -27t-92.5 -43t-77.5 -69t-29 -94zM604 1323q0 58 42.5 100.5t101.5 42.5t103 -43t44 -100q0 -62 -43.5 -103.5t-103.5 -41.5q-61 0 -102.5 41.5t-41.5 103.5z" />
<glyph unicode="&#xe5;" horiz-adv-x="1064" d="M72 160q0 137 147 224t414 122v227q0 108 -27 154.5t-92 46.5q-82 0 -126.5 -70.5t-47.5 -199.5h-76q-54 0 -89.5 8.5t-51 23.5t-20.5 28.5t-5 31.5q0 59 44.5 107.5t115.5 77t150.5 43.5t156.5 15q92 0 157.5 -20.5t102 -60t52.5 -88t16 -111.5v-576q0 -55 19 -72.5 t65 -17.5h43l-2 -49q-125 -33 -252 -33q-133 0 -133 123v29q-131 -152 -326 -152q-48 0 -87.5 9t-74 30t-54 59t-19.5 91zM334 1329q0 84 56.5 135.5t141.5 51.5q84 0 141.5 -51.5t57.5 -135.5t-57 -134t-142 -50q-86 0 -142 50t-56 134zM340 211q0 -54 29 -84.5t77 -30.5 q47 0 99 30.5t88 82.5v235q-50 -11 -94 -27t-92.5 -43t-77.5 -69t-29 -94zM455 1329q0 -56 23 -86.5t57 -30.5t56.5 30.5t22.5 86.5t-22.5 85.5t-56.5 29.5t-57 -29.5t-23 -85.5z" />
<glyph unicode="&#xe6;" horiz-adv-x="1617" d="M72 160q0 272 561 346v227q0 108 -27 154.5t-92 46.5q-82 0 -126.5 -70.5t-47.5 -199.5h-76q-54 0 -89.5 8.5t-51 23.5t-20.5 28.5t-5 31.5q0 59 44.5 107.5t114.5 77t149.5 43.5t156.5 15q196 0 275 -96q132 96 295 96q179 0 286 -96t107 -266q0 -42 -4 -66h-641v-34 q0 -222 81 -332.5t234 -110.5q149 0 291 107l35 -54q-192 -176 -424 -176q-293 0 -404 193q-81 -106 -181.5 -148.5t-219.5 -44.5q-39 0 -74.5 8.5t-70.5 28t-55.5 58.5t-20.5 94zM340 211q0 -53 30.5 -84t75.5 -31q49 0 107 33.5t109 106.5q-31 91 -31 204 q-127 -24 -209 -82.5t-82 -146.5zM885 633h372q1 7 3 22.5t3 29.5t1 28q0 108 -31 164.5t-111 56.5q-90 0 -154.5 -75t-82.5 -226z" />
<glyph unicode="&#xe7;" horiz-adv-x="1034" d="M92 418q0 167 63.5 298.5t185 207t282.5 75.5q130 0 228.5 -57.5t98.5 -146.5q0 -27 -9.5 -47.5t-33 -38t-68.5 -26.5t-110 -9q-1 59 -6.5 101.5t-20 81.5t-43.5 59t-73 20q-110 0 -177 -118t-67 -320q0 -186 80 -295t227 -109q129 0 279 115l35 -53q-166 -159 -371 -181 l-90 -96q99 -7 152 -49t53 -113q0 -84 -67 -141t-175 -57q-97 0 -174 41l39 80q56 -33 116 -33q33 0 57.5 18t24.5 49q0 74 -163 74l-23 53l135 172q-84 7 -152 35.5t-121.5 81t-82.5 136t-29 192.5z" />
<glyph unicode="&#xe8;" horiz-adv-x="1079" d="M92 438q0 128 40.5 235.5t109.5 178t159.5 109t192.5 38.5q179 0 286 -96t107 -266q0 -54 -4 -78h-641v-22q0 -222 81 -332.5t234 -110.5q149 0 291 107l35 -54q-192 -176 -424 -176q-224 0 -345.5 117.5t-121.5 349.5zM346 633h373q6 69 6 80q0 108 -30.5 164.5 t-110.5 56.5q-90 0 -155 -75t-83 -226zM362 1448q0 72 203 72q45 -147 166 -340l-61 -37q-93 63 -200.5 163.5t-107.5 141.5z" />
<glyph unicode="&#xe9;" horiz-adv-x="1079" d="M92 438q0 128 40.5 235.5t109.5 178t159.5 109t192.5 38.5q179 0 286 -96t107 -266q0 -54 -4 -78h-641v-22q0 -222 81 -332.5t234 -110.5q149 0 291 107l35 -54q-192 -176 -424 -176q-224 0 -345.5 117.5t-121.5 349.5zM346 633h373q6 69 6 80q0 108 -30.5 164.5 t-110.5 56.5q-90 0 -155 -75t-83 -226zM412 1180q121 193 166 340q202 0 202 -72q0 -41 -107.5 -141.5t-199.5 -163.5z" />
<glyph unicode="&#xea;" horiz-adv-x="1079" d="M92 438q0 128 40.5 235.5t109.5 178t159.5 109t192.5 38.5q179 0 286 -96t107 -266q0 -54 -4 -78h-641v-22q0 -222 81 -332.5t234 -110.5q149 0 291 107l35 -54q-192 -176 -424 -176q-224 0 -345.5 117.5t-121.5 349.5zM317 1184q43 58 106.5 161t100.5 171h103 q37 -68 100.5 -171t106.5 -161l-66 -41l-193 164l-192 -164zM346 633h373q6 69 6 80q0 108 -30.5 164.5t-110.5 56.5q-90 0 -155 -75t-83 -226z" />
<glyph unicode="&#xeb;" horiz-adv-x="1079" d="M92 438q0 128 40.5 235.5t109.5 178t159.5 109t192.5 38.5q179 0 286 -96t107 -266q0 -54 -4 -78h-641v-22q0 -222 81 -332.5t234 -110.5q149 0 291 107l35 -54q-192 -176 -424 -176q-224 0 -345.5 117.5t-121.5 349.5zM236 1323q0 58 42 100.5t101 42.5t103 -43t44 -100 q0 -62 -43.5 -103.5t-103.5 -41.5q-61 0 -102 41t-41 104zM346 633h373q6 69 6 80q0 108 -30.5 164.5t-110.5 56.5q-90 0 -155 -75t-83 -226zM672 1323q0 58 42 100.5t101 42.5t103.5 -43t44.5 -100q0 -62 -44 -103.5t-104 -41.5q-61 0 -102 41t-41 104z" />
<glyph unicode="&#xec;" horiz-adv-x="618" d="M66 0v49l129 39v748l-129 20v55l383 88v-911l129 -39v-49h-512zM98 1448q0 72 203 72q45 -147 166 -340l-61 -37q-93 63 -200.5 163.5t-107.5 141.5z" />
<glyph unicode="&#xed;" horiz-adv-x="618" d="M66 0v49l129 39v748l-129 20v55l383 88v-911l129 -39v-49h-512zM166 1180q121 193 166 340q203 0 203 -72q0 -41 -107.5 -141.5t-200.5 -163.5z" />
<glyph unicode="&#xee;" horiz-adv-x="618" d="M51 1184q43 58 106.5 161t100.5 171h102q37 -68 100.5 -171t106.5 -161l-65 -41l-193 164l-192 -164zM66 0v49l129 39v748l-129 20v55l383 88v-911l129 -39v-49h-512z" />
<glyph unicode="&#xef;" horiz-adv-x="618" d="M-53 1323q0 58 42 100.5t101 42.5t103.5 -43t44.5 -100q0 -62 -44 -103.5t-104 -41.5t-101.5 41t-41.5 104zM66 0v49l129 39v748l-129 20v55l383 88v-911l129 -39v-49h-512zM383 1323q0 58 42 100.5t101 42.5t103.5 -43t44.5 -100q0 -62 -44 -103.5t-104 -41.5t-101.5 41 t-41.5 104z" />
<glyph unicode="&#xf0;" horiz-adv-x="1118" d="M82 475q0 142 54 254t164.5 180t262.5 68q63 0 146 -27q-37 133 -105 230l-256 -109v113l191 82q-98 104 -254 182l32 70q195 -62 359 -193l213 90v-112l-127 -56q264 -269 264 -657q0 -285 -134.5 -452t-350.5 -167q-200 0 -329.5 142.5t-129.5 361.5zM350 461 q0 -177 51.5 -295.5t147.5 -118.5q60 0 103 50.5t64 132t29.5 159t8.5 156.5q0 179 -25 315q-65 21 -129 21q-66 0 -115.5 -33t-78 -92t-42.5 -132.5t-14 -162.5z" />
<glyph unicode="&#xf1;" horiz-adv-x="1241" d="M66 0v49l129 41v746l-129 20v55l383 88v-155q76 76 168 115.5t178 39.5q138 0 205 -81t67 -230v-598l133 -41v-49h-516v49l131 41v572q0 99 -39 147.5t-121 48.5q-51 0 -106 -26t-100 -70v-672l120 -41v-49h-503zM328 1202q24 133 65 195.5t113 62.5q40 0 138 -43 t130 -43t50 22.5t42 80.5l76 -19q-24 -133 -65 -195.5t-113 -62.5q-40 0 -138 43t-130 43t-51 -22t-42 -80z" />
<glyph unicode="&#xf2;" horiz-adv-x="1167" d="M92 455q0 251 134 397.5t360 146.5q220 0 354.5 -131t134.5 -352q0 -253 -131.5 -399t-361.5 -146q-220 0 -355 131.5t-135 352.5zM358 485q0 -216 56.5 -333t171.5 -117q111 0 167 119t56 331q0 216 -56 333.5t-171 117.5q-111 0 -167.5 -119.5t-56.5 -331.5zM401 1448 q0 72 203 72q45 -147 166 -340l-61 -37q-93 63 -200.5 163.5t-107.5 141.5z" />
<glyph unicode="&#xf3;" horiz-adv-x="1167" d="M92 455q0 251 134 397.5t360 146.5q220 0 354.5 -131t134.5 -352q0 -253 -131.5 -399t-361.5 -146q-220 0 -355 131.5t-135 352.5zM358 485q0 -216 56.5 -333t171.5 -117q111 0 167 119t56 331q0 216 -56 333.5t-171 117.5q-111 0 -167.5 -119.5t-56.5 -331.5zM457 1180 q121 193 166 340q202 0 202 -72q0 -41 -107.5 -141.5t-199.5 -163.5z" />
<glyph unicode="&#xf4;" horiz-adv-x="1167" d="M92 455q0 251 134 397.5t360 146.5q220 0 354.5 -131t134.5 -352q0 -253 -131.5 -399t-361.5 -146q-220 0 -355 131.5t-135 352.5zM326 1184q42 58 105.5 160t100.5 172h103q37 -68 100.5 -171t106.5 -161l-66 -41l-192 164l-193 -164zM358 485q0 -216 56.5 -333 t171.5 -117q111 0 167 119t56 331q0 216 -56 333.5t-171 117.5q-111 0 -167.5 -119.5t-56.5 -331.5z" />
<glyph unicode="&#xf5;" horiz-adv-x="1167" d="M92 455q0 251 134 397.5t360 146.5q220 0 354.5 -131t134.5 -352q0 -253 -131.5 -399t-361.5 -146q-220 0 -355 131.5t-135 352.5zM287 1202q24 133 65 195.5t113 62.5q41 0 139 -43t129 -43q32 0 50 22.5t42 80.5l76 -19q-24 -133 -65 -195.5t-113 -62.5 q-41 0 -138.5 43t-129.5 43t-51 -22t-42 -80zM358 485q0 -216 56.5 -333t171.5 -117q111 0 167 119t56 331q0 216 -56 333.5t-171 117.5q-111 0 -167.5 -119.5t-56.5 -331.5z" />
<glyph unicode="&#xf6;" horiz-adv-x="1167" d="M92 455q0 251 134 397.5t360 146.5q220 0 354.5 -131t134.5 -352q0 -253 -131.5 -399t-361.5 -146q-220 0 -355 131.5t-135 352.5zM219 1323q0 58 42 100.5t101 42.5t103.5 -43t44.5 -100q0 -62 -44 -103.5t-104 -41.5t-101.5 41t-41.5 104zM358 485q0 -216 56.5 -333 t171.5 -117q111 0 167 119t56 331q0 216 -56 333.5t-171 117.5q-111 0 -167.5 -119.5t-56.5 -331.5zM655 1323q0 58 42.5 100.5t101.5 42.5t103 -43t44 -100q0 -62 -43.5 -103.5t-103.5 -41.5q-61 0 -102.5 41.5t-41.5 103.5z" />
<glyph unicode="&#xf7;" d="M102 553v133h922v-133h-922zM434 309q0 55 37 93t90 38q55 0 93 -38t38 -93q0 -53 -38 -90t-93 -37q-53 0 -90 37t-37 90zM434 934q0 54 37 91.5t90 37.5q55 0 93 -37.5t38 -91.5t-38 -91.5t-93 -37.5q-53 0 -90 37.5t-37 91.5z" />
<glyph unicode="&#xf8;" horiz-adv-x="1167" d="M92 455q0 251 134 397.5t360 146.5q141 0 252 -57l59 80h131l-102 -141q149 -133 149 -365q0 -253 -131.5 -399t-361.5 -146q-149 0 -265 64l-61 -86h-129l106 147q-141 132 -141 359zM358 485q0 -108 15 -194l379 528q-57 117 -170 117q-111 0 -167.5 -119.5 t-56.5 -331.5zM410 162q57 -127 176 -127q111 0 167 119t56 331q0 119 -18 207z" />
<glyph unicode="&#xf9;" horiz-adv-x="1200" d="M31 856v55l383 88v-692q0 -98 38 -146t121 -48q50 0 102 24t91 66v633l-129 20v55l383 88v-874l129 -21v-53l-383 -80v144q-157 -144 -332 -144q-137 0 -205.5 81.5t-68.5 228.5v555zM326 1448q0 72 202 72q45 -147 166 -340l-61 -37q-92 63 -199.5 163.5t-107.5 141.5z " />
<glyph unicode="&#xfa;" horiz-adv-x="1200" d="M31 856v55l383 88v-692q0 -98 38 -146t121 -48q50 0 102 24t91 66v633l-129 20v55l383 88v-874l129 -21v-53l-383 -80v144q-157 -144 -332 -144q-137 0 -205.5 81.5t-68.5 228.5v555zM489 1180q121 193 166 340q203 0 203 -72q0 -41 -107.5 -141.5t-199.5 -163.5z" />
<glyph unicode="&#xfb;" horiz-adv-x="1200" d="M31 856v55l383 88v-692q0 -98 38 -146t121 -48q50 0 102 24t91 66v633l-129 20v55l383 88v-874l129 -21v-53l-383 -80v144q-157 -144 -332 -144q-137 0 -205.5 81.5t-68.5 228.5v555zM319 1184q43 58 106.5 161t100.5 171h103q37 -68 100.5 -171t106.5 -161l-66 -41 l-192 164l-193 -164z" />
<glyph unicode="&#xfc;" horiz-adv-x="1200" d="M31 856v55l383 88v-692q0 -98 38 -146t121 -48q50 0 102 24t91 66v633l-129 20v55l383 88v-874l129 -21v-53l-383 -80v144q-157 -144 -332 -144q-137 0 -205.5 81.5t-68.5 228.5v555zM211 1323q0 58 42 100.5t101 42.5t103.5 -43t44.5 -100q0 -62 -44 -103.5t-104 -41.5 t-101.5 41t-41.5 104zM647 1323q0 58 42.5 100.5t101.5 42.5t103 -43t44 -100q0 -62 -43.5 -103.5t-103.5 -41.5q-61 0 -102.5 41.5t-41.5 103.5z" />
<glyph unicode="&#xfd;" horiz-adv-x="1132" d="M31 922v49h524v-49l-135 -45l231 -568l223 563l-133 50v49h361v-49l-131 -50l-420 -1022q-27 -64 -46.5 -104t-53.5 -88.5t-70.5 -75.5t-92 -46t-124.5 -19q-44 0 -75.5 20t-31.5 60q0 70 72 137q91 -72 166 -72q36 0 64 23.5t69 97.5t102 219l-378 872zM522 1180 q121 193 166 340q203 0 203 -72q0 -41 -107.5 -141.5t-199.5 -163.5z" />
<glyph unicode="&#xfe;" horiz-adv-x="1185" d="M20 -422l130 39v1712l-130 21v55l383 82v-645q51 65 136 111t172 46q125 0 213 -62t129 -162.5t41 -229.5q0 -121 -29.5 -219.5t-79 -163.5t-116.5 -109t-138.5 -63t-148.5 -19q-75 0 -179 23v-377l129 -39v-49h-512v49zM403 106q88 -71 205 -71q110 0 173 115t63 292 q0 186 -61.5 301t-180.5 115q-47 0 -101 -25.5t-98 -74.5v-652z" />
<glyph unicode="&#xff;" horiz-adv-x="1132" d="M31 922v49h524v-49l-135 -45l231 -568l223 563l-133 50v49h361v-49l-131 -50l-420 -1022q-27 -64 -46.5 -104t-53.5 -88.5t-70.5 -75.5t-92 -46t-124.5 -19q-44 0 -75.5 20t-31.5 60q0 70 72 137q91 -72 166 -72q36 0 64 23.5t69 97.5t102 219l-378 872zM240 1323 q0 58 42 100.5t101 42.5t103 -43t44 -100q0 -62 -43.5 -103.5t-103.5 -41.5q-61 0 -102 41t-41 104zM676 1323q0 58 42 100.5t101 42.5t103.5 -43t44.5 -100q0 -62 -44 -103.5t-104 -41.5q-61 0 -102 41t-41 104z" />
<glyph unicode="&#x152;" horiz-adv-x="1945" d="M113 682q0 325 196 507.5t533 182.5h958v-366h-57l-115 280h-409v-524h235l72 203h53v-492h-53l-72 203h-235v-590h426l131 326h57l-18 -412h-990q-176 0 -305.5 36.5t-222 116.5t-138.5 212t-46 317zM399 690q0 -286 115 -447t340 -161h84v1210h-111q-88 0 -160 -30.5 t-121 -85t-82.5 -130.5t-49 -165t-15.5 -191z" />
<glyph unicode="&#x153;" horiz-adv-x="1798" d="M92 455q0 251 134 397.5t360 146.5q237 0 372 -151q142 151 355 151q179 0 286 -96t107 -266q0 -42 -4 -66h-641v-34q0 -222 81 -332.5t234 -110.5q149 0 291 107l35 -54q-192 -176 -424 -176q-235 0 -354 125q-128 -125 -342 -125q-220 0 -355 131.5t-135 352.5z M358 485q0 -216 56.5 -333t171.5 -117q111 0 167 119t56 331q0 216 -56 333.5t-171 117.5q-111 0 -167.5 -119.5t-56.5 -331.5zM1065 633h373q6 69 6 80q0 108 -30.5 164.5t-110.5 56.5q-90 0 -155 -75t-83 -226z" />
<glyph unicode="&#x178;" horiz-adv-x="1462" d="M41 1313v59h616v-59l-155 -47l329 -549l308 551l-152 45v59h434v-59l-164 -47l-378 -674v-488l170 -45v-59h-621v59l172 45v486l-412 678zM430 1645q0 58 42 100.5t101 42.5t103.5 -43t44.5 -100q0 -62 -44 -104t-104 -42t-101.5 41.5t-41.5 104.5zM866 1645 q0 58 42.5 100.5t101.5 42.5t103 -43t44 -100q0 -62 -43.5 -104t-103.5 -42t-102 41.5t-42 104.5z" />
<glyph unicode="&#x2c6;" horiz-adv-x="819" d="M152 1184q42 58 105.5 160t100.5 172h103q37 -68 100.5 -171t106.5 -161l-66 -41l-192 164l-193 -164z" />
<glyph unicode="&#x2dc;" horiz-adv-x="819" d="M102 1202q24 133 65.5 195.5t113.5 62.5q41 0 139 -43t129 -43q32 0 50 22.5t42 80.5l76 -19q-24 -133 -65 -195.5t-113 -62.5q-41 0 -139 43t-130 43t-50.5 -22t-41.5 -80z" />
<glyph unicode="&#x2000;" horiz-adv-x="921" />
<glyph unicode="&#x2001;" horiz-adv-x="1843" />
<glyph unicode="&#x2002;" horiz-adv-x="921" />
<glyph unicode="&#x2003;" horiz-adv-x="1843" />
<glyph unicode="&#x2004;" horiz-adv-x="614" />
<glyph unicode="&#x2005;" horiz-adv-x="460" />
<glyph unicode="&#x2006;" horiz-adv-x="307" />
<glyph unicode="&#x2007;" horiz-adv-x="307" />
<glyph unicode="&#x2008;" horiz-adv-x="230" />
<glyph unicode="&#x2009;" horiz-adv-x="368" />
<glyph unicode="&#x200a;" horiz-adv-x="102" />
<glyph unicode="&#x2010;" horiz-adv-x="716" d="M72 440v150h573v-150h-573z" />
<glyph unicode="&#x2011;" horiz-adv-x="716" d="M72 440v150h573v-150h-573z" />
<glyph unicode="&#x2012;" horiz-adv-x="716" d="M72 440v150h573v-150h-573z" />
<glyph unicode="&#x2013;" horiz-adv-x="1228" d="M72 440v150h1085v-150h-1085z" />
<glyph unicode="&#x2014;" horiz-adv-x="1843" d="M72 440v150h1700v-150h-1700z" />
<glyph unicode="&#x2018;" horiz-adv-x="548" d="M117 1010q0 120 72 223t176 164l43 -56q-58 -41 -106 -99.5t-62 -113.5h30q59 0 100.5 -37t41.5 -102q0 -66 -40.5 -107.5t-103.5 -41.5q-66 0 -108.5 45t-42.5 125z" />
<glyph unicode="&#x2019;" horiz-adv-x="548" d="M137 1251q0 66 40.5 108t103.5 42q66 0 108.5 -45t42.5 -125q0 -120 -72 -223t-176 -164l-43 55q58 41 106 99.5t62 113.5h-30q-59 0 -100.5 37t-41.5 102z" />
<glyph unicode="&#x201a;" horiz-adv-x="548" d="M127 119q0 66 40 107.5t103 41.5q67 0 109.5 -45t42.5 -125q0 -120 -72 -223t-176 -164l-43 56q58 41 106 99.5t62 113.5h-31q-59 0 -100 37t-41 102z" />
<glyph unicode="&#x201c;" horiz-adv-x="937" d="M117 1014q0 120 72 223t176 164l43 -55q-58 -41 -106 -99.5t-62 -113.5h30q59 0 100.5 -37.5t41.5 -102.5q0 -66 -40.5 -107.5t-103.5 -41.5q-66 0 -108.5 45t-42.5 125zM506 1014q0 120 72 223t176 164l43 -55q-58 -41 -106 -99.5t-62 -113.5h30q59 0 100.5 -37.5 t41.5 -102.5q0 -66 -40.5 -107.5t-103.5 -41.5q-66 0 -108.5 45t-42.5 125z" />
<glyph unicode="&#x201d;" horiz-adv-x="937" d="M137 1251q0 66 40.5 108t103.5 42q66 0 108.5 -45t42.5 -125q0 -120 -72 -223t-176 -164l-43 55q58 41 106 99.5t62 113.5h-30q-59 0 -100.5 37t-41.5 102zM526 1251q0 66 40.5 108t103.5 42q66 0 108.5 -45t42.5 -125q0 -120 -72 -223t-176 -164l-43 55q58 41 106 99.5 t62 113.5h-30q-59 0 -100.5 37t-41.5 102z" />
<glyph unicode="&#x201e;" horiz-adv-x="937" d="M127 119q0 66 40 107.5t103 41.5q67 0 109.5 -45t42.5 -125q0 -120 -72 -223t-176 -164l-43 56q58 41 106 99.5t62 113.5h-31q-59 0 -100 37t-41 102zM516 119q0 66 40 107.5t103 41.5q67 0 109.5 -45t42.5 -125q0 -120 -72 -223t-176 -164l-43 56q58 41 106 99.5 t62 113.5h-31q-59 0 -100 37t-41 102z" />
<glyph unicode="&#x2022;" horiz-adv-x="854" d="M127 647q0 126 85.5 213.5t211.5 87.5q128 0 214.5 -87t86.5 -214q0 -124 -86.5 -210.5t-214.5 -86.5q-125 0 -211 86.5t-86 210.5z" />
<glyph unicode="&#x2026;" horiz-adv-x="1536" d="M102 123q0 61 45 105t109 44q65 0 109.5 -43t44.5 -108q0 -61 -45 -105.5t-109 -44.5q-65 0 -109.5 43.5t-44.5 108.5zM614 123q0 61 45 105t109 44q65 0 109.5 -43t44.5 -108q0 -61 -45 -105.5t-109 -44.5q-65 0 -109.5 43.5t-44.5 108.5zM1126 123q0 61 45 105t109 44 q65 0 109.5 -43t44.5 -108q0 -61 -45 -105.5t-109 -44.5q-65 0 -109.5 43.5t-44.5 108.5z" />
<glyph unicode="&#x202f;" horiz-adv-x="368" />
<glyph unicode="&#x2039;" horiz-adv-x="724" d="M92 504l457 422l53 -49l-242 -373l242 -377l-53 -45z" />
<glyph unicode="&#x203a;" horiz-adv-x="724" d="M123 131l242 373l-242 377l53 45l457 -422l-457 -422z" />
<glyph unicode="&#x205f;" horiz-adv-x="460" />
<glyph unicode="&#x20ac;" d="M76 510v98h94v49q0 45 2 68h-96v98h104q19 134 68.5 237.5t121 166t156 94t179.5 31.5q82 0 177.5 -24t145.5 -50l8 -322h-78q-33 149 -91 233.5t-158 84.5q-54 0 -98 -39t-73 -105.5t-47.5 -143t-27.5 -163.5h354v-98h-360v-117h360v-98h-354q6 -71 16.5 -132.5 t30.5 -122t47.5 -103t68.5 -69t91 -26.5q107 0 158.5 87.5t76.5 271.5h84l-26 -359q-58 -35 -143.5 -60.5t-157.5 -25.5q-203 0 -349 142.5t-180 396.5h-104z" />
<glyph unicode="&#x2122;" horiz-adv-x="2111" d="M113 1120v252h757v-252h-55l-65 178h-170v-604l108 -32v-50h-393v50l108 32v604h-167l-62 -178h-61zM940 612v50l102 32v592l-102 31v55h317l230 -520l231 520h287v-55l-102 -31v-592l106 -32v-50h-381v50l101 32v518l-271 -616h-53l-287 621v-523l99 -32v-50h-277z" />
<glyph unicode="&#xe000;" horiz-adv-x="972" d="M0 0v973h973v-973h-973z" />
<glyph unicode="&#xfb01;" horiz-adv-x="1341" d="M72 0v49l131 41v789h-131v92h131v59q1 78 32.5 151.5t82.5 127.5t113 95t125.5 62t117.5 21q36 0 58 -20.5t22 -59.5q0 -73 -60 -137q-49 32 -100.5 50.5t-87.5 18.5q-42 0 -61 -25t-19 -77q0 -35 9.5 -123.5t19.5 -142.5h186v-92h-186v-789l133 -41v-49h-516zM788 0v49 l130 39v748l-130 20v55l383 88v-911l129 -39v-49h-512zM889 1319q0 61 44.5 105t108.5 44q65 0 109.5 -43t44.5 -108q0 -61 -45 -105.5t-109 -44.5q-65 0 -109 43t-44 109z" />
<glyph unicode="&#xfb02;" horiz-adv-x="1357" d="M72 0v49l131 41v789h-131v92h131v59q1 78 32.5 151.5t82.5 127.5t113 95t125.5 62t117.5 21q36 0 58 -20.5t22 -59.5q0 -73 -60 -137q-49 32 -100.5 50.5t-87.5 18.5q-42 0 -61 -25t-19 -77q0 -35 9.5 -123.5t19.5 -142.5h186v-92h-186v-789l133 -41v-49h-516zM784 0v49 l129 39v1241l-129 21v55l383 82v-1399l129 -39v-49h-512z" />
</font>
</defs>
</svg>
