<?xml version="1.0" standalone="no"?>
<!DOCTYPE svg PUBLIC "-//W3C//DTD SVG 1.1//EN" "http://www.w3.org/Graphics/SVG/1.1/DTD/svg11.dtd" >
<svg xmlns="http://www.w3.org/2000/svg">
<metadata></metadata>
<defs>
<font id="gandhi_serifbold_italic" horiz-adv-x="1126" >
<font-face units-per-em="2048" ascent="1567" descent="-481" />
<missing-glyph horiz-adv-x="491" />
<glyph horiz-adv-x="2048" />
<glyph horiz-adv-x="2048" />
<glyph unicode="&#xd;" horiz-adv-x="2048" />
<glyph unicode=" "  horiz-adv-x="491" />
<glyph unicode="&#x09;" horiz-adv-x="491" />
<glyph unicode="&#xa0;" horiz-adv-x="491" />
<glyph unicode="!" horiz-adv-x="690" d="M133 115q0 71 49 114t109 43q61 0 100 -41t39 -98q0 -64 -43.5 -113t-110.5 -49q-65 0 -104 41.5t-39 102.5zM281 412q4 190 15 489.5t19 360.5q9 66 56.5 102.5t115.5 36.5q65 0 103.5 -30t38.5 -87q0 -46 -51.5 -214t-132.5 -403.5t-87 -254.5h-77z" />
<glyph unicode="&#x22;" horiz-adv-x="823" d="M246 1323h250l-170 -459h-70zM573 1323h250l-170 -459h-69z" />
<glyph unicode="#" d="M35 369l24 131h220l86 252h-236l23 131h258l108 317h129l-108 -317h262l108 317h129l-108 -317h205l-23 -131h-227l-86 -252h243l-24 -131h-264l-109 -318h-129l109 318h-263l-108 -318h-129l108 318h-198zM408 500h262l86 252h-262z" />
<glyph unicode="$" d="M74 61l41 334h80q0 -148 60.5 -241t186.5 -107l93 522q-126 82 -173 125q-116 106 -116 244q0 184 121.5 291.5t312.5 120.5l39 217h108l-39 -217q172 -12 289 -60l-61 -305h-74q0 118 -43.5 192.5t-122.5 94.5l-86 -481q131 -86 182 -133q122 -115 123 -257 q0 -183 -126.5 -295t-329.5 -131l-37 -208h-109l37 206q-93 4 -193 29.5t-163 58.5zM467 1051q0 -104 127 -195l74 420q-87 -16 -144 -76.5t-57 -148.5zM551 49q95 18 156 81.5t61 156.5q0 118 -135 219z" />
<glyph unicode="%" horiz-adv-x="1630" d="M166 942q0 163 116.5 286.5t284.5 123.5q131 0 201 -63t70 -187q0 -72 -31 -144t-83.5 -128.5t-128.5 -92t-159 -35.5q-128 0 -199 64.5t-71 175.5zM203 43l1181 1309l91 -72l-1182 -1309zM334 922q0 -86 30.5 -121t92.5 -35q58 0 102 39t66.5 100t33.5 121.5t11 116.5 q0 79 -30.5 112t-86.5 33q-47 0 -85.5 -25.5t-62.5 -65t-40.5 -89.5t-23.5 -96.5t-7 -89.5zM840 213q0 163 116.5 286.5t284.5 123.5q131 0 200.5 -63t69.5 -187q0 -97 -51.5 -188.5t-145.5 -151.5t-204 -60q-128 0 -199 64.5t-71 175.5zM1008 193q0 -86 30 -121t92 -35 q58 0 102 39t66.5 100t33.5 121.5t11 116.5q0 79 -30 112t-86 33q-47 0 -85.5 -25.5t-62.5 -65t-40.5 -89.5t-23.5 -96.5t-7 -89.5z" />
<glyph unicode="&#x26;" horiz-adv-x="1492" d="M51 295q0 88 34 160.5t96.5 125.5t134.5 90.5t165 69.5q-98 178 -98 283q0 107 60.5 183t154 110.5t207.5 34.5q151 0 244.5 -62t93.5 -178q0 -57 -22.5 -106t-56 -83t-85.5 -65.5t-98 -51t-107 -40.5l223 -397q93 126 158 276l-147 43l8 51h436l-8 -57l-174 -41 q-89 -159 -238 -334q84 -147 135.5 -194t132.5 -47h80v-66q-58 -11 -154.5 -20t-156.5 -9q-80 0 -131.5 33t-99.5 111q-181 -144 -410 -144q-168 0 -272.5 88t-104.5 236zM319 330q0 -101 63 -168.5t173 -67.5q137 0 246 80l-289 516q-91 -68 -142 -162t-51 -198zM637 1102 q0 -93 74 -225l30 -54q191 92 191 285q0 78 -38.5 126t-105.5 48q-70 0 -110.5 -51.5t-40.5 -128.5z" />
<glyph unicode="'" horiz-adv-x="495" d="M246 1323h250l-170 -459h-70z" />
<glyph unicode="(" horiz-adv-x="929" d="M102 469q0 252 108.5 479t298.5 395.5t439 266.5l23 -58q-279 -182 -435.5 -483t-156.5 -645q0 -206 68 -385t198 -295l-35 -55q-76 31 -147.5 79.5t-137.5 119.5t-115 156t-78.5 195t-29.5 230z" />
<glyph unicode=")" horiz-adv-x="929" d="M-23 -254q279 182 435.5 483t156.5 645q0 206 -68 385t-198 295l35 56q76 -31 147.5 -79.5t137.5 -120t115 -156.5t78.5 -195t29.5 -230q0 -189 -62.5 -367t-174.5 -323.5t-267.5 -261t-341.5 -188.5z" />
<glyph unicode="*" horiz-adv-x="907" d="M137 930l346 69l-307 88l162 222l182 -262l-39 325h252l-155 -332l282 248l84 -223l-346 -70l307 -88l-162 -221l-182 262l39 -325h-252l156 331l-283 -247z" />
<glyph unicode="+" d="M133 555v131h391v391h135v-391h396v-131h-396v-389h-135v389h-391z" />
<glyph unicode="," horiz-adv-x="512" d="M0 -256q64 39 128 103.5t87 123.5h-18q-56 0 -92.5 38.5t-36.5 92.5q0 69 45.5 115.5t109.5 46.5q62 0 102 -38.5t40 -110.5q0 -117 -101 -239t-229 -187z" />
<glyph unicode="-" horiz-adv-x="716" d="M68 440l26 150h574l-27 -150h-573z" />
<glyph unicode="." horiz-adv-x="512" d="M68 115q0 71 48.5 114t108.5 43q61 0 100.5 -41t39.5 -98q0 -64 -43.5 -113t-110.5 -49q-65 0 -104 41.5t-39 102.5z" />
<glyph unicode="/" horiz-adv-x="1097" d="M-129 -481l1178 2068h137l-1180 -2068h-135z" />
<glyph unicode="0" d="M90 455q0 85 17 181.5t50 197.5t86 193.5t119.5 165t157.5 116t193 43.5q180 0 279.5 -129.5t99.5 -354.5q0 -85 -17 -181.5t-50 -197.5t-86 -193.5t-119.5 -165t-157.5 -116t-193 -43.5q-180 0 -279.5 129.5t-99.5 354.5zM350 297q0 -114 33.5 -180t99.5 -66 q65 0 123 73.5t98 186.5t69.5 247t43.5 255.5t14 212.5q0 114 -33.5 180t-99.5 66q-65 0 -123 -73.5t-98 -186.5t-69.5 -247t-43.5 -255.5t-14 -212.5z" />
<glyph unicode="1" d="M94 0l10 59l279 52l182 1032l-295 -21l13 68l522 145h65l-215 -1224l258 -52l-10 -59h-809z" />
<glyph unicode="2" d="M-43 0v61q67 47 115 82t117.5 89.5t120.5 99t113 105.5t106 116t88 122.5t71.5 133t44.5 140t17 149.5q0 89 -38 136.5t-104 47.5q-87 0 -145 -87t-88 -234q-86 0 -144.5 27.5t-58.5 90.5q1 78 74.5 142.5t178.5 97.5t210 33q185 0 287 -79t102 -210q0 -71 -25 -143.5 t-64 -135t-99.5 -128.5t-118.5 -118t-134 -109.5t-133 -96.5t-128 -84h509l97 172h61l-92 -420h-940z" />
<glyph unicode="3" d="M37 174q0 82 63 132t160 61v-80q0 -110 52.5 -174t152.5 -64q111 0 174 82.5t63 208.5q0 71 -31.5 124.5t-87.5 85t-121.5 48.5t-144.5 23l5 75q58 10 116 29t115 50.5t100 71.5t70 95t27 117q0 70 -40 111.5t-114 41.5q-146 0 -289 -149l-45 57q190 232 430 232 q143 0 228.5 -65.5t85.5 -182.5q0 -71 -29 -133t-78 -106t-107 -75t-122 -49q85 -14 147 -46t96.5 -77t50 -94t15.5 -106q0 -88 -38.5 -169t-106.5 -143t-168.5 -98.5t-216.5 -36.5q-177 0 -294.5 58.5t-117.5 144.5z" />
<glyph unicode="4" d="M47 385v66l875 884h88l-144 -809h183l-25 -141h-182l-49 -285l159 -41l-10 -59h-633l10 59l201 41l51 285h-524zM233 526h365l84 455z" />
<glyph unicode="5" d="M53 176q0 88 67 138t159 53v-72q0 -246 200 -246q116 0 182 82.5t66 194.5q0 76 -38.5 131t-104.5 84.5t-139.5 43t-157.5 13.5h-101l193 719h573l62 115h63l-84 -373h-594l-59 -240h51q296 0 443 -100.5t147 -286.5q0 -111 -44 -201t-118.5 -145.5t-168 -85 t-197.5 -29.5q-102 0 -190 20.5t-149 68.5t-61 116z" />
<glyph unicode="6" d="M100 430q0 156 52 295t141 244t210 189.5t255 139t280 84.5l23 -73q-172 -64 -296 -141.5t-214.5 -184t-135 -247.5t-44.5 -320q0 -34 3.5 -74t15 -93t29.5 -94.5t51.5 -70.5t76.5 -29q68 0 122.5 66.5t81.5 164t27 199.5q0 112 -41.5 182t-118.5 70q-52 0 -104 -18 l-22 65q34 21 107 40.5t132 19.5q139 0 222 -91.5t83 -246.5q0 -144 -67.5 -267.5t-184.5 -195.5t-256 -72q-211 0 -319.5 124.5t-108.5 334.5z" />
<glyph unicode="7" d="M119 0l866 1061h-645l-78 -160h-69l120 488h66l10 -72h793v-72q-58 -118 -307 -558.5t-394 -686.5h-362z" />
<glyph unicode="8" d="M72 285q0 135 89.5 230t235.5 144q-94 67 -147 142.5t-53 175.5q0 115 68 202t175.5 130t233.5 43q179 0 291 -75.5t112 -201.5q0 -228 -321 -338q59 -37 100.5 -69.5t82.5 -77t62 -98t21 -115.5q0 -118 -67.5 -211t-182.5 -144t-256 -51q-192 0 -318 87t-126 227z M322 303q0 -110 53.5 -185t169.5 -75q103 0 162 69.5t59 163.5q0 29 -8 56t-17.5 48t-32.5 46t-37.5 40t-48 40t-49 35.5t-56.5 37t-54 35.5q-141 -118 -141 -311zM442 1057q0 -43 18 -80.5t56 -72.5t72 -59.5t92 -60.5q160 129 160 306q0 84 -50 136t-137 52 q-91 0 -151 -61.5t-60 -159.5z" />
<glyph unicode="9" d="M123 14q172 64 296 141.5t214.5 184t135 247.5t44.5 320q0 34 -3.5 74t-15 93t-29.5 94.5t-51.5 70.5t-76.5 29q-68 0 -122.5 -66.5t-81.5 -164t-27 -199.5q0 -112 41 -182t118 -70q53 0 105 18l22 -65q-34 -21 -107 -40.5t-132 -19.5q-139 0 -222.5 91.5t-83.5 246.5 q0 144 67.5 267.5t184.5 195.5t256 72q211 0 319.5 -124.5t108.5 -334.5q0 -156 -52 -295t-141 -244t-210 -189.5t-255 -139t-280 -84.5z" />
<glyph unicode=":" horiz-adv-x="512" d="M68 115q0 71 48.5 114t108.5 43q61 0 100.5 -41t39.5 -98q0 -64 -43.5 -113t-110.5 -49q-65 0 -104 41.5t-39 102.5zM178 698q0 71 49 114.5t109 43.5q61 0 100 -41t39 -98q0 -64 -43 -113t-110 -49q-66 0 -105 41t-39 102z" />
<glyph unicode=";" horiz-adv-x="512" d="M0 -256q64 39 128 103.5t87 123.5h-18q-56 0 -92.5 38.5t-36.5 92.5q0 69 45.5 115.5t109.5 46.5q62 0 102 -38.5t40 -110.5q0 -117 -101 -239t-229 -187zM178 698q0 71 49 114.5t109 43.5q61 0 100 -41t39 -98q0 -64 -43 -113t-110 -49q-66 0 -105 41t-39 102z" />
<glyph unicode="&#x3c;" d="M193 573v103l751 399l60 -123l-623 -327l623 -328l-62 -123z" />
<glyph unicode="=" d="M133 358v131h922v-131h-922zM133 756v131h922v-131h-922z" />
<glyph unicode="&#x3e;" d="M193 297l622 328l-622 327l59 123l752 -399v-103l-750 -399z" />
<glyph unicode="?" horiz-adv-x="870" d="M197 115q0 71 48.5 114t108.5 43q61 0 100.5 -41t39.5 -98q0 -64 -43.5 -113t-110.5 -49q-65 0 -104 41.5t-39 102.5zM221 557q0 57 28 111.5t73 98.5t99.5 87t109 85t99.5 84.5t73 93.5t28 104q0 51 -36.5 84.5t-92.5 33.5q-48 0 -84.5 -24.5t-57.5 -66t-32 -86.5 t-14 -95h-60q-125 0 -125 92q0 59 36 106.5t92.5 76.5t119.5 44t123 15q86 0 158.5 -25.5t120 -80.5t47.5 -130q0 -67 -27 -130.5t-70.5 -113t-96 -95t-104.5 -83.5t-95.5 -71.5t-70 -67.5t-26.5 -63q0 -26 21.5 -42t52.5 -16q51 0 119 33l10 -61q-34 -21 -96.5 -38.5 t-114.5 -17.5q-50 0 -94.5 14t-78.5 51t-34 93z" />
<glyph unicode="@" horiz-adv-x="1968" d="M113 250q0 178 48 345t142.5 307.5t225 246t305 164.5t372.5 59q110 0 211.5 -25t190 -77t154.5 -126t103.5 -178.5t37.5 -228.5q0 -219 -87.5 -394t-243 -273.5t-349.5 -98.5q-70 0 -115 26.5t-45 76.5q0 18 8 80q-51 -79 -128 -131t-163 -52q-136 0 -204 95t-68 253 q0 95 24.5 191t74 184t118 156t164.5 108.5t205 40.5q82 0 181 -25t165 -67l-103 -594q-22 -125 -22 -157q0 -45 53 -45q105 0 200.5 89.5t151.5 230t56 286.5q0 250 -162.5 397.5t-427.5 147.5q-164 0 -311 -52t-260 -146t-196.5 -219.5t-127 -277t-43.5 -313.5 q0 -286 173.5 -442t498.5 -156q158 0 328 54t298 140l49 -104q-141 -94 -325 -149.5t-373 -55.5q-198 0 -348.5 51t-245.5 145.5t-142.5 223.5t-47.5 289zM758 379q0 -252 133 -252q105 0 196 123l111 635q-24 21 -59.5 35t-67.5 14q-83 0 -156 -80.5t-115 -208.5t-42 -266z " />
<glyph unicode="A" horiz-adv-x="1546" d="M-20 0l10 59l172 47l760 1295h59l276 -1297l156 -45l-10 -59h-606l10 59l168 50l-76 370h-405l-213 -375l153 -45l-10 -59h-444zM547 571h334l-88 430z" />
<glyph unicode="B" horiz-adv-x="1335" d="M-10 0l10 59l168 47l207 1162l-154 45l10 59h592q61 0 114.5 -5.5t114 -23.5t103 -48t70.5 -82.5t28 -122.5q0 -85 -34 -151t-96 -109.5t-137.5 -70.5t-170.5 -42q176 -6 285.5 -85.5t109.5 -217.5q0 -93 -34 -165.5t-90 -118.5t-134 -76t-160.5 -42t-175.5 -12h-626z M440 92q41 -16 119 -16q159 0 260 93.5t101 256.5q0 112 -73 178t-212 66h-92zM557 758h105q141 0 226 97.5t85 242.5q0 88 -47 143t-144 55q-79 0 -133 -14z" />
<glyph unicode="C" horiz-adv-x="1445" d="M133 563q0 171 55 322t157.5 266.5t260 182.5t350.5 67q114 0 250 -29t199 -59l-47 -328h-76q-19 170 -103.5 256t-228.5 86q-97 0 -178.5 -35t-138.5 -95.5t-100 -137.5t-68 -166.5t-37 -176t-12 -171.5q0 -222 98.5 -359t273.5 -137q144 0 264.5 92.5t178.5 253.5h84 l-86 -327q-240 -97 -467 -97q-282 0 -455.5 159t-173.5 433z" />
<glyph unicode="D" horiz-adv-x="1591" d="M-10 0l10 59l168 45l207 1164l-154 45l10 59h617q178 0 309 -40t209.5 -114.5t116 -174t37.5 -226.5q0 -248 -110.5 -433.5t-313.5 -284.5t-473 -99h-633zM438 86h211q120 0 219.5 42t167 113t113.5 167.5t67 204t21 223.5q0 203 -103.5 327.5t-306.5 124.5h-178z" />
<glyph unicode="E" horiz-adv-x="1257" d="M-10 0l10 59l168 45l207 1164l-154 45l10 59h1016l-65 -366h-58l-57 280h-418l-92 -524h236l108 203h53l-86 -492h-53l-37 203h-235l-105 -590h412l203 326h57l-90 -412h-1030z" />
<glyph unicode="F" horiz-adv-x="1181" d="M-10 0l10 59l168 45l207 1164l-154 45l15 59h1007l-61 -366h-58l-65 280h-410l-92 -524h225l107 203h53l-86 -492h-53l-37 203h-223l-103 -572l162 -47l-8 -57h-604z" />
<glyph unicode="G" horiz-adv-x="1593" d="M133 569q0 246 110 436t304.5 293t441.5 103q122 0 261 -29t198 -61l-47 -326h-78q-18 173 -96 257.5t-236 84.5q-111 0 -205.5 -44t-161.5 -119t-114.5 -174.5t-70.5 -211.5t-23 -229q0 -82 13.5 -155t44 -137t75 -110.5t109.5 -73t145 -26.5q57 0 125 15.5t102 33.5 l76 420l-166 45l10 60h592l-10 -60l-158 -45l-76 -432q-83 -43 -243.5 -78t-272.5 -35q-305 0 -477 156.5t-172 441.5z" />
<glyph unicode="H" horiz-adv-x="1671" d="M-10 0l10 59l168 45l207 1164l-154 45l15 59h591l-10 -59l-170 -45l-90 -504h643l90 504l-153 45l14 59h592l-10 -59l-170 -45l-207 -1164l155 -45l-12 -59h-594l10 59l168 45l101 568h-643l-101 -568l156 -45l-10 -59h-596z" />
<glyph unicode="I" horiz-adv-x="755" d="M-10 0l10 59l168 45l207 1164l-154 45l15 59h591l-10 -59l-170 -45l-207 -1164l156 -45l-10 -59h-596z" />
<glyph unicode="J" horiz-adv-x="806" d="M-51 -135q76 39 120.5 70t83 78.5t60.5 110.5t39 159l174 985l-156 45l13 59h596l-13 -59l-168 -45l-157 -893q-26 -148 -90 -256t-184.5 -188.5t-299.5 -125.5z" />
<glyph unicode="K" horiz-adv-x="1490" d="M-10 0l10 59l168 45l207 1164l-154 45l10 59h596l-10 -59l-170 -45l-207 -1164l156 -45l-10 -59h-596zM578 702l620 566l-151 45l14 59h471l-12 -59l-170 -45l-525 -457l355 -674q21 -40 71.5 -59t104.5 -19v-59q-145 -29 -283 -29q-74 0 -114.5 26t-69.5 85z" />
<glyph unicode="L" horiz-adv-x="1232" d="M-10 0l10 59l168 45l207 1164l-154 45l10 59h596l-10 -59l-170 -45l-209 -1182h434l191 336h57l-92 -422h-1038z" />
<glyph unicode="M" horiz-adv-x="1855" d="M-10 0l10 59l168 45l207 1164l-154 45l10 59h447l248 -1018l587 1018h414l-10 -59l-135 -45l-205 -1162l154 -47l-11 -59h-596l11 59l174 47l182 1041l-668 -1165h-75l-283 1173l-186 -1051l155 -45l-10 -59h-434z" />
<glyph unicode="N" horiz-adv-x="1536" d="M-10 0l10 59l168 45l207 1164l-154 45l10 59h437l520 -917l141 813l-153 45l10 59h432l-10 -59l-168 -45l-228 -1286h-75l-672 1177l-186 -1055l155 -45l-10 -59h-434z" />
<glyph unicode="O" horiz-adv-x="1583" d="M133 504q0 175 56 335.5t158 286t260.5 200.5t348.5 75q142 0 250 -41t174 -115t98.5 -172t32.5 -219q0 -134 -35.5 -263t-106 -241t-167 -196.5t-228 -133.5t-280.5 -49q-143 0 -252.5 41t-176 114t-99.5 168t-33 210zM416 451q0 -404 309 -404q106 0 193.5 60.5 t143.5 154.5t95 212.5t55.5 229.5t16.5 211q0 206 -75.5 308t-231.5 102q-91 0 -168.5 -43.5t-131.5 -116.5t-95 -163t-64.5 -190t-35 -190.5t-11.5 -170.5z" />
<glyph unicode="P" horiz-adv-x="1294" d="M-10 0l10 59l168 45l207 1164l-154 45l10 59h553q106 0 190.5 -17.5t151 -55t102.5 -102.5t36 -155q0 -88 -35 -161t-94.5 -122.5t-139 -83.5t-166 -49.5t-178.5 -15.5h-65l12 64q182 25 283.5 122.5t101.5 260.5q0 116 -56 177.5t-155 61.5q-66 0 -123 -16l-209 -1178 l156 -43l-10 -59h-596z" />
<glyph unicode="Q" horiz-adv-x="1583" d="M133 504q0 175 56 335.5t158 286t260.5 200.5t348.5 75q142 0 250 -41t174 -115t98.5 -172t32.5 -219q0 -201 -76.5 -382t-228 -313t-350.5 -171q32 -84 90.5 -167.5t135.5 -143t145 -60.5h43v-63q-126 -33 -293 -33q-54 0 -110.5 31.5t-102 80t-89 113t-74 122.5 t-54.5 116q-208 37 -311 176.5t-103 343.5zM416 451q0 -404 309 -404q106 0 193.5 60.5t143.5 154.5t95 212.5t55.5 229.5t16.5 211q0 206 -75.5 308t-231.5 102q-91 0 -168.5 -43.5t-131.5 -116.5t-95 -163t-64.5 -190t-35 -190.5t-11.5 -170.5z" />
<glyph unicode="R" horiz-adv-x="1392" d="M-10 0l10 59l168 45l207 1164l-154 47l10 57h557q221 0 346.5 -78t125.5 -233q0 -98 -45 -174.5t-120.5 -122.5t-164.5 -71t-187 -29q98 -14 154.5 -55.5t95.5 -135.5l135 -326q19 -44 51.5 -63t100.5 -25l-2 -59q-30 -8 -114 -18.5t-142 -10.5q-68 0 -109 29t-67 96 l-176 445q-25 59 -45 80.5t-66 21.5h-22l-97 -541l156 -43l-10 -59h-596zM549 715h96q154 0 245 93.5t91 254.5q0 100 -51 166.5t-154 66.5q-53 0 -127 -16z" />
<glyph unicode="S" horiz-adv-x="1107" d="M51 63l43 347h80q0 -166 74 -264.5t225 -98.5q119 0 200 68.5t81 181.5q0 60 -29 111.5t-76 89.5t-103.5 75t-112.5 76t-103 82.5t-76 105t-29 134.5q0 137 67.5 236t177 146.5t247.5 47.5q91 0 191 -20t159 -46l-61 -315h-74q-2 145 -62.5 225t-169.5 80 q-102 0 -175.5 -67t-73.5 -171q0 -52 29.5 -99t76.5 -84t104 -74t114 -78t104 -87t76.5 -110.5t29.5 -138.5q0 -138 -72 -240.5t-192 -153.5t-270 -51q-99 0 -214 27t-186 65z" />
<glyph unicode="T" horiz-adv-x="1366" d="M174 1006l66 366h1198l-66 -366h-57l-64 280h-293l-208 -1182l163 -45l-10 -59h-612l10 59l176 45l209 1182h-283l-172 -280h-57z" />
<glyph unicode="U" horiz-adv-x="1533" d="M205 342q0 42 10 107l145 819l-153 45l10 59h596l-10 -59l-170 -45l-141 -801q-11 -71 -11 -107q0 -133 81.5 -205.5t217.5 -72.5q159 0 272 109t150 319l135 758l-153 45l10 59h432l-10 -59l-170 -45l-135 -768q-46 -259 -207 -394t-389 -135q-75 0 -142.5 9.5 t-136.5 35.5t-118.5 66t-81 107t-31.5 153z" />
<glyph unicode="V" horiz-adv-x="1499" d="M174 1313l10 59h607l-11 -59l-170 -49l174 -889l519 893l-152 45l10 59h441l-11 -59l-174 -47l-751 -1284h-74l-264 1286z" />
<glyph unicode="W" horiz-adv-x="2203" d="M174 1313l10 59h602l-10 -59l-170 -49l160 -863l399 725l-26 142l-146 45l11 59h602l-11 -59l-172 -49l146 -846l432 850l-152 45l11 59h446l-10 -59l-174 -47l-674 -1284h-64l-188 987l-557 -987h-66l-245 1286z" />
<glyph unicode="X" horiz-adv-x="1591" d="M-20 0l10 59l180 47l530 566l-303 596l-139 45l10 59h613l-11 -59l-165 -47l208 -424l400 426l-148 45l11 59h456l-10 -59l-170 -45l-496 -514l328 -650l164 -45l-10 -59h-654l11 59l184 45l-238 482l-436 -482l168 -45l-10 -59h-483z" />
<glyph unicode="Y" horiz-adv-x="1427" d="M174 1313l10 59h602l-10 -59l-166 -47l232 -561l395 563l-143 45l10 59h436l-10 -59l-174 -47l-477 -674l-86 -488l163 -45l-10 -59h-614l10 59l178 45l86 486l-293 678z" />
<glyph unicode="Z" horiz-adv-x="1353" d="M10 0l2 53l975 1233h-549l-162 -280h-57l66 366h1069l-2 -53l-975 -1233h645l178 336h57l-77 -422h-1170z" />
<glyph unicode="[" horiz-adv-x="856" d="M27 -322l342 1942h549l-13 -76h-270l-318 -1790h271l-13 -76h-548z" />
<glyph unicode="\" horiz-adv-x="1097" d="M268 1587h127l576 -2068h-129z" />
<glyph unicode="]" horiz-adv-x="856" d="M-39 -322l12 76h271l317 1790h-270l12 76h549l-342 -1942h-549z" />
<glyph unicode="^" d="M143 602l400 750h102l399 -750l-129 -57l-321 614l-322 -614z" />
<glyph unicode="_" d="M-143 -348l24 149h1145l-25 -149h-1144z" />
<glyph unicode="`" horiz-adv-x="819" d="M326 1456q0 64 190 64q67 -141 225 -340l-59 -37q-71 45 -144.5 98t-142.5 118t-69 97z" />
<glyph unicode="a" horiz-adv-x="1105" d="M76 319q0 95 24.5 191t74 184t118 156t164.5 108.5t205 40.5q82 0 181 -25t165 -67l-109 -628q-20 -123 -20 -156t29 -44t108 -13v-62q-30 -10 -116 -21.5t-144 -11.5q-61 0 -93 27.5t-32 75.5q0 22 8 80q-51 -79 -128 -131t-163 -52q-136 0 -204 95t-68 253zM326 379 q0 -252 133 -252q105 0 196 123l111 635q-24 21 -59.5 35t-67.5 14q-83 0 -156 -80.5t-115 -208.5t-42 -266z" />
<glyph unicode="b" horiz-adv-x="1093" d="M86 66l203 1183q12 66 12 92q0 28 -30 40t-105 12l12 61q142 33 283 33q56 0 73 -19.5t17 -56.5q0 -34 -23 -170l-73 -428q51 84 125.5 135t164.5 51q134 0 203.5 -93t69.5 -255q0 -99 -25 -196.5t-75 -184.5t-118.5 -154t-161.5 -106t-198 -39q-86 0 -186.5 24.5 t-167.5 70.5zM328 86q23 -20 58 -34.5t65 -14.5q75 0 138 56.5t100.5 142t58 178.5t20.5 174q0 122 -32.5 189t-98.5 67q-109 0 -201 -129z" />
<glyph unicode="c" horiz-adv-x="989" d="M76 315q0 132 40 254t113 218t185.5 154t247.5 58q137 0 206.5 -46.5t69.5 -116.5q0 -58 -59.5 -96t-149.5 -38v56q0 88 -21 133t-79 45q-82 0 -153 -82.5t-110.5 -210.5t-39.5 -264t51.5 -208.5t150.5 -72.5q130 0 281 99l31 -54q-88 -77 -215 -124.5t-248 -47.5 q-152 0 -226.5 92t-74.5 252z" />
<glyph unicode="d" d="M76 319q0 93 24 188t73 183.5t117 157t164 110t205 41.5q58 0 125 -12l45 258q13 89 13 92q0 32 -29 44t-106 12l12 61q39 10 127 21.5t147 11.5q56 0 74 -19.5t18 -56.5q0 -42 -20 -160l-178 -1040q-8 -44 -8 -82t26 -50.5t111 -12.5v-62q-37 -9 -122 -21t-130 -12 q-54 0 -92.5 22.5t-38.5 74.5q0 38 6 84q-50 -79 -128.5 -130t-164.5 -51q-135 0 -202.5 94.5t-67.5 253.5zM326 365q0 -238 139 -238q99 0 192 125l109 633q-23 20 -60.5 34.5t-68.5 14.5q-86 0 -158.5 -83.5t-112.5 -213.5t-40 -272z" />
<glyph unicode="e" horiz-adv-x="972" d="M76 322q0 126 40.5 246.5t112.5 217t183 155t241 58.5q289 0 289 -208q0 -135 -158 -224t-454 -98q-4 -27 -4 -80q0 -291 204 -291q131 0 281 107l33 -53q-79 -73 -203.5 -127t-249.5 -54q-66 0 -118.5 15.5t-99 52.5t-72 108.5t-25.5 174.5zM338 535q152 15 260.5 93 t108.5 201q0 51 -24.5 79t-70.5 28q-85 0 -165 -117.5t-109 -283.5z" />
<glyph unicode="f" horiz-adv-x="745" d="M-256 -420q0 40 32 90t68 82q28 -40 73.5 -79.5t84.5 -39.5q41 0 63 74t64 328l143 844h-143l16 92h142l12 57q22 101 81.5 189.5t135.5 146t158.5 90.5t154.5 33q49 0 70 -19t21 -57t-26.5 -86.5t-55.5 -69.5q-4 4 -22.5 19.5t-28.5 23t-29 20.5t-32.5 20t-32 12.5 t-34.5 5.5q-51 0 -81.5 -99.5t-51.5 -285.5h234l-17 -92h-229l-125 -736q-28 -164 -82.5 -287t-127 -195t-153.5 -107t-171 -35q-111 0 -111 61z" />
<glyph unicode="g" horiz-adv-x="1069" d="M27 -358q0 47 36 86t84 55q55 -72 146.5 -129t155.5 -57q56 0 88.5 72.5t56.5 215.5l45 269q-51 -78 -129.5 -130.5t-161.5 -52.5q-136 0 -204 95t-68 253q0 87 22 179t70.5 182t115.5 160.5t165.5 114.5t212.5 44q81 0 179 -25t167 -67l-148 -872q-19 -116 -56.5 -206 t-99 -162t-156 -110t-218.5 -38q-44 0 -94 7t-98 21t-79.5 39t-31.5 56zM326 379q0 -124 32.5 -188t104.5 -64q100 0 192 123l111 635q-20 20 -56.5 34.5t-68.5 14.5q-84 0 -157 -79.5t-115.5 -207.5t-42.5 -268z" />
<glyph unicode="h" horiz-adv-x="1161" d="M82 0l213 1239q14 82 14 102q0 30 -32 41t-103 11l12 61q45 10 130 21.5t155 11.5q49 0 68.5 -17.5t19.5 -54.5q0 -38 -20 -164l-80 -456q59 90 146.5 147t182.5 57q121 0 182.5 -68t61.5 -177q0 -64 -20 -187l-60 -354q-10 -55 -10 -84q0 -37 26 -50t111 -13v-62 q-35 -11 -120.5 -22t-143.5 -11q-50 0 -85.5 24t-35.5 73q0 35 19 139l63 366q19 102 19 160q0 50 -29.5 80.5t-73.5 30.5q-62 0 -134 -47.5t-120 -116.5l-116 -680h-240z" />
<glyph unicode="i" horiz-adv-x="589" d="M92 905l12 62q40 9 134 20.5t159 11.5q80 0 80 -75q0 -34 -20 -160l-97 -555q-12 -66 -12 -86q0 -36 25 -46.5t112 -10.5v-62q-38 -10 -133 -21.5t-149 -11.5q-103 0 -103 76q0 45 21 160l94 547q14 86 14 100q0 51 -137 51zM274 1311q0 71 49 114t109 43q61 0 100 -41 t39 -98q0 -64 -43 -113t-110 -49q-65 0 -104.5 41.5t-39.5 102.5z" />
<glyph unicode="j" horiz-adv-x="587" d="M-256 -395q0 40 21.5 81.5t52.5 65.5q114 -119 184 -119q38 0 62 81.5t65 320.5l123 708q14 77 14 111q0 51 -137 51l12 62q38 9 135 20.5t156 11.5q82 0 82 -75q0 -31 -22 -170l-109 -611q-56 -310 -194.5 -467t-338.5 -157q-56 0 -81 20t-25 66zM311 1311q0 71 49 114 t109 43q61 0 100 -41t39 -98q0 -64 -43 -113t-110 -49q-65 0 -104.5 41.5t-39.5 102.5z" />
<glyph unicode="k" horiz-adv-x="1107" d="M82 0l213 1239q14 82 14 102q0 30 -32 41t-103 11l12 61q45 10 130 21.5t155 11.5q49 0 68.5 -17.5t19.5 -54.5q0 -38 -20 -164l-217 -1251h-240zM436 492q184 254 311.5 380.5t227.5 126.5q82 0 82 -86q0 -37 -18 -83t-42 -78q-55 36 -123 36q-94 0 -256 -170l293 -483 q22 -35 51.5 -51t79.5 -21v-59q-116 -33 -229 -33q-43 0 -71 17.5t-52 56.5z" />
<glyph unicode="l" horiz-adv-x="598" d="M96 53q0 39 21 154l174 1020q16 99 16 116q0 28 -32 39t-103 11l12 61q45 10 130 21.5t155 11.5q49 0 68.5 -17.5t19.5 -54.5q0 -33 -25 -186l-176 -1016q-10 -55 -10 -84q0 -37 25 -50t110 -13v-62q-37 -10 -131.5 -21.5t-156.5 -11.5q-97 0 -97 82z" />
<glyph unicode="m" horiz-adv-x="1738" d="M102 0l131 750q15 82 15 104q0 51 -137 51l12 62q41 9 131.5 20.5t155.5 11.5q46 0 66 -17t20 -58q0 -23 -17 -127q59 88 145.5 145t178.5 57q207 0 237 -211q58 91 146.5 151t177.5 60q122 0 184 -68t62 -177q0 -48 -21 -187l-57 -348q-12 -66 -12 -90q0 -37 26 -50 t111 -13v-62q-35 -11 -120.5 -22t-143.5 -11q-50 0 -85.5 23.5t-35.5 73.5q0 44 18 143l64 362q18 97 18 160q0 50 -30 80.5t-74 30.5q-51 0 -113.5 -40t-110.5 -102l-120 -702h-240l100 573q19 102 19 160q0 50 -29.5 80.5t-73.5 30.5q-56 0 -123 -47.5t-116 -116.5 l-119 -680h-240z" />
<glyph unicode="n" horiz-adv-x="1181" d="M102 0l134 762q12 66 12 92q0 51 -137 51l12 62q41 9 131.5 20.5t155.5 11.5q51 0 68.5 -19t17.5 -56q0 -23 -17 -127q59 88 147 145t183 57q121 0 182.5 -68t61.5 -177q0 -58 -21 -187l-59 -354q-10 -55 -10 -84q0 -37 26 -50t111 -13v-62q-35 -11 -120.5 -22 t-143.5 -11q-50 0 -85.5 24t-35.5 73q0 40 18 139l64 366q18 97 18 160q0 50 -29 80.5t-73 30.5q-61 0 -132 -47.5t-120 -116.5l-119 -680h-240z" />
<glyph unicode="o" horiz-adv-x="1093" d="M76 346q0 97 23 190.5t70 177t112.5 147.5t157.5 101t198 37q180 0 280.5 -94.5t100.5 -283.5q0 -122 -37 -236.5t-105 -207.5t-176.5 -149.5t-240.5 -56.5q-181 0 -282 93.5t-101 281.5zM326 338q0 -141 35 -222t110 -81q71 0 129.5 55.5t94 144t54.5 190.5t19 204 q0 307 -143 307q-71 0 -130 -56t-94.5 -145t-55 -192.5t-19.5 -204.5z" />
<glyph unicode="p" horiz-adv-x="1107" d="M-98 -422l125 41l196 1137q13 80 13 94q0 29 -30 42t-110 13l15 64q195 30 305 30q42 0 55.5 -19.5t13.5 -55.5q0 -38 -10 -103q49 76 128 127t165 51q88 0 148.5 -47t88 -124t27.5 -177q0 -99 -24 -196.5t-73.5 -184.5t-118.5 -154t-166 -106t-208 -39q-42 0 -114 11 l-64 -361l152 -45v-47h-514v49zM346 86q23 -22 58 -35.5t67 -13.5q84 0 157 79.5t115.5 208.5t42.5 271q0 109 -32.5 178.5t-98.5 69.5q-107 0 -198 -123z" />
<glyph unicode="q" horiz-adv-x="1069" d="M76 319q0 95 24.5 191.5t74.5 184t118.5 155.5t165 108.5t205.5 40.5q81 0 178 -25t166 -67l-215 -1284l122 -45v-49h-536l-2 49l174 45l90 531q-51 -79 -129 -131t-164 -52q-136 0 -204 95t-68 253zM326 375q0 -248 131 -248q49 0 104 32.5t98 96.5l107 627 q-58 51 -125 51q-85 0 -158 -79.5t-115 -208.5t-42 -271z" />
<glyph unicode="r" horiz-adv-x="897" d="M102 0l134 760q12 66 12 96q0 49 -139 49l12 62q39 9 138.5 20.5t164.5 11.5q42 0 57 -19.5t15 -55.5q0 -28 -21 -156q171 231 332 231q80 0 80 -86q0 -89 -70 -178q-25 21 -64.5 34t-78.5 13q-45 0 -102.5 -26.5t-112.5 -83.5l-117 -672h-240z" />
<glyph unicode="s" horiz-adv-x="864" d="M10 137q0 74 59 118.5t140 49.5v-49q0 -39 9.5 -75.5t29 -70.5t56 -54.5t85.5 -20.5q72 0 123 43t51 108q0 39 -24 72.5t-63 59t-85.5 51t-93 54.5t-85.5 62.5t-63 82t-24 106.5q0 133 110.5 229t262.5 96q138 0 226.5 -50.5t88.5 -121.5q0 -131 -215 -131v82 q0 70 -31.5 114t-95.5 44q-61 0 -107.5 -45.5t-46.5 -110.5q0 -41 24 -76.5t63 -62t85.5 -52.5t93.5 -54.5t86 -60.5t63 -77.5t24 -99.5q0 -80 -33 -143t-90.5 -102.5t-131 -60t-157.5 -20.5q-88 0 -162.5 18t-123 57t-48.5 91z" />
<glyph unicode="t" horiz-adv-x="774" d="M102 881l17 90h145l195 237h82l-39 -237h252l-17 -90h-250l-100 -615q-12 -70 -12 -106q0 -35 19 -55.5t55 -20.5q34 0 82.5 17t78.5 38l31 -55q-51 -43 -143 -78t-181 -35q-90 0 -138 41.5t-48 118.5q0 43 16 152l99 598h-144z" />
<glyph unicode="u" horiz-adv-x="1163" d="M82 905l14 62q34 11 129.5 21.5t155.5 10.5q43 0 65.5 -16.5t22.5 -58.5q0 -44 -23 -170l-61 -357q-18 -97 -18 -159q0 -50 29 -80.5t73 -30.5q61 0 132.5 46.5t119.5 115.5l119 682h233l-127 -762q-10 -55 -10 -92q0 -51 135 -51v-62q-42 -10 -129.5 -21.5t-150.5 -11.5 q-103 0 -103 82q0 19 12 121q-58 -89 -147 -146t-184 -57q-120 0 -182 68.5t-62 177.5q0 63 20 186l64 355q12 66 12 92q0 30 -26.5 41t-112.5 14z" />
<glyph unicode="v" horiz-adv-x="997" d="M31 905l14 62q39 8 133.5 20t130.5 12q43 0 61.5 -17.5t24.5 -57.5l117 -672q18 27 59.5 85.5t61 87t49.5 77t44.5 80t26 69.5t11.5 70q0 49 -28.5 99t-76.5 89q27 30 92 60t113 30q39 0 60.5 -29.5t21.5 -76.5q0 -61 -26.5 -137.5t-63.5 -144.5t-99.5 -159.5 t-109.5 -153.5t-121 -157t-108 -141h-84l-160 838q-7 40 -37 52t-106 15z" />
<glyph unicode="w" horiz-adv-x="1476" d="M31 905l14 62q44 8 135 20t129 12q43 0 61 -20t25 -59l115 -639q93 170 150 308.5t57 241.5q0 47 -15 113l216 45l122 -737q101 147 154 259.5t53 207.5q0 48 -30 99.5t-78 90.5q27 31 89.5 60.5t114.5 29.5q39 0 60.5 -29.5t21.5 -76.5q0 -57 -17 -123.5t-40 -125 t-66.5 -135.5t-76.5 -130.5t-91.5 -135t-90 -123t-91.5 -120.5h-84l-112 623q-103 -295 -338 -623h-84l-160 842q-7 36 -38 48t-105 15z" />
<glyph unicode="x" horiz-adv-x="1101" d="M10 70q0 80 82 155q46 -41 88 -41q114 0 287 285l-125 334q-16 42 -32.5 60t-43.5 18t-64 -15t-69 -39l-31 56q46 43 129.5 79.5t163.5 36.5q50 0 81 -15t46.5 -38.5t34.5 -71.5l88 -233q96 153 141 209q117 149 213 149q82 0 82 -92q0 -48 -24.5 -98.5t-55.5 -79.5 q-45 39 -90 39q-27 0 -52.5 -10.5t-43.5 -24t-39.5 -39t-33.5 -44t-33 -50.5t-31 -47l151 -397q22 -58 52 -74t123 -16v-62q-30 -8 -119.5 -20.5t-126.5 -12.5q-54 0 -89 31t-59 94l-112 295q-50 -98 -115.5 -190.5t-141.5 -161t-132 -68.5q-44 0 -71.5 29t-27.5 70z" />
<glyph unicode="y" horiz-adv-x="972" d="M-174 -379q0 38 25.5 76.5t60.5 66.5q31 -25 72.5 -42t76.5 -17q65 0 136 80.5t157 220.5l-186 836q-7 37 -31 47.5t-96 15.5l14 62q172 32 248 32q43 0 60.5 -17.5t25.5 -57.5l135 -660q10 16 47 76.5t59.5 99.5t51 95t43 102.5t14.5 83.5q0 49 -28 99t-76 89 q28 29 92 59.5t113 30.5q39 0 60.5 -29.5t21.5 -76.5q0 -59 -25 -135t-77 -171.5t-98.5 -171.5t-121.5 -192l-141 -217q-141 -214 -206 -294q-147 -178 -283 -192q-12 -1 -25 -1q-54 0 -86.5 26t-32.5 76z" />
<glyph unicode="z" horiz-adv-x="1015" d="M20 0v53l629 840h-241q-72 0 -121 -50.5t-90 -158.5h-60l47 287h770v-49l-630 -844h303q42 0 73.5 14t56.5 45t42 65t39 89h69l-51 -291h-836z" />
<glyph unicode="{" horiz-adv-x="929" d="M90 618l10 62q117 22 177.5 81t80.5 173l64 362q15 85 45 146t66.5 95t90 53t101.5 24.5t115 5.5h151l-12 -70h-88q-36 0 -62 -4.5t-45.5 -19.5t-31 -30t-22 -48.5t-16.5 -61t-16 -81.5l-49 -279q-30 -173 -122.5 -256t-280.5 -121q142 -33 210 -99t68 -181 q0 -60 -37.5 -261t-37.5 -258q0 -55 27 -78.5t97 -23.5h89l-13 -70h-151q-57 0 -98.5 4t-84.5 17.5t-70 37t-44 65t-17 98.5q0 66 41 280.5t41 268.5q0 143 -176 169z" />
<glyph unicode="|" horiz-adv-x="614" d="M260 -481v2068h135v-2068h-135z" />
<glyph unicode="}" horiz-adv-x="929" d="M-27 -322l13 70h88q27 0 48.5 2.5t38.5 11t29 16.5t22.5 26.5t16.5 32t13.5 43.5t11.5 51l12 63l49 278q30 173 123 256t281 121q-142 33 -210.5 99.5t-68.5 181.5q0 60 38 260.5t38 257.5q0 55 -27 78.5t-98 23.5h-88l12 70h152q57 0 98.5 -4t84.5 -17.5t69.5 -36.5 t43.5 -64.5t17 -98.5q0 -65 -41 -280t-41 -269q0 -144 176 -170l-10 -62q-117 -22 -177.5 -80.5t-80.5 -172.5l-63 -363q-15 -85 -45 -146t-66.5 -95t-90 -53t-101.5 -24.5t-115 -5.5h-152z" />
<glyph unicode="~" d="M133 502q28 105 85.5 173t146.5 68q65 0 157 -30.5t172.5 -61t118.5 -30.5q51 0 80 36.5t47 98.5l115 -33q-28 -105 -85.5 -173.5t-146.5 -68.5q-65 0 -157 30.5t-172.5 61.5t-118.5 31q-51 0 -80 -36.5t-47 -98.5z" />
<glyph unicode="&#xa1;" horiz-adv-x="618" d="M41 -313q0 46 51 213t132.5 405.5t86.5 253.5h78q-4 -185 -15.5 -487t-19.5 -363q-9 -66 -56.5 -102.5t-115.5 -36.5q-65 0 -103 30t-38 87zM240 838q0 64 43 112.5t110 48.5q66 0 105 -41t39 -102q0 -71 -49 -114.5t-109 -43.5q-61 0 -100 41.5t-39 98.5z" />
<glyph unicode="&#xa2;" d="M82 336q0 151 67 291.5t192.5 240t281.5 123.5l39 223h108l-39 -215q152 -3 239 -56.5t87 -127.5q0 -48 -34 -81t-81 -46t-104 -14v59q0 57 -9 96.5t-36 69t-72 35.5l-150 -840h17q163 0 340 117l33 -53q-184 -155 -410 -183l-37 -208h-108l34 206q-80 3 -142 22.5 t-112.5 60t-77 111.5t-26.5 169zM332 375q0 -208 135 -262l143 807q-119 -46 -198.5 -196t-79.5 -349z" />
<glyph unicode="&#xa3;" d="M-2 0v61q50 35 88 63.5t87 75t80.5 90.5t54 102.5t22.5 117.5q0 38 -11 106h-190l16 99h154q-18 95 -18 151q0 117 42.5 211t114 153t162 90.5t191.5 31.5q57 0 110 -10t101.5 -30t78 -57.5t29.5 -87.5q0 -57 -34.5 -93.5t-83 -49t-111.5 -12.5v90q0 176 -115 176 q-97 0 -149 -79t-52 -198q0 -44 16.5 -145.5t20.5 -140.5h285l-17 -99h-266q-18 -216 -289 -360h519l96 172h61l-92 -428h-901z" />
<glyph unicode="&#xa4;" d="M68 264l170 146q-29 57 -29 135q0 172 98 291l-135 137l102 94l140 -145q106 61 239 61q126 0 203 -61h2l168 145l76 -94l-170 -146q31 -60 31 -135q0 -168 -97 -286l131 -142l-108 -94l-135 143q-103 -59 -236 -59q-125 0 -205 61l-170 -145zM391 530q0 -202 148 -202 q73 0 130 60t84 145.5t27 173.5q0 202 -147 202q-73 0 -130 -60t-84.5 -145.5t-27.5 -173.5z" />
<glyph unicode="&#xa5;" d="M84 1264l10 59h588l-10 -59l-164 -47l168 -504l340 506l-144 45l11 59h413l-10 -59l-151 -47l-377 -541h198l-16 -98h-244l-20 -117h244l-17 -99h-246l-45 -258l154 -45l-10 -59h-594l10 59l168 45l47 258h-225l16 99h225l23 117h-227l16 98h205l-213 543z" />
<glyph unicode="&#xa6;" horiz-adv-x="614" d="M260 276h135v-757h-135v757zM260 829v758h135v-758h-135z" />
<glyph unicode="&#xa7;" horiz-adv-x="1077" d="M76 -27q0 131 215 131v-81q0 -67 38 -112.5t103 -45.5q61 0 100 39t39 104q0 43 -23 81.5t-59 69t-80.5 60.5t-88.5 62t-80 67t-59 81.5t-23 100.5q0 109 81.5 196.5t211.5 123.5q-121 101 -121 225q0 134 107 230t259 96q139 0 234.5 -51t95.5 -121q0 -131 -215 -131v82 q0 67 -38 112t-103 45q-61 0 -100.5 -39t-39.5 -104q0 -43 23 -81.5t59.5 -69t80.5 -60.5t88 -62t80.5 -67t59.5 -81.5t23 -100.5q0 -109 -82 -197.5t-211 -122.5q121 -105 121 -225q0 -134 -107 -230t-259 -96q-139 0 -234.5 51t-95.5 121zM356 653q0 -26 10.5 -51t24 -43 t42 -42.5t47 -38t57 -40t55.5 -39.5q79 12 116 51t37 99q0 26 -10.5 51t-24 43t-42 42.5t-46.5 38t-56.5 40.5t-55.5 39q-79 -11 -116.5 -51t-37.5 -99z" />
<glyph unicode="&#xa8;" horiz-adv-x="819" d="M188 1311q0 68 46.5 109.5t105.5 41.5q58 0 95.5 -39.5t37.5 -93.5q0 -62 -41.5 -108.5t-105.5 -46.5q-63 0 -100.5 39.5t-37.5 97.5zM618 1311q0 68 46.5 109.5t105.5 41.5q58 0 95.5 -39.5t37.5 -93.5q0 -62 -41.5 -108.5t-105.5 -46.5q-63 0 -100.5 39.5t-37.5 97.5z " />
<glyph unicode="&#xa9;" horiz-adv-x="1638" d="M123 686q0 197 89.5 359.5t254.5 259t373 96.5t373 -96.5t254 -259t89 -359.5t-89 -359.5t-254 -259t-373 -96.5t-373 96.5t-254.5 259t-89.5 359.5zM213 686q0 -129 45 -244.5t125.5 -201t199 -135.5t257.5 -50q137 0 255.5 50t199 135.5t126 201t45.5 244.5 q0 173 -76.5 316.5t-220.5 229t-329 85.5q-137 0 -255.5 -50t-199 -135.5t-126.5 -201t-46 -244.5zM444 674q0 107 34.5 189.5t94 130.5t130.5 72t151 24q128 0 281 -50l6 -211h-68q-29 95 -80 143t-135 48q-55 0 -98 -31t-67.5 -81.5t-37 -107.5t-12.5 -116 q0 -65 12.5 -121.5t39 -103.5t72.5 -74t107 -27q81 0 130.5 49t64.5 140h74l-15 -209q-134 -53 -260 -53q-118 0 -212.5 42.5t-153 132t-58.5 214.5z" />
<glyph unicode="&#xaa;" horiz-adv-x="876" d="M174 913q0 91 29.5 177t84 156t140.5 112.5t190 42.5q62 0 137.5 -19t125.5 -51l-82 -424q-17 -94 -17 -119q0 -24 22.5 -32.5t82.5 -10.5v-47q-19 -6 -91 -15t-106 -9q-45 0 -69.5 21t-24.5 57q0 15 4 55q-35 -55 -94.5 -94t-124.5 -39q-101 0 -154 64t-53 175zM365 958 q0 -82 24 -123.5t64 -41.5q36 0 80.5 28t82.5 80l74 402q-46 32 -96 32q-96 0 -162.5 -113.5t-66.5 -263.5z" />
<glyph unicode="&#xab;" horiz-adv-x="1128" d="M82 504l524 422l51 -49l-309 -373l178 -383l-57 -39zM492 504l524 422l51 -49l-309 -373l178 -383l-57 -39z" />
<glyph unicode="&#xac;" d="M133 739v131h922v-495h-135v364h-787z" />
<glyph unicode="&#xad;" horiz-adv-x="716" d="M68 440l26 150h574l-27 -150h-573z" />
<glyph unicode="&#xae;" horiz-adv-x="1638" d="M123 686q0 197 89.5 359.5t254.5 259t373 96.5t373 -96.5t254 -259t89 -359.5t-89 -359.5t-254 -259t-373 -96.5t-373 96.5t-254.5 259t-89.5 359.5zM213 686q0 -129 45 -244.5t125.5 -201t199 -135.5t257.5 -50q137 0 255.5 50t199 135.5t126 201t45.5 244.5 q0 173 -76.5 316.5t-220.5 229t-329 85.5q-137 0 -255.5 -50t-199 -135.5t-126.5 -201t-46 -244.5zM453 305v53l120 31v608l-120 33v51h401q303 0 303 -192q0 -165 -244 -209q66 -4 100 -29t64 -76l101 -169q34 -48 86 -48v-53q-74 -16 -162 -16q-85 0 -127 76l-125 231 q-17 31 -32.5 43t-37.5 12h-18v-262l112 -31v-53h-421zM762 715h45q78 0 116 44t38 113q0 65 -31 103.5t-94 38.5q-34 0 -74 -6v-293z" />
<glyph unicode="&#xaf;" horiz-adv-x="819" d="M254 1208l27 154h553l-27 -154h-553z" />
<glyph unicode="&#xb0;" d="M313 997q0 146 101.5 250.5t261.5 104.5q132 0 216.5 -82.5t84.5 -216.5q0 -146 -101.5 -250.5t-261.5 -104.5q-132 0 -216.5 82.5t-84.5 216.5zM455 993q0 -82 49 -130t123 -48q89 0 149 67.5t60 172.5q0 82 -49 130t-123 48q-89 0 -149 -67.5t-60 -172.5z" />
<glyph unicode="&#xb1;" d="M133 0v131h922v-131h-922zM133 618v132h391v358h135v-358h396v-132h-396v-364h-135v364h-391z" />
<glyph unicode="&#xb2;" horiz-adv-x="819" d="M47 690v58q222 132 319 207q263 200 263 388q0 52 -28.5 82.5t-74.5 30.5q-126 0 -172 -194q-63 0 -106 19.5t-43 61.5q0 47 53.5 91t132.5 70t154 26q76 0 137.5 -16.5t105 -59.5t43.5 -108q0 -58 -30.5 -117t-76.5 -107t-113 -98t-125.5 -85t-129.5 -73h334l72 95h43 l-66 -271h-692z" />
<glyph unicode="&#xb3;" horiz-adv-x="819" d="M104 829q0 54 47 87.5t119 41.5v-55q0 -70 38.5 -111.5t111.5 -41.5q76 0 122 42t46 115q0 54 -35.5 87.5t-93.5 48.5t-148 20v63q57 8 106.5 22.5t95.5 38t72.5 61t26.5 85.5q0 41 -28.5 67.5t-81.5 26.5q-107 0 -205 -94l-45 49q54 69 138.5 108.5t178.5 39.5 q104 0 173 -41t69 -125q0 -163 -240 -209q110 -14 162.5 -74.5t52.5 -130.5q0 -120 -102.5 -198t-275.5 -78q-125 0 -214.5 49t-89.5 106z" />
<glyph unicode="&#xb4;" horiz-adv-x="819" d="M319 1180q72 91 134.5 184.5t91.5 155.5q190 0 190 -64q0 -32 -69 -97t-142.5 -118t-144.5 -98z" />
<glyph unicode="&#xb5;" horiz-adv-x="1167" d="M47 -260q0 76 27 225l139 793q12 66 12 92q0 30 -26.5 41t-112.5 14l14 62q34 11 129.5 21.5t155.5 10.5q43 0 65.5 -16.5t22.5 -58.5q0 -49 -22 -170l-62 -357q-18 -97 -18 -159q0 -50 29 -80.5t73 -30.5q61 0 132.5 46.5t119.5 115.5l119 682h233l-127 -762 q-10 -55 -10 -92q0 -51 135 -51v-62q-42 -10 -129.5 -21.5t-150.5 -11.5q-103 0 -103 82q0 10 13 121q-58 -89 -147.5 -146t-184.5 -57q-75 0 -126 26t-69 58l-26 -157q-9 -45 -9 -70q0 -32 12.5 -56t29.5 -37.5t51 -24.5t58 -15.5t71 -11.5q-27 -164 -150 -164 q-75 0 -121.5 58t-46.5 163z" />
<glyph unicode="&#xb6;" horiz-adv-x="1433" d="M184 883q0 104 36.5 187.5t99 139t149 92.5t182 53.5t201.5 16.5h625l-13 -65l-202 -52l-252 -1427h-133l253 1446h-165l-254 -1446h-136l119 674q-81 2 -152.5 14.5t-138 41.5t-114.5 71t-76.5 107t-28.5 147zM477 866q0 -105 62 -184.5t170 -89.5l120 682 q-99 0 -180.5 -56.5t-126.5 -150t-45 -201.5z" />
<glyph unicode="&#xb7;" horiz-adv-x="512" d="M123 635q0 71 49 114.5t109 43.5q61 0 100 -41.5t39 -98.5q0 -64 -43.5 -112.5t-110.5 -48.5q-65 0 -104 41t-39 102z" />
<glyph unicode="&#xb8;" horiz-adv-x="819" d="M29 -440l45 80q55 -35 125 -35q36 0 62 16.5t26 50.5q0 35 -42 55.5t-110 20.5l-14 53l192 199h119l-137 -121q85 -6 131.5 -49t46.5 -104q0 -89 -82 -148t-184 -59q-107 0 -178 41z" />
<glyph unicode="&#xb9;" horiz-adv-x="819" d="M145 690l9 66l208 28l130 592l-220 -12l11 63l379 95h55l-156 -738l189 -28l-9 -66h-596z" />
<glyph unicode="&#xba;" horiz-adv-x="884" d="M174 975q0 105 50 201.5t147 160.5t219 64q137 0 219 -78.5t82 -222.5q0 -105 -50 -201.5t-147 -160.5t-219 -64q-137 0 -219 78.5t-82 222.5zM365 936q0 -88 31.5 -140.5t88.5 -52.5q54 0 96.5 36.5t67.5 96t38 127.5t13 138q0 88 -31.5 140t-88.5 52 q-71 0 -121.5 -63.5t-72 -151t-21.5 -182.5z" />
<glyph unicode="&#xbb;" horiz-adv-x="1128" d="M61 131l310 373l-178 383l57 39l387 -422l-524 -422zM471 131l309 373l-178 383l57 39l388 -422l-525 -422z" />
<glyph unicode="&#xbc;" horiz-adv-x="2048" d="M102 520l9 66l208 28l130 592l-220 -12l11 63l378 95h56l-156 -738l189 -28l-9 -66h-596zM483 43l1182 1309l90 -72l-1182 -1309zM1208 236v49l643 546h66l-109 -499h138l-19 -96h-139l-33 -150l127 -23l-8 -63h-473l6 63l149 23l35 150h-383zM1366 332h248l61 264z" />
<glyph unicode="&#xbd;" horiz-adv-x="2048" d="M102 520l9 66l208 28l130 592l-220 -12l11 63l378 95h56l-156 -738l189 -28l-9 -66h-596zM393 43l1182 1309l90 -72l-1182 -1309zM1161 0v57q223 133 323 210q259 199 259 386q0 52 -28.5 82.5t-74.5 30.5q-126 0 -172 -195q-63 0 -106 20t-43 62q0 47 53.5 91t132.5 70 t154 26q76 0 138 -17t105.5 -60t43.5 -108q0 -58 -31 -117t-76.5 -107t-113.5 -97.5t-126 -84.5t-129 -73h334l72 94h43l-66 -270h-692z" />
<glyph unicode="&#xbe;" horiz-adv-x="2048" d="M102 649q0 54 47 87.5t119 41.5v-55q0 -70 38.5 -112t111.5 -42q76 0 122 42.5t46 115.5q0 54 -35.5 87.5t-93.5 48.5t-148 20v63q57 8 106.5 22.5t95.5 38t72.5 61t26.5 85.5q0 41 -28.5 67.5t-81.5 26.5q-107 0 -205 -94l-45 49q54 69 138.5 108.5t178.5 39.5 q104 0 173 -41t69 -125q0 -163 -240 -209q110 -14 162.5 -74.5t52.5 -130.5q0 -120 -102.5 -198t-275.5 -78q-125 0 -214.5 49t-89.5 106zM477 43l1182 1309l90 -72l-1182 -1309zM1208 236v49l643 546h66l-109 -499h138l-19 -96h-139l-33 -150l127 -23l-8 -63h-473l6 63 l149 23l35 150h-383zM1366 332h248l61 264z" />
<glyph unicode="&#xbf;" horiz-adv-x="839" d="M-31 -195q0 78 36.5 151t91 126t118 104.5t118 90t90.5 79t36 74.5q0 26 -21 41.5t-53 15.5q-53 0 -119 -32l-10 61q34 21 96.5 38t114.5 17q36 0 70.5 -8t66 -25.5t51 -49.5t19.5 -74q0 -57 -28 -111.5t-73 -98.5t-99.5 -87t-109 -85t-99.5 -84.5t-73 -93.5t-28 -104 q0 -51 37 -85t92 -34q48 0 84.5 24.5t57.5 66.5t32 87t14 95h60q125 0 125 -92q0 -59 -36 -106.5t-92.5 -76.5t-119.5 -44t-123 -15q-86 0 -158.5 25.5t-120 80t-47.5 129.5zM401 838q0 64 43.5 112.5t110.5 48.5q65 0 104 -41t39 -102q0 -71 -48.5 -114.5t-108.5 -43.5 q-61 0 -100.5 41.5t-39.5 98.5z" />
<glyph unicode="&#xc0;" horiz-adv-x="1546" d="M-20 0l10 59l172 47l760 1295h59l276 -1297l156 -45l-10 -59h-606l10 59l168 50l-76 370h-405l-213 -375l153 -45l-10 -59h-444zM547 571h334l-88 430zM610 1683q0 34 53.5 69.5t118.5 49.5q37 -53 114 -130.5t151 -139.5l-48 -55q-118 36 -253.5 99.5t-135.5 106.5z" />
<glyph unicode="&#xc1;" horiz-adv-x="1546" d="M-20 0l10 59l172 47l760 1295h59l276 -1297l156 -45l-10 -59h-606l10 59l168 50l-76 370h-405l-213 -375l153 -45l-10 -59h-444zM547 571h334l-88 430zM764 1532q74 61 150 139t114 131q65 -14 118.5 -49.5t53.5 -69.5q0 -43 -135.5 -106.5t-253.5 -99.5z" />
<glyph unicode="&#xc2;" horiz-adv-x="1546" d="M-20 0l10 59l172 47l760 1295h59l276 -1297l156 -45l-10 -59h-606l10 59l168 50l-76 370h-405l-213 -375l153 -45l-10 -59h-444zM547 571h334l-88 430zM666 1538q175 170 254 272h104q27 -59 73.5 -143t80.5 -135l-56 -45l-172 135l-227 -135z" />
<glyph unicode="&#xc3;" horiz-adv-x="1546" d="M-20 0l10 59l172 47l760 1295h59l276 -1297l156 -45l-10 -59h-606l10 59l168 50l-76 370h-405l-213 -375l153 -45l-10 -59h-444zM547 571h334l-88 430zM633 1534q47 132 98 192t123 60q40 0 154 -43t145 -43q32 0 52 22t48 80l64 -22q-47 -132 -98 -192t-123 -60 q-40 0 -154 43t-145 43q-32 0 -52.5 -22.5t-48.5 -80.5z" />
<glyph unicode="&#xc4;" horiz-adv-x="1546" d="M-20 0l10 59l172 47l760 1295h59l276 -1297l156 -45l-10 -59h-606l10 59l168 50l-76 370h-405l-213 -375l153 -45l-10 -59h-444zM547 571h334l-88 430zM637 1636q0 68 46.5 110t104.5 42t96 -39.5t38 -93.5q0 -62 -42 -109t-106 -47q-62 0 -99.5 39.5t-37.5 97.5z M1067 1636q0 68 47 110t105 42t95.5 -39.5t37.5 -93.5q0 -62 -42 -109t-106 -47q-62 0 -99.5 39.5t-37.5 97.5z" />
<glyph unicode="&#xc5;" horiz-adv-x="1546" d="M-20 0l10 59l172 47l760 1295h59l276 -1297l156 -45l-10 -59h-606l10 59l168 50l-76 370h-405l-213 -375l153 -45l-10 -59h-444zM547 571h334l-88 430zM766 1630q0 94 62 153.5t159 59.5q79 0 131.5 -44.5t52.5 -112.5q0 -94 -62 -153.5t-159 -59.5q-79 0 -131.5 44.5 t-52.5 112.5zM887 1620q0 -38 19 -58t46 -20q44 0 71.5 46t27.5 108q0 37 -19.5 57.5t-46.5 20.5q-44 0 -71 -46t-27 -108z" />
<glyph unicode="&#xc6;" horiz-adv-x="2035" d="M-31 0l8 57l175 49l903 1162l-170 45l14 59h1126l-65 -366h-57l-58 280h-418l-92 -524h236l108 203h54l-86 -492h-54l-37 203h-235l-104 -590h411l203 326h57l-90 -412h-1030l10 59l168 45l68 375h-449l-286 -373l186 -47l-10 -59h-486zM635 569h395l121 670z" />
<glyph unicode="&#xc7;" horiz-adv-x="1445" d="M133 563q0 171 55 322t157.5 266.5t260 182.5t350.5 67q114 0 250 -29t199 -59l-47 -328h-76q-19 170 -103.5 256t-228.5 86q-97 0 -178.5 -35t-138.5 -95.5t-100 -137.5t-68 -166.5t-37 -176t-12 -171.5q0 -222 98.5 -359t273.5 -137q144 0 264.5 92.5t178.5 253.5h84 l-86 -327q-215 -87 -424 -95l-105 -94q85 -6 132 -49t47 -104q0 -88 -82.5 -147.5t-184.5 -59.5q-107 0 -178 41l45 80q55 -35 125 -35q36 0 62 16.5t26 50.5q0 35 -41.5 55.5t-109.5 20.5l-15 53l168 174q-255 19 -408 175t-153 413z" />
<glyph unicode="&#xc8;" horiz-adv-x="1257" d="M-10 0l10 59l168 45l207 1164l-154 45l10 59h1016l-65 -366h-58l-57 280h-418l-92 -524h236l108 203h53l-86 -492h-53l-37 203h-235l-105 -590h412l203 326h57l-90 -412h-1030zM498 1683q0 34 53.5 69.5t118.5 49.5q38 -53 114 -131t150 -139l-47 -55 q-118 36 -253.5 99.5t-135.5 106.5z" />
<glyph unicode="&#xc9;" horiz-adv-x="1257" d="M-10 0l10 59l168 45l207 1164l-154 45l10 59h1016l-65 -366h-58l-57 280h-418l-92 -524h236l108 203h53l-86 -492h-53l-37 203h-235l-105 -590h412l203 326h57l-90 -412h-1030zM584 1532q74 61 150 139t114 131q65 -14 118.5 -49.5t53.5 -69.5q0 -43 -135.5 -106.5 t-253.5 -99.5z" />
<glyph unicode="&#xca;" horiz-adv-x="1257" d="M-10 0l10 59l168 45l207 1164l-154 45l10 59h1016l-65 -366h-58l-57 280h-418l-92 -524h236l108 203h53l-86 -492h-53l-37 203h-235l-105 -590h412l203 326h57l-90 -412h-1030zM526 1538q175 170 254 272h105q28 -60 73.5 -144t79.5 -134l-55 -45l-172 135l-227 -135z " />
<glyph unicode="&#xcb;" horiz-adv-x="1257" d="M-10 0l10 59l168 45l207 1164l-154 45l10 59h1016l-65 -366h-58l-57 280h-418l-92 -524h236l108 203h53l-86 -492h-53l-37 203h-235l-105 -590h412l203 326h57l-90 -412h-1030zM473 1636q0 68 47 110t105 42t95.5 -39.5t37.5 -93.5q0 -62 -42 -109t-106 -47 q-62 0 -99.5 39.5t-37.5 97.5zM903 1636q0 68 47 110t105 42t95.5 -39.5t37.5 -93.5q0 -62 -42 -109t-106 -47q-62 0 -99.5 39.5t-37.5 97.5z" />
<glyph unicode="&#xcc;" horiz-adv-x="755" d="M-10 0l10 59l168 45l207 1164l-154 45l15 59h591l-10 -59l-170 -45l-207 -1164l156 -45l-10 -59h-596zM264 1683q0 34 53.5 69.5t118.5 49.5q38 -53 114 -131t150 -139l-47 -55q-118 36 -253.5 99.5t-135.5 106.5z" />
<glyph unicode="&#xcd;" horiz-adv-x="755" d="M-10 0l10 59l168 45l207 1164l-154 45l15 59h591l-10 -59l-170 -45l-207 -1164l156 -45l-10 -59h-596zM367 1532q74 61 150 139t114 131q65 -14 118.5 -49.5t53.5 -69.5q0 -43 -135.5 -106.5t-253.5 -99.5z" />
<glyph unicode="&#xce;" horiz-adv-x="755" d="M-10 0l10 59l168 45l207 1164l-154 45l15 59h591l-10 -59l-170 -45l-207 -1164l156 -45l-10 -59h-596zM264 1538q175 170 254 272h105q28 -60 73.5 -144t79.5 -134l-55 -45l-172 135l-227 -135z" />
<glyph unicode="&#xcf;" horiz-adv-x="755" d="M-10 0l10 59l168 45l207 1164l-154 45l15 59h591l-10 -59l-170 -45l-207 -1164l156 -45l-10 -59h-596zM229 1636q0 68 47 110t105 42t95.5 -39.5t37.5 -93.5q0 -62 -41.5 -109t-105.5 -47q-63 0 -100.5 39.5t-37.5 97.5zM659 1636q0 68 47 110t105 42t95.5 -39.5 t37.5 -93.5q0 -62 -41.5 -109t-105.5 -47q-63 0 -100.5 39.5t-37.5 97.5z" />
<glyph unicode="&#xd0;" horiz-adv-x="1622" d="M20 0l11 59l168 45l96 547h-158l19 119h161l89 498l-154 45l10 59h617q178 0 309 -40t209 -114.5t115.5 -174t37.5 -226.5q0 -248 -110.5 -433.5t-313.5 -284.5t-473 -99h-633zM469 86h211q120 0 219.5 42t167 113t113.5 167.5t67 204t21 223.5q0 203 -103.5 327.5 t-306.5 124.5h-178l-92 -518h256l-19 -119h-258z" />
<glyph unicode="&#xd1;" horiz-adv-x="1536" d="M-10 0l10 59l168 45l207 1164l-154 45l10 59h437l520 -917l141 813l-153 45l10 59h432l-10 -59l-168 -45l-228 -1286h-75l-672 1177l-186 -1055l155 -45l-10 -59h-434zM653 1534q47 132 98 192t123 60q41 0 154.5 -43t145.5 -43t52 22t48 80l63 -22q-47 -132 -98 -192 t-123 -60q-40 0 -154 43t-145 43q-32 0 -51.5 -22t-48.5 -81z" />
<glyph unicode="&#xd2;" horiz-adv-x="1583" d="M133 504q0 175 56 335.5t158 286t260.5 200.5t348.5 75q142 0 250 -41t174 -115t98.5 -172t32.5 -219q0 -134 -35.5 -263t-106 -241t-167 -196.5t-228 -133.5t-280.5 -49q-143 0 -252.5 41t-176 114t-99.5 168t-33 210zM416 451q0 -404 309 -404q106 0 193.5 60.5 t143.5 154.5t95 212.5t55.5 229.5t16.5 211q0 206 -75.5 308t-231.5 102q-91 0 -168.5 -43.5t-131.5 -116.5t-95 -163t-64.5 -190t-35 -190.5t-11.5 -170.5zM682 1683q0 34 53.5 69.5t118.5 49.5q38 -53 114 -131t150 -139l-47 -55q-118 36 -253.5 99.5t-135.5 106.5z" />
<glyph unicode="&#xd3;" horiz-adv-x="1583" d="M133 504q0 175 56 335.5t158 286t260.5 200.5t348.5 75q142 0 250 -41t174 -115t98.5 -172t32.5 -219q0 -134 -35.5 -263t-106 -241t-167 -196.5t-228 -133.5t-280.5 -49q-143 0 -252.5 41t-176 114t-99.5 168t-33 210zM416 451q0 -404 309 -404q106 0 193.5 60.5 t143.5 154.5t95 212.5t55.5 229.5t16.5 211q0 206 -75.5 308t-231.5 102q-91 0 -168.5 -43.5t-131.5 -116.5t-95 -163t-64.5 -190t-35 -190.5t-11.5 -170.5zM709 1532q74 61 150 139t114 131q65 -14 118.5 -49.5t53.5 -69.5q0 -43 -135.5 -106.5t-253.5 -99.5z" />
<glyph unicode="&#xd4;" horiz-adv-x="1583" d="M133 504q0 175 56 335.5t158 286t260.5 200.5t348.5 75q142 0 250 -41t174 -115t98.5 -172t32.5 -219q0 -134 -35.5 -263t-106 -241t-167 -196.5t-228 -133.5t-280.5 -49q-143 0 -252.5 41t-176 114t-99.5 168t-33 210zM416 451q0 -404 309 -404q106 0 193.5 60.5 t143.5 154.5t95 212.5t55.5 229.5t16.5 211q0 206 -75.5 308t-231.5 102q-91 0 -168.5 -43.5t-131.5 -116.5t-95 -163t-64.5 -190t-35 -190.5t-11.5 -170.5zM657 1538q175 170 254 272h105q28 -60 73.5 -144t79.5 -134l-55 -45l-172 135l-227 -135z" />
<glyph unicode="&#xd5;" horiz-adv-x="1583" d="M133 504q0 175 56 335.5t158 286t260.5 200.5t348.5 75q142 0 250 -41t174 -115t98.5 -172t32.5 -219q0 -134 -35.5 -263t-106 -241t-167 -196.5t-228 -133.5t-280.5 -49q-143 0 -252.5 41t-176 114t-99.5 168t-33 210zM416 451q0 -404 309 -404q106 0 193.5 60.5 t143.5 154.5t95 212.5t55.5 229.5t16.5 211q0 206 -75.5 308t-231.5 102q-91 0 -168.5 -43.5t-131.5 -116.5t-95 -163t-64.5 -190t-35 -190.5t-11.5 -170.5zM596 1534q47 132 98 192t123 60q40 0 153.5 -43t145.5 -43t52.5 22t48.5 80l63 -22q-47 -132 -98 -192t-123 -60 q-41 0 -154 43t-145 43t-52.5 -22.5t-48.5 -80.5z" />
<glyph unicode="&#xd6;" horiz-adv-x="1583" d="M133 504q0 175 56 335.5t158 286t260.5 200.5t348.5 75q142 0 250 -41t174 -115t98.5 -172t32.5 -219q0 -134 -35.5 -263t-106 -241t-167 -196.5t-228 -133.5t-280.5 -49q-143 0 -252.5 41t-176 114t-99.5 168t-33 210zM416 451q0 -404 309 -404q106 0 193.5 60.5 t143.5 154.5t95 212.5t55.5 229.5t16.5 211q0 206 -75.5 308t-231.5 102q-91 0 -168.5 -43.5t-131.5 -116.5t-95 -163t-64.5 -190t-35 -190.5t-11.5 -170.5zM612 1636q0 68 47 110t105 42t95.5 -39.5t37.5 -93.5q0 -62 -41.5 -109t-105.5 -47q-63 0 -100.5 39.5t-37.5 97.5z M1042 1636q0 68 47 110t105 42t95.5 -39.5t37.5 -93.5q0 -62 -41.5 -109t-105.5 -47q-63 0 -100.5 39.5t-37.5 97.5z" />
<glyph unicode="&#xd7;" d="M211 326l291 290l-291 293l94 90l289 -290l289 290l94 -90l-291 -293l291 -290l-94 -90l-289 288l-289 -288z" />
<glyph unicode="&#xd8;" horiz-adv-x="1583" d="M55 -70l195 213q-117 137 -117 361q0 175 56 335.5t158 286t260.5 200.5t348.5 75q217 0 355 -96l125 137h155l-196 -215q116 -139 116 -373q0 -134 -35.5 -263t-106 -241t-167 -196.5t-228 -133.5t-280.5 -49q-216 0 -358 95l-125 -136h-156zM416 451q0 -63 6 -119 l764 835q-71 158 -264 158q-91 0 -168.5 -43.5t-131.5 -116.5t-95 -163t-64.5 -190t-35 -190.5t-11.5 -170.5zM459 203q73 -156 266 -156q106 0 193.5 60.5t143.5 154.5t95 212.5t55.5 229.5t16.5 211q0 47 -8 121z" />
<glyph unicode="&#xd9;" horiz-adv-x="1533" d="M205 342q0 42 10 107l145 819l-153 45l10 59h596l-10 -59l-170 -45l-141 -801q-11 -71 -11 -107q0 -133 81.5 -205.5t217.5 -72.5q159 0 272 109t150 319l135 758l-153 45l10 59h432l-10 -59l-170 -45l-135 -768q-46 -259 -207 -394t-389 -135q-75 0 -142.5 9.5 t-136.5 35.5t-118.5 66t-81 107t-31.5 153zM633 1683q0 34 53.5 69.5t118.5 49.5q38 -53 114 -131t150 -139l-47 -55q-118 36 -253.5 99.5t-135.5 106.5z" />
<glyph unicode="&#xda;" horiz-adv-x="1533" d="M205 342q0 42 10 107l145 819l-153 45l10 59h596l-10 -59l-170 -45l-141 -801q-11 -71 -11 -107q0 -133 81.5 -205.5t217.5 -72.5q159 0 272 109t150 319l135 758l-153 45l10 59h432l-10 -59l-170 -45l-135 -768q-46 -259 -207 -394t-389 -135q-75 0 -142.5 9.5 t-136.5 35.5t-118.5 66t-81 107t-31.5 153zM844 1532q74 61 150 139t114 131q65 -14 118.5 -49.5t53.5 -69.5q0 -43 -135.5 -106.5t-253.5 -99.5z" />
<glyph unicode="&#xdb;" horiz-adv-x="1533" d="M205 342q0 42 10 107l145 819l-153 45l10 59h596l-10 -59l-170 -45l-141 -801q-11 -71 -11 -107q0 -133 81.5 -205.5t217.5 -72.5q159 0 272 109t150 319l135 758l-153 45l10 59h432l-10 -59l-170 -45l-135 -768q-46 -259 -207 -394t-389 -135q-75 0 -142.5 9.5 t-136.5 35.5t-118.5 66t-81 107t-31.5 153zM709 1538q175 170 254 272h104q27 -59 73.5 -143t80.5 -135l-56 -45l-172 135l-227 -135z" />
<glyph unicode="&#xdc;" horiz-adv-x="1533" d="M205 342q0 42 10 107l145 819l-153 45l10 59h596l-10 -59l-170 -45l-141 -801q-11 -71 -11 -107q0 -133 81.5 -205.5t217.5 -72.5q159 0 272 109t150 319l135 758l-153 45l10 59h432l-10 -59l-170 -45l-135 -768q-46 -259 -207 -394t-389 -135q-75 0 -142.5 9.5 t-136.5 35.5t-118.5 66t-81 107t-31.5 153zM643 1636q0 68 47 110t105 42t95.5 -39.5t37.5 -93.5q0 -62 -42 -109t-106 -47q-62 0 -99.5 39.5t-37.5 97.5zM1073 1636q0 68 47 110t105 42t95.5 -39.5t37.5 -93.5q0 -62 -42 -109t-106 -47q-62 0 -99.5 39.5t-37.5 97.5z" />
<glyph unicode="&#xdd;" horiz-adv-x="1427" d="M174 1313l10 59h602l-10 -59l-166 -47l232 -561l395 563l-143 45l10 59h436l-10 -59l-174 -47l-477 -674l-86 -488l163 -45l-10 -59h-614l10 59l178 45l86 486l-293 678zM745 1532q74 62 151 139.5t114 130.5q65 -14 118.5 -49.5t53.5 -69.5q0 -43 -135.5 -106.5 t-253.5 -99.5z" />
<glyph unicode="&#xde;" horiz-adv-x="1271" d="M-10 0l10 59l168 45l207 1164l-154 45l17 59h589l-12 -59l-168 -45l-37 -203h121q106 0 190 -17.5t150.5 -55t102.5 -102.5t36 -155q0 -88 -35 -161t-94 -122.5t-138.5 -83.5t-166 -49.5t-178.5 -15.5h-66l13 64q182 25 283.5 122.5t101.5 260.5q0 116 -56 177.5 t-155 61.5q-66 0 -123 -16l-156 -871l156 -43l-10 -59h-596z" />
<glyph unicode="&#xdf;" horiz-adv-x="1288" d="M-256 -420q0 40 32 90t68 82q28 -40 73.5 -79.5t84.5 -39.5q41 0 63 74t64 328l143 844h-143l16 92h142l12 59q25 124 109 229.5t206.5 167.5t253.5 62q95 0 173 -28.5t127 -87t49 -136.5q0 -62 -43.5 -119.5t-105 -100.5t-123 -82.5t-105 -83t-43.5 -85.5 q0 -38 30.5 -73.5t76 -62.5t99 -62t99 -70t76 -87.5t30.5 -113.5q0 -148 -113.5 -237t-287.5 -89q-137 0 -230.5 44t-93.5 122q0 74 59 118.5t140 49.5v-49q0 -40 7.5 -75.5t25.5 -70t53 -55t84 -20.5q71 0 117.5 42.5t46.5 108.5q0 35 -21.5 67t-56.5 59t-76.5 54t-83.5 56 t-77 60.5t-56.5 73.5t-21.5 89q0 45 25.5 94.5t64 91t83.5 92.5t83.5 98.5t64 108.5t25.5 123q0 65 -38 111.5t-106 46.5q-105 0 -178 -90t-100 -246l-158 -932q-28 -164 -82.5 -287.5t-127 -195.5t-153.5 -106.5t-171 -34.5q-111 0 -111 61z" />
<glyph unicode="&#xe0;" horiz-adv-x="1105" d="M76 319q0 95 24.5 191t74 184t118 156t164.5 108.5t205 40.5q82 0 181 -25t165 -67l-109 -628q-20 -123 -20 -156t29 -44t108 -13v-62q-30 -10 -116 -21.5t-144 -11.5q-61 0 -93 27.5t-32 75.5q0 22 8 80q-51 -79 -128 -131t-163 -52q-136 0 -204 95t-68 253zM326 379 q0 -252 133 -252q105 0 196 123l111 635q-24 21 -59.5 35t-67.5 14q-83 0 -156 -80.5t-115 -208.5t-42 -266zM375 1456q0 64 190 64q29 -62 91.5 -155.5t134.5 -184.5l-60 -37q-71 45 -144.5 98t-142.5 118t-69 97z" />
<glyph unicode="&#xe1;" horiz-adv-x="1105" d="M76 319q0 95 24.5 191t74 184t118 156t164.5 108.5t205 40.5q82 0 181 -25t165 -67l-109 -628q-20 -123 -20 -156t29 -44t108 -13v-62q-30 -10 -116 -21.5t-144 -11.5q-61 0 -93 27.5t-32 75.5q0 22 8 80q-51 -79 -128 -131t-163 -52q-136 0 -204 95t-68 253zM326 379 q0 -252 133 -252q105 0 196 123l111 635q-24 21 -59.5 35t-67.5 14q-83 0 -156 -80.5t-115 -208.5t-42 -266zM475 1180q158 199 225 340q191 0 191 -64q0 -32 -69 -97t-142.5 -118t-144.5 -98z" />
<glyph unicode="&#xe2;" horiz-adv-x="1105" d="M76 319q0 95 24.5 191t74 184t118 156t164.5 108.5t205 40.5q82 0 181 -25t165 -67l-109 -628q-20 -123 -20 -156t29 -44t108 -13v-62q-30 -10 -116 -21.5t-144 -11.5q-61 0 -93 27.5t-32 75.5q0 22 8 80q-51 -79 -128 -131t-163 -52q-136 0 -204 95t-68 253zM326 379 q0 -252 133 -252q105 0 196 123l111 635q-24 21 -59.5 35t-67.5 14q-83 0 -156 -80.5t-115 -208.5t-42 -266zM352 1184q53 57 134 159t132 173h103q25 -71 70 -175t77 -161l-61 -37l-164 164l-231 -164z" />
<glyph unicode="&#xe3;" horiz-adv-x="1105" d="M76 319q0 95 24.5 191t74 184t118 156t164.5 108.5t205 40.5q82 0 181 -25t165 -67l-109 -628q-20 -123 -20 -156t29 -44t108 -13v-62q-30 -10 -116 -21.5t-144 -11.5q-61 0 -93 27.5t-32 75.5q0 22 8 80q-51 -79 -128 -131t-163 -52q-136 0 -204 95t-68 253zM289 1206 q47 132 98 192t123 60q40 0 153.5 -43t145.5 -43t51.5 22t48.5 81l64 -23q-47 -132 -98 -192t-123 -60q-40 0 -154 43t-145 43q-32 0 -52.5 -22t-48.5 -80zM326 379q0 -252 133 -252q105 0 196 123l111 635q-24 21 -59.5 35t-67.5 14q-83 0 -156 -80.5t-115 -208.5t-42 -266 z" />
<glyph unicode="&#xe4;" horiz-adv-x="1105" d="M76 319q0 95 24.5 191t74 184t118 156t164.5 108.5t205 40.5q82 0 181 -25t165 -67l-109 -628q-20 -123 -20 -156t29 -44t108 -13v-62q-30 -10 -116 -21.5t-144 -11.5q-61 0 -93 27.5t-32 75.5q0 22 8 80q-51 -79 -128 -131t-163 -52q-136 0 -204 95t-68 253zM309 1311 q0 68 46.5 109.5t105.5 41.5q58 0 95.5 -39.5t37.5 -93.5q0 -62 -42 -108.5t-106 -46.5q-62 0 -99.5 39.5t-37.5 97.5zM326 379q0 -252 133 -252q105 0 196 123l111 635q-24 21 -59.5 35t-67.5 14q-83 0 -156 -80.5t-115 -208.5t-42 -266zM739 1311q0 68 46.5 109.5 t105.5 41.5q58 0 95.5 -39.5t37.5 -93.5q0 -62 -41.5 -108.5t-105.5 -46.5q-63 0 -100.5 39.5t-37.5 97.5z" />
<glyph unicode="&#xe5;" horiz-adv-x="1105" d="M76 319q0 95 24.5 191t74 184t118 156t164.5 108.5t205 40.5q82 0 181 -25t165 -67l-109 -628q-20 -123 -20 -156t29 -44t108 -13v-62q-30 -10 -116 -21.5t-144 -11.5q-61 0 -93 27.5t-32 75.5q0 22 8 80q-51 -79 -128 -131t-163 -52q-136 0 -204 95t-68 253zM326 379 q0 -252 133 -252q105 0 196 123l111 635q-24 21 -59.5 35t-67.5 14q-83 0 -156 -80.5t-115 -208.5t-42 -266zM436 1303q0 94 62 153.5t159 59.5q79 0 132 -45t53 -113q0 -94 -62 -153.5t-159 -59.5q-79 0 -132 45t-53 113zM557 1292q0 -37 19.5 -57.5t46.5 -20.5q44 0 71 46 t27 108q0 37 -19.5 57.5t-46.5 20.5q-44 0 -71 -46t-27 -108z" />
<glyph unicode="&#xe6;" horiz-adv-x="1562" d="M51 156q0 54 20 100t52.5 78.5t83 60t101 45t117 32t121 22.5t122.5 16l32 217q11 71 11 104q0 103 -95 103q-82 0 -140.5 -72.5t-82.5 -197.5h-82q-137 0 -137 75q0 69 70.5 130t179.5 95.5t223 34.5q90 0 167 -26t112 -88q141 114 317 114q131 -2 210 -53t79 -158 q0 -134 -157 -221.5t-455 -97.5q-5 -34 -5 -80q0 -291 205 -291q131 0 281 107l33 -53q-79 -73 -203.5 -127t-249.5 -54q-58 0 -104 10.5t-89 36t-72 76t-40 123.5q-47 -110 -150.5 -178t-222.5 -68q-108 0 -180 47t-72 138zM326 184q0 -39 24 -63.5t66 -24.5q31 0 63 14.5 t68.5 49.5t66.5 108.5t45 177.5q-54 -12 -105 -31t-106 -49.5t-88.5 -78t-33.5 -103.5zM928 535q98 9 179.5 44t135 100t53.5 148q0 52 -24.5 80.5t-69.5 28.5q-85 0 -165 -117.5t-109 -283.5z" />
<glyph unicode="&#xe7;" horiz-adv-x="989" d="M76 315q0 132 40 254t113 218t185.5 154t247.5 58q137 0 206.5 -46.5t69.5 -116.5q0 -58 -59.5 -96t-149.5 -38v56q0 88 -21 133t-79 45q-82 0 -153 -82.5t-110.5 -210.5t-39.5 -264t51.5 -208.5t150.5 -72.5q130 0 281 99l31 -54q-71 -63 -171 -107t-202 -59l-113 -98 q85 -6 131.5 -49t46.5 -104q0 -89 -82 -148t-184 -59q-107 0 -178 41l45 80q55 -35 125 -35q36 0 62 16.5t26 50.5q0 35 -41.5 55.5t-109.5 20.5l-15 53l166 172q-137 9 -203.5 99.5t-66.5 242.5z" />
<glyph unicode="&#xe8;" horiz-adv-x="972" d="M76 322q0 126 40.5 246.5t112.5 217t183 155t241 58.5q289 0 289 -208q0 -135 -158 -224t-454 -98q-4 -27 -4 -80q0 -291 204 -291q131 0 281 107l33 -53q-79 -73 -203.5 -127t-249.5 -54q-66 0 -118.5 15.5t-99 52.5t-72 108.5t-25.5 174.5zM242 1456q0 64 190 64 q67 -141 225 -340l-59 -37q-71 45 -144.5 98t-142.5 118t-69 97zM338 535q152 15 260.5 93t108.5 201q0 51 -24.5 79t-70.5 28q-85 0 -165 -117.5t-109 -283.5z" />
<glyph unicode="&#xe9;" horiz-adv-x="972" d="M76 322q0 126 40.5 246.5t112.5 217t183 155t241 58.5q289 0 289 -208q0 -135 -158 -224t-454 -98q-4 -27 -4 -80q0 -291 204 -291q131 0 281 107l33 -53q-79 -73 -203.5 -127t-249.5 -54q-66 0 -118.5 15.5t-99 52.5t-72 108.5t-25.5 174.5zM338 535q152 15 260.5 93 t108.5 201q0 51 -24.5 79t-70.5 28q-85 0 -165 -117.5t-109 -283.5zM422 1180q158 199 225 340q191 0 191 -64q0 -32 -69.5 -97t-143 -118t-144.5 -98z" />
<glyph unicode="&#xea;" horiz-adv-x="972" d="M76 322q0 126 40.5 246.5t112.5 217t183 155t241 58.5q289 0 289 -208q0 -135 -158 -224t-454 -98q-4 -27 -4 -80q0 -291 204 -291q131 0 281 107l33 -53q-79 -73 -203.5 -127t-249.5 -54q-66 0 -118.5 15.5t-99 52.5t-72 108.5t-25.5 174.5zM334 1184q53 57 134 159 t132 173h102q25 -70 70.5 -174.5t77.5 -161.5l-62 -37l-163 164l-232 -164zM338 535q152 15 260.5 93t108.5 201q0 51 -24.5 79t-70.5 28q-85 0 -165 -117.5t-109 -283.5z" />
<glyph unicode="&#xeb;" horiz-adv-x="972" d="M76 322q0 126 40.5 246.5t112.5 217t183 155t241 58.5q289 0 289 -208q0 -135 -158 -224t-454 -98q-4 -27 -4 -80q0 -291 204 -291q131 0 281 107l33 -53q-79 -73 -203.5 -127t-249.5 -54q-66 0 -118.5 15.5t-99 52.5t-72 108.5t-25.5 174.5zM254 1311q0 68 46.5 109.5 t105.5 41.5q58 0 95.5 -39.5t37.5 -93.5q0 -62 -42 -108.5t-106 -46.5q-62 0 -99.5 39.5t-37.5 97.5zM338 535q152 15 260.5 93t108.5 201q0 51 -24.5 79t-70.5 28q-85 0 -165 -117.5t-109 -283.5zM684 1311q0 68 46.5 109.5t105.5 41.5q58 0 95.5 -39.5t37.5 -93.5 q0 -62 -42 -108.5t-106 -46.5q-62 0 -99.5 39.5t-37.5 97.5z" />
<glyph unicode="&#xec;" horiz-adv-x="589" d="M70 1456q0 64 190 64q67 -141 225 -340l-59 -37q-71 45 -144.5 98t-142.5 118t-69 97zM92 905l12 62q39 9 135.5 20.5t161.5 11.5q76 0 76 -75q0 -34 -20 -160l-97 -555q-12 -66 -12 -86q0 -36 25 -46.5t112 -10.5v-62q-38 -10 -134 -21.5t-152 -11.5q-43 0 -71 18.5 t-28 57.5q0 45 21 160l96 555q12 66 12 92q0 51 -137 51z" />
<glyph unicode="&#xed;" horiz-adv-x="589" d="M92 905l12 62q39 9 135.5 20.5t161.5 11.5q76 0 76 -75q0 -34 -20 -160l-97 -555q-12 -66 -12 -86q0 -36 25 -46.5t112 -10.5v-62q-38 -10 -134 -21.5t-152 -11.5q-43 0 -71 18.5t-28 57.5q0 45 21 160l96 555q12 66 12 92q0 51 -137 51zM186 1180q72 91 134.5 184.5 t91.5 155.5q190 0 190 -64q0 -32 -69 -97t-142.5 -118t-144.5 -98z" />
<glyph unicode="&#xee;" horiz-adv-x="589" d="M84 1184q53 57 134 159t132 173h103q25 -71 70 -175t77 -161l-61 -37l-164 164l-232 -164zM92 905l12 62q39 9 135.5 20.5t161.5 11.5q76 0 76 -75q0 -34 -20 -160l-97 -555q-12 -66 -12 -86q0 -36 25 -46.5t112 -10.5v-62q-38 -10 -134 -21.5t-152 -11.5q-43 0 -71 18.5 t-28 57.5q0 45 21 160l96 555q12 66 12 92q0 51 -137 51z" />
<glyph unicode="&#xef;" horiz-adv-x="589" d="M37 1311q0 68 46.5 109.5t104.5 41.5t96 -39.5t38 -93.5q0 -62 -42 -108.5t-106 -46.5q-62 0 -99.5 39.5t-37.5 97.5zM92 905l12 62q39 9 135.5 20.5t161.5 11.5q76 0 76 -75q0 -34 -20 -160l-97 -555q-12 -66 -12 -86q0 -36 25 -46.5t112 -10.5v-62q-38 -10 -134 -21.5 t-152 -11.5q-43 0 -71 18.5t-28 57.5q0 45 21 160l96 555q12 66 12 92q0 51 -137 51zM467 1311q0 68 46.5 109.5t104.5 41.5t96 -39.5t38 -93.5q0 -62 -42 -108.5t-106 -46.5q-62 0 -99.5 39.5t-37.5 97.5z" />
<glyph unicode="&#xf0;" horiz-adv-x="1103" d="M76 371q0 163 62.5 299t185 221t282.5 86q63 0 139 -27q-21 119 -83 228l-263 -111l15 113l192 80q-83 105 -233 186l47 70q196 -66 336 -193l217 92l-15 -112l-127 -56q205 -229 205 -555q0 -101 -21 -201.5t-66.5 -194.5t-109.5 -166t-156.5 -115.5t-201.5 -43.5 q-185 0 -295 102.5t-110 297.5zM338 332q0 -131 39 -208t108 -77q62 0 112.5 53.5t80.5 133t51 178t29 182t8 151.5q0 57 -6 119q-60 17 -107 17q-69 -1 -124.5 -39.5t-90 -97.5t-58 -134.5t-33 -144.5t-9.5 -133z" />
<glyph unicode="&#xf1;" horiz-adv-x="1181" d="M102 0l134 762q12 66 12 92q0 51 -137 51l12 62q41 9 131.5 20.5t155.5 11.5q51 0 68.5 -19t17.5 -56q0 -23 -17 -127q59 88 147 145t183 57q121 0 182.5 -68t61.5 -177q0 -58 -21 -187l-59 -354q-10 -55 -10 -84q0 -37 26 -50t111 -13v-62q-35 -11 -120.5 -22 t-143.5 -11q-50 0 -85.5 24t-35.5 73q0 40 18 139l64 366q18 97 18 160q0 50 -29 80.5t-73 30.5q-61 0 -132 -47.5t-120 -116.5l-119 -680h-240zM307 1206q47 132 98 192t123 60q40 0 154 -43t145 -43q32 0 52.5 22.5t48.5 80.5l63 -23q-47 -132 -98 -192t-123 -60 q-40 0 -154 43t-145 43q-32 0 -52 -22t-48 -80z" />
<glyph unicode="&#xf2;" horiz-adv-x="1093" d="M76 346q0 97 23 190.5t70 177t112.5 147.5t157.5 101t198 37q180 0 280.5 -94.5t100.5 -283.5q0 -122 -37 -236.5t-105 -207.5t-176.5 -149.5t-240.5 -56.5q-181 0 -282 93.5t-101 281.5zM326 338q0 -141 35 -222t110 -81q71 0 129.5 55.5t94 144t54.5 190.5t19 204 q0 307 -143 307q-71 0 -130 -56t-94.5 -145t-55 -192.5t-19.5 -204.5zM358 1456q0 64 191 64q67 -141 225 -340l-59 -37q-71 45 -144.5 98t-143 118t-69.5 97z" />
<glyph unicode="&#xf3;" horiz-adv-x="1093" d="M76 346q0 97 23 190.5t70 177t112.5 147.5t157.5 101t198 37q180 0 280.5 -94.5t100.5 -283.5q0 -122 -37 -236.5t-105 -207.5t-176.5 -149.5t-240.5 -56.5q-181 0 -282 93.5t-101 281.5zM326 338q0 -141 35 -222t110 -81q71 0 129.5 55.5t94 144t54.5 190.5t19 204 q0 307 -143 307q-71 0 -130 -56t-94.5 -145t-55 -192.5t-19.5 -204.5zM463 1180q158 199 225 340q191 0 191 -64q0 -32 -69.5 -97t-143 -118t-144.5 -98z" />
<glyph unicode="&#xf4;" horiz-adv-x="1093" d="M76 346q0 97 23 190.5t70 177t112.5 147.5t157.5 101t198 37q180 0 280.5 -94.5t100.5 -283.5q0 -122 -37 -236.5t-105 -207.5t-176.5 -149.5t-240.5 -56.5q-181 0 -282 93.5t-101 281.5zM326 338q0 -141 35 -222t110 -81q71 0 129.5 55.5t94 144t54.5 190.5t19 204 q0 307 -143 307q-71 0 -130 -56t-94.5 -145t-55 -192.5t-19.5 -204.5zM360 1184q53 57 135 159.5t132 172.5h102q25 -70 70.5 -174.5t77.5 -161.5l-62 -37l-164 164l-231 -164z" />
<glyph unicode="&#xf5;" horiz-adv-x="1093" d="M76 346q0 97 23 190.5t70 177t112.5 147.5t157.5 101t198 37q180 0 280.5 -94.5t100.5 -283.5q0 -122 -37 -236.5t-105 -207.5t-176.5 -149.5t-240.5 -56.5q-181 0 -282 93.5t-101 281.5zM272 1206q47 132 98.5 192t123.5 60q40 0 154 -43t145 -43q32 0 51.5 22t48.5 81 l63 -23q-47 -132 -98 -192t-123 -60q-40 0 -153.5 43t-145.5 43t-52 -22t-48 -80zM326 338q0 -141 35 -222t110 -81q71 0 129.5 55.5t94 144t54.5 190.5t19 204q0 307 -143 307q-71 0 -130 -56t-94.5 -145t-55 -192.5t-19.5 -204.5z" />
<glyph unicode="&#xf6;" horiz-adv-x="1093" d="M76 346q0 97 23 190.5t70 177t112.5 147.5t157.5 101t198 37q180 0 280.5 -94.5t100.5 -283.5q0 -122 -37 -236.5t-105 -207.5t-176.5 -149.5t-240.5 -56.5q-181 0 -282 93.5t-101 281.5zM291 1311q0 68 46.5 109.5t104.5 41.5t95.5 -39.5t37.5 -93.5q0 -62 -41.5 -108.5 t-105.5 -46.5q-62 0 -99.5 39.5t-37.5 97.5zM326 338q0 -141 35 -222t110 -81q71 0 129.5 55.5t94 144t54.5 190.5t19 204q0 307 -143 307q-71 0 -130 -56t-94.5 -145t-55 -192.5t-19.5 -204.5zM721 1311q0 68 46.5 109.5t104.5 41.5t96 -39.5t38 -93.5q0 -62 -42 -108.5 t-106 -46.5q-62 0 -99.5 39.5t-37.5 97.5z" />
<glyph unicode="&#xf7;" d="M133 553v133h922v-133h-922zM465 309q0 55 37 93t90 38q56 0 93.5 -38t37.5 -93q0 -53 -38 -90t-93 -37q-52 0 -89.5 37t-37.5 90zM465 934q0 54 37 91.5t90 37.5q55 0 93 -37.5t38 -91.5t-38 -91.5t-93 -37.5q-53 0 -90 37.5t-37 91.5z" />
<glyph unicode="&#xf8;" horiz-adv-x="1093" d="M59 -51l105 129q-88 94 -88 268q0 97 23 190.5t70 177t112.5 147.5t157.5 101t198 37q136 0 227 -55l64 78h106l-106 -131q90 -96 90 -270q0 -122 -37 -236.5t-105 -207.5t-176.5 -149.5t-240.5 -56.5q-138 0 -232 54l-61 -76h-107zM326 279l424 524q-32 133 -125 133 q-71 0 -130 -56t-94.5 -145t-55 -192.5t-19.5 -204.5v-59zM342 168q32 -133 129 -133q71 0 129.5 55.5t94 144t54.5 190.5t19 204q0 10 -1 31t-1 30z" />
<glyph unicode="&#xf9;" horiz-adv-x="1163" d="M82 905l14 62q34 11 129.5 21.5t155.5 10.5q43 0 65.5 -16.5t22.5 -58.5q0 -44 -23 -170l-61 -357q-18 -97 -18 -159q0 -50 29 -80.5t73 -30.5q61 0 132.5 46.5t119.5 115.5l119 682h233l-127 -762q-10 -55 -10 -92q0 -51 135 -51v-62q-42 -10 -129.5 -21.5t-150.5 -11.5 q-103 0 -103 82q0 19 12 121q-58 -89 -147 -146t-184 -57q-120 0 -182 68.5t-62 177.5q0 63 20 186l64 355q12 66 12 92q0 30 -26.5 41t-112.5 14zM301 1456q0 64 191 64q67 -141 225 -340l-60 -37q-71 45 -144.5 98t-142.5 118t-69 97z" />
<glyph unicode="&#xfa;" horiz-adv-x="1163" d="M82 905l14 62q34 11 129.5 21.5t155.5 10.5q43 0 65.5 -16.5t22.5 -58.5q0 -44 -23 -170l-61 -357q-18 -97 -18 -159q0 -50 29 -80.5t73 -30.5q61 0 132.5 46.5t119.5 115.5l119 682h233l-127 -762q-10 -55 -10 -92q0 -51 135 -51v-62q-42 -10 -129.5 -21.5t-150.5 -11.5 q-103 0 -103 82q0 19 12 121q-58 -89 -147 -146t-184 -57q-120 0 -182 68.5t-62 177.5q0 63 20 186l64 355q12 66 12 92q0 30 -26.5 41t-112.5 14zM518 1180q158 199 225 340q191 0 191 -64q0 -32 -69 -97t-142.5 -118t-144.5 -98z" />
<glyph unicode="&#xfb;" horiz-adv-x="1163" d="M82 905l14 62q34 11 129.5 21.5t155.5 10.5q43 0 65.5 -16.5t22.5 -58.5q0 -44 -23 -170l-61 -357q-18 -97 -18 -159q0 -50 29 -80.5t73 -30.5q61 0 132.5 46.5t119.5 115.5l119 682h233l-127 -762q-10 -55 -10 -92q0 -51 135 -51v-62q-42 -10 -129.5 -21.5t-150.5 -11.5 q-103 0 -103 82q0 19 12 121q-58 -89 -147 -146t-184 -57q-120 0 -182 68.5t-62 177.5q0 63 20 186l64 355q12 66 12 92q0 30 -26.5 41t-112.5 14zM338 1184q53 57 134 159t132 173h103q25 -71 70 -175t77 -161l-61 -37l-164 164l-232 -164z" />
<glyph unicode="&#xfc;" horiz-adv-x="1163" d="M82 905l14 62q34 11 129.5 21.5t155.5 10.5q43 0 65.5 -16.5t22.5 -58.5q0 -44 -23 -170l-61 -357q-18 -97 -18 -159q0 -50 29 -80.5t73 -30.5q61 0 132.5 46.5t119.5 115.5l119 682h233l-127 -762q-10 -55 -10 -92q0 -51 135 -51v-62q-42 -10 -129.5 -21.5t-150.5 -11.5 q-103 0 -103 82q0 19 12 121q-58 -89 -147 -146t-184 -57q-120 0 -182 68.5t-62 177.5q0 63 20 186l64 355q12 66 12 92q0 30 -26.5 41t-112.5 14zM305 1311q0 68 46.5 109.5t105.5 41.5q58 0 95.5 -39.5t37.5 -93.5q0 -62 -42 -108.5t-106 -46.5q-62 0 -99.5 39.5 t-37.5 97.5zM735 1311q0 68 46.5 109.5t105.5 41.5q58 0 95.5 -39.5t37.5 -93.5q0 -62 -42 -108.5t-106 -46.5q-62 0 -99.5 39.5t-37.5 97.5z" />
<glyph unicode="&#xfd;" horiz-adv-x="972" d="M-174 -379q0 38 25.5 76.5t60.5 66.5q31 -25 72.5 -42t76.5 -17q65 0 136 80.5t157 220.5l-186 836q-7 37 -31 47.5t-96 15.5l14 62q172 32 248 32q43 0 60.5 -17.5t25.5 -57.5l135 -660q10 16 47 76.5t59.5 99.5t51 95t43 102.5t14.5 83.5q0 49 -28 99t-76 89 q28 29 92 59.5t113 30.5q39 0 60.5 -29.5t21.5 -76.5q0 -59 -25 -135t-77 -171.5t-98.5 -171.5t-121.5 -192l-141 -217q-141 -214 -206 -294q-147 -178 -283 -192q-12 -1 -25 -1q-54 0 -86.5 26t-32.5 76zM424 1180q158 199 225 340q191 0 191 -64q0 -32 -69.5 -97 t-143 -118t-144.5 -98z" />
<glyph unicode="&#xfe;" horiz-adv-x="1097" d="M-109 -422l125 41l281 1630q12 66 12 92q0 30 -32 41t-103 11l12 61q45 10 130 21.5t155 11.5q49 0 68.5 -17.5t19.5 -54.5q0 -38 -20 -164l-76 -432q49 77 128.5 128.5t166.5 51.5q88 0 148.5 -47t88 -124t27.5 -177q0 -99 -24 -196.5t-73.5 -184.5t-118.5 -154 t-166 -106t-208 -39q-44 0 -115 11l-63 -361l152 -45v-47h-515v49zM336 86q23 -22 58 -35.5t67 -13.5q84 0 157 79.5t115.5 208.5t42.5 271q0 109 -32.5 178.5t-98.5 69.5q-108 0 -199 -123z" />
<glyph unicode="&#xff;" horiz-adv-x="972" d="M-174 -379q0 38 25.5 76.5t60.5 66.5q31 -25 72.5 -42t76.5 -17q65 0 136 80.5t157 220.5l-186 836q-7 37 -31 47.5t-96 15.5l14 62q172 32 248 32q43 0 60.5 -17.5t25.5 -57.5l135 -660q10 16 47 76.5t59.5 99.5t51 95t43 102.5t14.5 83.5q0 49 -28 99t-76 89 q28 29 92 59.5t113 30.5q39 0 60.5 -29.5t21.5 -76.5q0 -59 -25 -135t-77 -171.5t-98.5 -171.5t-121.5 -192l-141 -217q-141 -214 -206 -294q-147 -178 -283 -192q-12 -1 -25 -1q-54 0 -86.5 26t-32.5 76zM236 1311q0 68 46.5 109.5t104.5 41.5t95.5 -39.5t37.5 -93.5 q0 -62 -41.5 -108.5t-105.5 -46.5q-62 0 -99.5 39.5t-37.5 97.5zM666 1311q0 68 46.5 109.5t104.5 41.5t95.5 -39.5t37.5 -93.5q0 -62 -41.5 -108.5t-105.5 -46.5q-62 0 -99.5 39.5t-37.5 97.5z" />
<glyph unicode="&#x152;" horiz-adv-x="1939" d="M133 547q0 170 57.5 320t161.5 262.5t261 177.5t345 65h971l-65 -366h-58l-57 280h-418l-92 -524h236l108 203h53l-86 -492h-53l-37 203h-235l-105 -590h412l203 326h57l-90 -412h-995q-283 0 -428.5 146.5t-145.5 400.5zM412 553q0 -111 17 -194t55 -146t103 -95 t158 -32h101l215 1202h-146q-82 0 -153.5 -32.5t-121.5 -85t-91 -121t-65.5 -139t-41.5 -141.5t-23.5 -124.5t-6.5 -91.5z" />
<glyph unicode="&#x153;" horiz-adv-x="1642" d="M76 346q0 97 23 190.5t70 177t112.5 147.5t157.5 101t198 37q229 0 317 -155q152 155 369 155q289 0 289 -208q0 -135 -158.5 -224t-454.5 -98q-4 -27 -4 -80q0 -291 205 -291q131 0 281 107l32 -53q-79 -73 -203 -127t-249 -54q-191 0 -262 129q-139 -129 -340 -129 q-181 0 -282 93.5t-101 281.5zM326 338q0 -141 35 -222t110 -81q71 0 129.5 55.5t94 144t54.5 190.5t19 204q0 307 -143 307q-71 0 -130 -56t-94.5 -145t-55 -192.5t-19.5 -204.5zM1008 535q152 15 260 93t108 201q0 51 -24 79t-70 28q-85 0 -165 -117.5t-109 -283.5z" />
<glyph unicode="&#x178;" horiz-adv-x="1427" d="M174 1313l10 59h602l-10 -59l-166 -47l232 -561l395 563l-143 45l10 59h436l-10 -59l-174 -47l-477 -674l-86 -488l163 -45l-10 -59h-614l10 59l178 45l86 486l-293 678zM592 1636q0 68 46.5 110t104.5 42t96 -39.5t38 -93.5q0 -62 -42 -109t-106 -47q-62 0 -99.5 39.5 t-37.5 97.5zM1022 1636q0 68 47 110t105 42t95.5 -39.5t37.5 -93.5q0 -62 -42 -109t-106 -47q-62 0 -99.5 39.5t-37.5 97.5z" />
<glyph unicode="&#x2c6;" horiz-adv-x="819" d="M276 1184q53 57 135 159.5t132 172.5h102q25 -70 70.5 -174.5t77.5 -161.5l-62 -37l-164 164l-231 -164z" />
<glyph unicode="&#x2dc;" horiz-adv-x="819" d="M219 1206q47 132 98 192t123 60q41 0 154.5 -43t144.5 -43q32 0 52.5 22.5t48.5 80.5l63 -23q-47 -132 -98 -192t-123 -60q-40 0 -154 43t-145 43q-32 0 -52 -22t-48 -80z" />
<glyph unicode="&#x2000;" horiz-adv-x="921" />
<glyph unicode="&#x2001;" horiz-adv-x="1843" />
<glyph unicode="&#x2002;" horiz-adv-x="921" />
<glyph unicode="&#x2003;" horiz-adv-x="1843" />
<glyph unicode="&#x2004;" horiz-adv-x="614" />
<glyph unicode="&#x2005;" horiz-adv-x="460" />
<glyph unicode="&#x2006;" horiz-adv-x="307" />
<glyph unicode="&#x2007;" horiz-adv-x="307" />
<glyph unicode="&#x2008;" horiz-adv-x="230" />
<glyph unicode="&#x2009;" horiz-adv-x="368" />
<glyph unicode="&#x200a;" horiz-adv-x="102" />
<glyph unicode="&#x2010;" horiz-adv-x="716" d="M68 440l26 150h574l-27 -150h-573z" />
<glyph unicode="&#x2011;" horiz-adv-x="716" d="M68 440l26 150h574l-27 -150h-573z" />
<glyph unicode="&#x2012;" horiz-adv-x="716" d="M68 440l26 150h574l-27 -150h-573z" />
<glyph unicode="&#x2013;" horiz-adv-x="1228" d="M68 440l26 150h1086l-27 -150h-1085z" />
<glyph unicode="&#x2014;" horiz-adv-x="1843" d="M68 440l26 150h1700l-27 -150h-1699z" />
<glyph unicode="&#x2018;" horiz-adv-x="544" d="M203 995q0 110 75 221.5t199 186.5l37 -62q-58 -36 -112.5 -97t-73.5 -118h22q61 0 99 -36t38 -91q0 -65 -42.5 -111t-100.5 -46q-64 0 -102.5 42t-38.5 111z" />
<glyph unicode="&#x2019;" horiz-adv-x="544" d="M236 901q58 36 112.5 97t73.5 118h-23q-61 0 -99 36t-38 91q0 65 43 111.5t101 46.5q64 0 102.5 -42.5t38.5 -111.5q0 -109 -75.5 -220t-199.5 -187z" />
<glyph unicode="&#x201a;" horiz-adv-x="544" d="M43 -231q58 36 112.5 97t73.5 118h-22q-61 0 -99 36t-38 91q0 65 42.5 111t100.5 46q64 0 102.5 -42t38.5 -111q0 -110 -75 -221.5t-199 -186.5z" />
<glyph unicode="&#x201c;" horiz-adv-x="892" d="M203 995q0 110 75 221.5t199 186.5l37 -62q-58 -36 -112.5 -97t-73.5 -118h22q61 0 99 -36t38 -91q0 -65 -42.5 -111t-100.5 -46q-64 0 -102.5 42t-38.5 111zM551 995q0 110 75 221.5t199 186.5l37 -62q-58 -36 -112.5 -97t-73.5 -118h22q61 0 99.5 -36t38.5 -91 q0 -65 -43 -111t-101 -46q-64 0 -102.5 42t-38.5 111z" />
<glyph unicode="&#x201d;" horiz-adv-x="892" d="M236 901q58 36 112.5 97t73.5 118h-23q-61 0 -99 36t-38 91q0 65 43 111.5t101 46.5q64 0 102.5 -42.5t38.5 -111.5q0 -109 -75.5 -220t-199.5 -187zM584 901q58 36 112.5 97t73.5 118h-22q-61 0 -99.5 36t-38.5 91q0 65 43 111.5t101 46.5q64 0 102.5 -42.5t38.5 -111.5 q0 -110 -75 -221t-199 -186z" />
<glyph unicode="&#x201e;" horiz-adv-x="892" d="M43 -231q58 36 112.5 97t73.5 118h-22q-61 0 -99 36t-38 91q0 65 42.5 111t100.5 46q64 0 102.5 -42t38.5 -111q0 -110 -75 -221.5t-199 -186.5zM391 -231q58 36 113 97t74 118h-23q-61 0 -99 36t-38 91q0 65 42.5 111t100.5 46q64 0 102.5 -42t38.5 -111 q0 -110 -75 -221.5t-199 -186.5z" />
<glyph unicode="&#x2022;" horiz-adv-x="854" d="M158 637q0 72 28.5 132.5t74 99t100.5 60t110 21.5q123 0 201 -82t78 -196q0 -127 -87 -224.5t-219 -97.5q-131 0 -208.5 83t-77.5 204z" />
<glyph unicode="&#x2026;" horiz-adv-x="1536" d="M68 115q0 71 48.5 114t108.5 43q61 0 100.5 -41t39.5 -98q0 -64 -43.5 -113t-110.5 -49q-65 0 -104 41.5t-39 102.5zM580 115q0 71 48.5 114t108.5 43q61 0 100.5 -41t39.5 -98q0 -64 -43.5 -113t-110.5 -49q-65 0 -104 41.5t-39 102.5zM1092 115q0 71 48.5 114t108.5 43 q61 0 100.5 -41t39.5 -98q0 -64 -43.5 -113t-110.5 -49q-65 0 -104 41.5t-39 102.5z" />
<glyph unicode="&#x202f;" horiz-adv-x="368" />
<glyph unicode="&#x2039;" horiz-adv-x="718" d="M82 504l524 422l51 -49l-309 -373l178 -383l-57 -39z" />
<glyph unicode="&#x203a;" horiz-adv-x="718" d="M61 131l310 373l-178 383l57 39l387 -422l-524 -422z" />
<glyph unicode="&#x205f;" horiz-adv-x="460" />
<glyph unicode="&#x20ac;" d="M49 510l17 98h92q4 39 20 117h-92l16 98h103q34 109 88.5 201t130.5 167t179 118t222 43q84 0 175.5 -24t136.5 -50l-50 -322h-77q-3 71 -14 125.5t-32.5 99.5t-59 69t-89.5 24q-72 0 -137 -65t-110.5 -162t-80.5 -224h357l-17 -98h-362q-20 -97 -23 -117h365l-16 -98 h-361q-6 -70 -6 -131q0 -157 47 -239.5t137 -82.5q190 0 299 359h84l-90 -359q-58 -37 -143.5 -61.5t-171.5 -24.5q-93 0 -170.5 30.5t-137 92.5t-93 164t-33.5 236v16h-103z" />
<glyph unicode="&#x2122;" horiz-adv-x="2058" d="M199 1120l45 252h766l-45 -252h-56l-35 178h-169l-107 -604l102 -32l-8 -50h-401l8 50l115 32l106 604h-168l-92 -178h-61zM944 612l8 50l109 32l104 592l-96 31l10 55h295l125 -520l324 520h286l-10 -55l-108 -31l-105 -592l101 -32l-9 -50h-381l9 50l106 32l92 508 l-383 -606h-53l-139 621l-92 -523l92 -32l-8 -50h-277z" />
<glyph unicode="&#xe000;" horiz-adv-x="1003" d="M0 0v1004h1004v-1004h-1004z" />
<glyph unicode="&#xfb01;" horiz-adv-x="1376" d="M-256 -420q0 40 32 90t68 82q28 -40 73.5 -79.5t84.5 -39.5q41 0 63 74t64 328l143 844h-143l16 92h142l12 57q22 101 81.5 189.5t135.5 146t158.5 90.5t154.5 33q49 0 70 -19t21 -57t-26.5 -86.5t-55.5 -69.5q-4 4 -22.5 19.5t-28.5 23t-29 20.5t-32.5 20t-32 12.5 t-34.5 5.5q-51 0 -81.5 -99.5t-51.5 -285.5h234l-17 -92h-229l-125 -736q-28 -164 -82.5 -287t-127 -195t-153.5 -107t-171 -35q-111 0 -111 61zM879 905l12 62q40 9 134 20.5t159 11.5q80 0 80 -75q0 -28 -21 -160l-96 -555q-12 -66 -12 -86q0 -36 25 -46.5t112 -10.5v-62 q-38 -10 -133.5 -21.5t-149.5 -11.5q-102 0 -102 76q0 50 20 160l94 547q15 93 15 100q0 51 -137 51zM1061 1311q0 71 49 114t109 43q61 0 100 -41t39 -98q0 -64 -43.5 -113t-110.5 -49q-65 0 -104 41.5t-39 102.5z" />
<glyph unicode="&#xfb02;" horiz-adv-x="1384" d="M-256 -420q0 40 32 90t68 82q28 -40 73.5 -79.5t84.5 -39.5q41 0 63 74t64 328l143 844h-143l16 92h142l12 57q22 101 81.5 189.5t135.5 146t158.5 90.5t154.5 33q49 0 70 -19t21 -57t-26.5 -86.5t-55.5 -69.5q-4 4 -22.5 19.5t-28.5 23t-29 20.5t-32.5 20t-32 12.5 t-34.5 5.5q-51 0 -81.5 -99.5t-51.5 -285.5h234l-17 -92h-229l-125 -736q-28 -164 -82.5 -287t-127 -195t-153.5 -107t-171 -35q-111 0 -111 61zM883 53q0 44 20 154l174 1020q17 105 17 116q0 28 -32.5 39t-103.5 11l13 61q45 10 129.5 21.5t154.5 11.5q49 0 68.5 -17.5 t19.5 -54.5q0 -40 -24 -186l-176 -1016q-10 -55 -10 -84q0 -37 25 -50t110 -13v-62q-37 -10 -132 -21.5t-157 -11.5q-96 0 -96 82z" />
</font>
</defs>
</svg>
